STARTFONT 2.1
COMMENT
COMMENT Converted from OpenType font "10100.otf" by "otf2bdf 3.0".
COMMENT
FONT -FreeType-Pepsi Cyr Lat-Medium-R-Normal--17-120-100-100-P-101-ISO10646-1
SIZE 12 100 100
FONTBOUNDINGBOX 35 26 -8 -6
STARTPROPERTIES 19
FOUNDRY "FreeType"
FAMILY_NAME "Pepsi Cyr Lat"
WEIGHT_NAME "Medium"
SLANT "R"
SETWIDTH_NAME "Normal"
ADD_STYLE_NAME ""
PIXEL_SIZE 17
POINT_SIZE 120
RESOLUTION_X 100
RESOLUTION_Y 100
SPACING "P"
AVERAGE_WIDTH 101
CHARSET_REGISTRY "ISO10646"
CHARSET_ENCODING "1"
FONT_ASCENT 20
FONT_DESCENT 5
COPYRIGHT "Cyrillic Adaptation By Dmitry Astakhov.Copyright Jakub Degorski 2000. All Rights Reserved."
_OTF_FONTFILE "10100.otf"
_OTF_PSNAME "PepsiCyr-Lat"
ENDPROPERTIES
CHARS 2161
STARTCHAR 0000
ENCODING 0
SWIDTH 0 0
DWIDTH 0 0
BBX 0 0 0 0
BITMAP
ENDCHAR
STARTCHAR 001D
ENCODING 29
SWIDTH 0 0
DWIDTH 0 0
BBX 0 0 0 0
BITMAP
ENDCHAR
STARTCHAR 0020
ENCODING 32
SWIDTH 180 0
DWIDTH 3 0
BBX 0 0 0 0
BITMAP
ENDCHAR
STARTCHAR 0021
ENCODING 33
SWIDTH 180 0
DWIDTH 3 0
BBX 4 12 0 0
BITMAP
70
70
70
60
60
60
E0
E0
E0
40
E0
E0
ENDCHAR
STARTCHAR 0022
ENCODING 34
SWIDTH 360 0
DWIDTH 6 0
BBX 6 4 0 8
BITMAP
78
7C
F8
F8
ENDCHAR
STARTCHAR 0023
ENCODING 35
SWIDTH 660 0
DWIDTH 11 0
BBX 12 12 0 0
BITMAP
39C0
B9C0
FFC0
FFF0
FFF0
7BF0
FBC0
FFC0
FFE0
FFE0
73E0
7380
ENDCHAR
STARTCHAR 0024
ENCODING 36
SWIDTH 660 0
DWIDTH 11 0
BBX 12 13 0 -1
BITMAP
0FF0
7FE0
7FE0
FF00
EE00
FFC0
7FE0
3FE0
0E60
FFE0
FFC0
FF80
1E00
ENDCHAR
STARTCHAR 0025
ENCODING 37
SWIDTH 840 0
DWIDTH 14 0
BBX 14 16 0 -1
BITMAP
0060
00E0
7CC0
FEC0
C780
C7F8
C7FC
C78C
FF8C
7F8C
078C
0FFC
0DF8
0CF0
1800
1800
ENDCHAR
STARTCHAR 0026
ENCODING 38
SWIDTH 720 0
DWIDTH 12 0
BBX 12 12 0 0
BITMAP
0380
1F80
3F80
7000
7000
7FF0
3BE0
7BE0
E1C0
C380
FF00
7E00
ENDCHAR
STARTCHAR 0027
ENCODING 39
SWIDTH 180 0
DWIDTH 3 0
BBX 3 4 0 8
BITMAP
60
E0
E0
E0
ENDCHAR
STARTCHAR 0028
ENCODING 40
SWIDTH 360 0
DWIDTH 6 0
BBX 6 16 0 -2
BITMAP
0C
1C
18
38
30
70
70
60
E0
E0
E0
E0
60
70
70
30
ENDCHAR
STARTCHAR 0029
ENCODING 41
SWIDTH 300 0
DWIDTH 5 0
BBX 6 16 -1 -2
BITMAP
30
38
38
1C
1C
1C
1C
1C
1C
18
38
38
30
70
60
E0
ENDCHAR
STARTCHAR 002A
ENCODING 42
SWIDTH 360 0
DWIDTH 6 0
BBX 6 7 0 6
BITMAP
34
7C
F8
7C
FC
F0
B0
ENDCHAR
STARTCHAR 002B
ENCODING 43
SWIDTH 600 0
DWIDTH 10 0
BBX 10 9 0 2
BITMAP
0E00
0E00
0E00
7FC0
FFC0
FFC0
0C00
1C00
1C00
ENDCHAR
STARTCHAR 002C
ENCODING 44
SWIDTH 240 0
DWIDTH 4 0
BBX 2 4 1 -2
BITMAP
C0
C0
C0
C0
ENDCHAR
STARTCHAR 002D
ENCODING 45
SWIDTH 480 0
DWIDTH 8 0
BBX 8 2 0 5
BITMAP
FF
FF
ENDCHAR
STARTCHAR 002E
ENCODING 46
SWIDTH 240 0
DWIDTH 4 0
BBX 3 3 1 0
BITMAP
C0
E0
C0
ENDCHAR
STARTCHAR 002F
ENCODING 47
SWIDTH 540 0
DWIDTH 9 0
BBX 9 17 0 -2
BITMAP
0180
0380
0300
0300
0600
0600
0C00
0C00
1C00
1800
3800
3000
3000
6000
6000
C000
C000
ENDCHAR
STARTCHAR 0030
ENCODING 48
SWIDTH 780 0
DWIDTH 13 0
BBX 13 12 0 0
BITMAP
1FE0
3FF0
7FF0
7078
F078
F078
E078
E078
F070
FFF0
7FF0
7FE0
ENDCHAR
STARTCHAR 0031
ENCODING 49
SWIDTH 300 0
DWIDTH 5 0
BBX 5 12 0 0
BITMAP
78
78
78
70
70
70
70
70
F0
F0
F0
F0
ENDCHAR
STARTCHAR 0032
ENCODING 50
SWIDTH 780 0
DWIDTH 13 0
BBX 13 12 0 0
BITMAP
7FC0
7FF0
7FF8
00F8
0078
03F0
0FE0
3F80
7E00
FFF0
FFF0
7FF0
ENDCHAR
STARTCHAR 0033
ENCODING 51
SWIDTH 720 0
DWIDTH 12 0
BBX 12 12 0 0
BITMAP
7FC0
7FF0
7FF0
0070
0070
0FE0
0FE0
0FF0
0070
FFF0
FFE0
FFC0
ENDCHAR
STARTCHAR 0034
ENCODING 52
SWIDTH 720 0
DWIDTH 12 0
BBX 12 12 0 0
BITMAP
0030
00F0
01F0
03F0
0FF0
1F70
3C70
7FF0
FFF0
7FF0
00F0
00E0
ENDCHAR
STARTCHAR 0035
ENCODING 53
SWIDTH 780 0
DWIDTH 13 0
BBX 13 12 0 0
BITMAP
3FF8
7FF8
7FF8
7000
7000
7FF0
7FF0
7FF8
0078
FFF0
FFF0
FFE0
ENDCHAR
STARTCHAR 0036
ENCODING 54
SWIDTH 780 0
DWIDTH 13 0
BBX 13 12 0 0
BITMAP
07F8
3FF0
7FF0
7000
FFE0
FFF0
FFF0
E038
E038
F070
7FF0
3FE0
ENDCHAR
STARTCHAR 0037
ENCODING 55
SWIDTH 720 0
DWIDTH 12 0
BBX 12 12 0 0
BITMAP
7FC0
FFE0
FFF0
00F0
0070
0070
00F0
00F0
00F0
00E0
00E0
00E0
ENDCHAR
STARTCHAR 0038
ENCODING 56
SWIDTH 780 0
DWIDTH 13 0
BBX 13 12 0 0
BITMAP
1FE0
3FF0
7FF8
7078
7070
3FF0
7FF0
F070
E070
FFF0
FFF0
3FC0
ENDCHAR
STARTCHAR 0039
ENCODING 57
SWIDTH 780 0
DWIDTH 13 0
BBX 13 12 0 0
BITMAP
1FC0
7FF0
7FF0
E038
E038
FFF8
7FF8
3FF0
0070
7FF0
FFE0
FFC0
ENDCHAR
STARTCHAR 003A
ENCODING 58
SWIDTH 180 0
DWIDTH 3 0
BBX 3 6 0 2
BITMAP
60
E0
E0
40
E0
E0
ENDCHAR
STARTCHAR 003B
ENCODING 59
SWIDTH 180 0
DWIDTH 3 0
BBX 3 10 0 -2
BITMAP
60
E0
60
00
00
00
C0
C0
C0
C0
ENDCHAR
STARTCHAR 003C
ENCODING 60
SWIDTH 540 0
DWIDTH 9 0
BBX 9 11 0 1
BITMAP
0180
0F00
3F00
FE00
F000
F000
7C00
1F00
0F00
0300
0100
ENDCHAR
STARTCHAR 003D
ENCODING 61
SWIDTH 540 0
DWIDTH 9 0
BBX 9 7 0 3
BITMAP
7F80
7F80
FF80
0000
FF80
FF80
FF80
ENDCHAR
STARTCHAR 003E
ENCODING 62
SWIDTH 540 0
DWIDTH 9 0
BBX 9 11 0 1
BITMAP
4000
7000
7800
3C00
1E00
0F80
0F80
7F80
FF00
F000
8000
ENDCHAR
STARTCHAR 003F
ENCODING 63
SWIDTH 360 0
DWIDTH 6 0
BBX 7 12 0 0
BITMAP
F8
FC
FE
1E
0E
0C
1C
1C
1C
08
1C
1C
ENDCHAR
STARTCHAR 0040
ENCODING 64
SWIDTH 660 0
DWIDTH 11 0
BBX 11 12 0 0
BITMAP
0700
1FC0
3860
77E0
6F60
DB60
DB60
DBC0
DFC0
6880
7F80
1F00
ENDCHAR
STARTCHAR 0041
ENCODING 65
SWIDTH 720 0
DWIDTH 12 0
BBX 12 12 0 0
BITMAP
0FC0
3FE0
7FF0
7070
F070
F070
FFF0
FFF0
E0F0
E0E0
E0E0
E0E0
ENDCHAR
STARTCHAR 0042
ENCODING 66
SWIDTH 720 0
DWIDTH 12 0
BBX 12 12 0 0
BITMAP
7FC0
7FF0
7FF0
7070
F070
FFF0
FFF0
FFF0
F070
FFF0
FFF0
FFC0
ENDCHAR
STARTCHAR 0043
ENCODING 67
SWIDTH 720 0
DWIDTH 12 0
BBX 12 12 0 0
BITMAP
0FF0
3FF0
7FF0
7000
F000
E000
E000
E000
E000
FFE0
7FE0
7FE0
ENDCHAR
STARTCHAR 0044
ENCODING 68
SWIDTH 720 0
DWIDTH 12 0
BBX 12 12 0 0
BITMAP
7F80
7FE0
7FF0
7070
E070
E070
E070
E070
E0F0
FFE0
FFE0
FFC0
ENDCHAR
STARTCHAR 0045
ENCODING 69
SWIDTH 720 0
DWIDTH 12 0
BBX 12 12 0 0
BITMAP
0FF0
3FF0
7FF0
7000
F000
FFF0
FFF0
F000
F000
FFF0
7FE0
7FE0
ENDCHAR
STARTCHAR 0046
ENCODING 70
SWIDTH 720 0
DWIDTH 12 0
BBX 13 12 0 0
BITMAP
0FF8
3FF8
7FF0
7000
F000
FFF0
FFF0
F000
F000
E000
E000
E000
ENDCHAR
STARTCHAR 0047
ENCODING 71
SWIDTH 720 0
DWIDTH 12 0
BBX 12 12 0 0
BITMAP
0FF0
3FF0
7FF0
7000
F000
E000
E070
E070
E070
FFF0
7FE0
7FE0
ENDCHAR
STARTCHAR 0048
ENCODING 72
SWIDTH 720 0
DWIDTH 12 0
BBX 12 12 0 0
BITMAP
7070
7070
70F0
70F0
F0F0
FFF0
FFF0
FFE0
E0E0
E0E0
E0E0
E0E0
ENDCHAR
STARTCHAR 0049
ENCODING 73
SWIDTH 240 0
DWIDTH 4 0
BBX 4 12 0 0
BITMAP
70
70
70
70
70
F0
F0
F0
F0
E0
E0
E0
ENDCHAR
STARTCHAR 004A
ENCODING 74
SWIDTH 480 0
DWIDTH 8 0
BBX 8 12 0 0
BITMAP
0F
0F
0F
0E
0E
0E
0E
0E
1E
FE
FC
F8
ENDCHAR
STARTCHAR 004B
ENCODING 75
SWIDTH 720 0
DWIDTH 12 0
BBX 13 12 0 0
BITMAP
78F8
71F0
73E0
F3C0
F7C0
FF80
FF00
FF80
F7C0
F3C0
F3E0
E1F0
ENDCHAR
STARTCHAR 004C
ENCODING 76
SWIDTH 720 0
DWIDTH 12 0
BBX 12 12 0 0
BITMAP
7000
7000
7000
F000
F000
F000
F000
F000
F000
FFF0
FFF0
7FE0
ENDCHAR
STARTCHAR 004D
ENCODING 77
SWIDTH 900 0
DWIDTH 15 0
BBX 15 12 0 0
BITMAP
7FF8
7FFC
7FFC
7FFE
F38E
F39C
E39C
E39C
E39C
E39C
E39C
E71C
ENDCHAR
STARTCHAR 004E
ENCODING 78
SWIDTH 720 0
DWIDTH 12 0
BBX 12 12 0 0
BITMAP
7FC0
7FF0
7FF0
7FF0
7070
F070
F070
E070
E070
E0F0
E0E0
E0E0
ENDCHAR
STARTCHAR 004F
ENCODING 79
SWIDTH 780 0
DWIDTH 13 0
BBX 13 12 0 0
BITMAP
1FE0
3FF0
7FF0
7078
F078
E078
E078
E070
E070
FFF0
FFE0
7FE0
ENDCHAR
STARTCHAR 0050
ENCODING 80
SWIDTH 720 0
DWIDTH 12 0
BBX 12 12 0 0
BITMAP
7FC0
7FF0
7FF0
7070
F070
FFF0
FFF0
FFE0
F000
E000
E000
E000
ENDCHAR
STARTCHAR 0051
ENCODING 81
SWIDTH 720 0
DWIDTH 12 0
BBX 12 13 0 -1
BITMAP
1FC0
3FF0
7FF0
7070
F070
E070
E070
E070
E0F0
FFF0
FFE0
7FC0
01E0
ENDCHAR
STARTCHAR 0052
ENCODING 82
SWIDTH 780 0
DWIDTH 13 0
BBX 12 12 0 0
BITMAP
7F80
7FE0
7FF0
7070
F070
FFF0
FFF0
FFE0
E1E0
E1E0
E1E0
E0F0
ENDCHAR
STARTCHAR 0053
ENCODING 83
SWIDTH 660 0
DWIDTH 11 0
BBX 12 12 0 0
BITMAP
0FF0
7FE0
7FE0
F000
E000
FFC0
7FE0
3FE0
0060
FFE0
FFC0
FF80
ENDCHAR
STARTCHAR 0054
ENCODING 84
SWIDTH 780 0
DWIDTH 13 0
BBX 12 12 0 0
BITMAP
7FE0
7FE0
FFE0
FFE0
7800
7800
7000
7000
7800
7FF0
7FF0
3FF0
ENDCHAR
STARTCHAR 0055
ENCODING 85
SWIDTH 720 0
DWIDTH 12 0
BBX 12 12 0 0
BITMAP
7070
7070
7070
F070
E070
E070
E0F0
E0F0
E0E0
FFE0
FFE0
7FE0
ENDCHAR
STARTCHAR 0056
ENCODING 86
SWIDTH 840 0
DWIDTH 14 0
BBX 14 12 0 0
BITMAP
F01C
F83C
7878
7878
3CF0
3CF0
3DE0
1FC0
1FC0
0F80
0F80
0700
ENDCHAR
STARTCHAR 0057
ENCODING 87
SWIDTH 900 0
DWIDTH 15 0
BBX 15 12 0 0
BITMAP
738E
738E
738E
739E
E39E
E39C
E39C
E39C
E71C
FFFC
FFFC
7FFC
ENDCHAR
STARTCHAR 0058
ENCODING 88
SWIDTH 780 0
DWIDTH 13 0
BBX 14 12 0 0
BITMAP
787C
7CF8
3FF0
1FE0
0FC0
0F80
0780
0F80
1FC0
3FE0
79F0
F0F0
ENDCHAR
STARTCHAR 0059
ENCODING 89
SWIDTH 720 0
DWIDTH 12 0
BBX 12 12 0 0
BITMAP
7070
7070
F070
F070
F070
FFF0
7FF0
7FE0
00E0
FFE0
FFE0
FFC0
ENDCHAR
STARTCHAR 005A
ENCODING 90
SWIDTH 780 0
DWIDTH 13 0
BBX 13 12 0 0
BITMAP
7FF0
7FF8
7FF8
7FF8
03F0
0FC0
1F80
3F00
FC00
FFF0
FFF0
FFF0
ENDCHAR
STARTCHAR 005B
ENCODING 91
SWIDTH 480 0
DWIDTH 8 0
BBX 8 15 0 -3
BITMAP
3F
3F
78
70
70
70
70
70
F0
F0
F0
F0
F0
FC
7C
ENDCHAR
STARTCHAR 005C
ENCODING 92
SWIDTH 540 0
DWIDTH 9 0
BBX 9 17 0 -2
BITMAP
C000
6000
6000
7000
3000
3000
1800
1800
0C00
0C00
0E00
0600
0700
0300
0300
0180
0180
ENDCHAR
STARTCHAR 005D
ENCODING 93
SWIDTH 480 0
DWIDTH 8 0
BBX 8 15 0 -3
BITMAP
3E
3F
07
07
07
07
0F
0F
0F
0F
0F
0E
1E
FE
FC
ENDCHAR
STARTCHAR 005E
ENCODING 94
SWIDTH 600 0
DWIDTH 10 0
BBX 8 7 1 8
BITMAP
08
1C
1E
36
76
63
E3
ENDCHAR
STARTCHAR 005F
ENCODING 95
SWIDTH 660 0
DWIDTH 11 0
BBX 10 2 -2 -3
BITMAP
FFC0
FF80
ENDCHAR
STARTCHAR 0060
ENCODING 96
SWIDTH 180 0
DWIDTH 3 0
BBX 3 5 1 9
BITMAP
80
C0
C0
E0
40
ENDCHAR
STARTCHAR 0061
ENCODING 97
SWIDTH 720 0
DWIDTH 12 0
BBX 12 12 0 0
BITMAP
0FC0
3FE0
7FF0
7070
F070
F070
FFF0
FFF0
E0F0
E0E0
E0E0
E0E0
ENDCHAR
STARTCHAR 0062
ENCODING 98
SWIDTH 720 0
DWIDTH 12 0
BBX 12 12 0 0
BITMAP
7FC0
7FF0
7FF0
7070
F070
FFF0
FFF0
FFF0
F070
FFF0
FFF0
FFC0
ENDCHAR
STARTCHAR 0063
ENCODING 99
SWIDTH 720 0
DWIDTH 12 0
BBX 12 12 0 0
BITMAP
0FF0
3FF0
7FF0
7000
F000
E000
E000
E000
E000
FFE0
7FE0
7FE0
ENDCHAR
STARTCHAR 0064
ENCODING 100
SWIDTH 720 0
DWIDTH 12 0
BBX 12 12 0 0
BITMAP
7F80
7FE0
7FF0
7070
E070
E070
E070
E070
E0F0
FFE0
FFE0
FFC0
ENDCHAR
STARTCHAR 0065
ENCODING 101
SWIDTH 720 0
DWIDTH 12 0
BBX 12 12 0 0
BITMAP
0FF0
3FF0
7FF0
7000
F000
FFF0
FFF0
F000
F000
FFF0
7FE0
7FE0
ENDCHAR
STARTCHAR 0066
ENCODING 102
SWIDTH 720 0
DWIDTH 12 0
BBX 13 12 0 0
BITMAP
0FF8
3FF8
7FF0
7000
F000
FFF0
FFF0
F000
F000
E000
E000
E000
ENDCHAR
STARTCHAR 0067
ENCODING 103
SWIDTH 720 0
DWIDTH 12 0
BBX 12 12 0 0
BITMAP
0FF0
3FF0
7FF0
7000
F000
E000
E070
E070
E070
FFF0
7FE0
7FE0
ENDCHAR
STARTCHAR 0068
ENCODING 104
SWIDTH 720 0
DWIDTH 12 0
BBX 12 12 0 0
BITMAP
7070
7070
70F0
70F0
F0F0
FFF0
FFF0
FFE0
E0E0
E0E0
E0E0
E0E0
ENDCHAR
STARTCHAR 0069
ENCODING 105
SWIDTH 240 0
DWIDTH 4 0
BBX 4 12 0 0
BITMAP
70
70
70
70
70
F0
F0
F0
F0
E0
E0
E0
ENDCHAR
STARTCHAR 006A
ENCODING 106
SWIDTH 480 0
DWIDTH 8 0
BBX 8 12 0 0
BITMAP
0F
0F
0F
0E
0E
0E
0E
0E
1E
FE
FC
F8
ENDCHAR
STARTCHAR 006B
ENCODING 107
SWIDTH 720 0
DWIDTH 12 0
BBX 13 12 0 0
BITMAP
78F8
71F0
73E0
F3C0
F7C0
FF80
FF00
FF80
F7C0
F3C0
F3E0
E1F0
ENDCHAR
STARTCHAR 006C
ENCODING 108
SWIDTH 720 0
DWIDTH 12 0
BBX 12 12 0 0
BITMAP
7000
7000
7000
F000
F000
F000
F000
F000
F000
FFF0
FFF0
7FE0
ENDCHAR
STARTCHAR 006D
ENCODING 109
SWIDTH 900 0
DWIDTH 15 0
BBX 15 12 0 0
BITMAP
7FF8
7FFC
7FFC
7FFE
F38E
F39C
E39C
E39C
E39C
E39C
E39C
E71C
ENDCHAR
STARTCHAR 006E
ENCODING 110
SWIDTH 720 0
DWIDTH 12 0
BBX 12 12 0 0
BITMAP
7FC0
7FF0
7FF0
7FF0
7070
F070
F070
E070
E070
E0F0
E0E0
E0E0
ENDCHAR
STARTCHAR 006F
ENCODING 111
SWIDTH 780 0
DWIDTH 13 0
BBX 13 12 0 0
BITMAP
1FE0
3FF0
7FF0
7078
F078
E078
E078
E070
E070
FFF0
FFE0
7FE0
ENDCHAR
STARTCHAR 0070
ENCODING 112
SWIDTH 720 0
DWIDTH 12 0
BBX 12 12 0 0
BITMAP
7FC0
7FF0
7FF0
7070
F070
FFF0
FFF0
FFE0
F000
E000
E000
E000
ENDCHAR
STARTCHAR 0071
ENCODING 113
SWIDTH 720 0
DWIDTH 12 0
BBX 12 13 0 -1
BITMAP
1FC0
3FF0
7FF0
7070
F070
E070
E070
E070
E0F0
FFF0
FFE0
7FC0
01E0
ENDCHAR
STARTCHAR 0072
ENCODING 114
SWIDTH 780 0
DWIDTH 13 0
BBX 12 12 0 0
BITMAP
7F80
7FE0
7FF0
7070
F070
FFF0
FFF0
FFE0
E1E0
E1E0
E1E0
E0F0
ENDCHAR
STARTCHAR 0073
ENCODING 115
SWIDTH 660 0
DWIDTH 11 0
BBX 12 12 0 0
BITMAP
0FF0
7FE0
7FE0
F000
E000
FFC0
7FE0
3FE0
0060
FFE0
FFC0
FF80
ENDCHAR
STARTCHAR 0074
ENCODING 116
SWIDTH 780 0
DWIDTH 13 0
BBX 12 12 0 0
BITMAP
7FE0
7FE0
FFE0
FFE0
7800
7800
7000
7000
7800
7FF0
7FF0
3FF0
ENDCHAR
STARTCHAR 0075
ENCODING 117
SWIDTH 720 0
DWIDTH 12 0
BBX 12 12 0 0
BITMAP
7070
7070
7070
F070
E070
E070
E0F0
E0F0
E0E0
FFE0
FFE0
7FE0
ENDCHAR
STARTCHAR 0076
ENCODING 118
SWIDTH 840 0
DWIDTH 14 0
BBX 14 12 0 0
BITMAP
F01C
F83C
7878
7878
3CF0
3CF0
3DE0
1FC0
1FC0
0F80
0F80
0700
ENDCHAR
STARTCHAR 0077
ENCODING 119
SWIDTH 900 0
DWIDTH 15 0
BBX 15 12 0 0
BITMAP
738E
738E
738E
739E
E39E
E39C
E39C
E39C
E71C
FFFC
FFFC
7FFC
ENDCHAR
STARTCHAR 0078
ENCODING 120
SWIDTH 780 0
DWIDTH 13 0
BBX 14 12 0 0
BITMAP
787C
7CF8
3FF0
1FE0
0FC0
0F80
0780
0F80
1FC0
3FE0
79F0
F0F0
ENDCHAR
STARTCHAR 0079
ENCODING 121
SWIDTH 720 0
DWIDTH 12 0
BBX 12 12 0 0
BITMAP
7070
7070
F070
F070
F070
FFF0
7FF0
7FE0
00E0
FFE0
FFE0
FFC0
ENDCHAR
STARTCHAR 007A
ENCODING 122
SWIDTH 780 0
DWIDTH 13 0
BBX 13 12 0 0
BITMAP
7FF0
7FF8
7FF8
7FF8
03F0
0FC0
1F80
3F00
FC00
FFF0
FFF0
FFF0
ENDCHAR
STARTCHAR 007B
ENCODING 123
SWIDTH 540 0
DWIDTH 9 0
BBX 9 16 0 -2
BITMAP
0780
0F80
0E00
0C00
1C00
1C00
1C00
7800
F000
F800
3800
3800
3800
3800
3E00
3E00
ENDCHAR
STARTCHAR 007C
ENCODING 124
SWIDTH 360 0
DWIDTH 6 0
BBX 4 18 1 -4
BITMAP
30
30
30
30
70
70
70
70
60
60
60
60
60
60
E0
E0
E0
E0
ENDCHAR
STARTCHAR 007D
ENCODING 125
SWIDTH 540 0
DWIDTH 9 0
BBX 9 17 0 -3
BITMAP
0C00
1F00
1F00
0700
0600
0E00
0F00
0780
0380
0E00
0E00
1C00
1C00
1C00
3C00
F800
E000
ENDCHAR
STARTCHAR 007E
ENCODING 126
SWIDTH 840 0
DWIDTH 14 0
BBX 10 4 4 8
BITMAP
00C0
7F80
FF80
DE00
ENDCHAR
STARTCHAR 00A0
ENCODING 160
SWIDTH 180 0
DWIDTH 3 0
BBX 0 0 0 0
BITMAP
ENDCHAR
STARTCHAR 00A1
ENCODING 161
SWIDTH 180 0
DWIDTH 3 0
BBX 4 12 0 0
BITMAP
20
70
70
00
60
E0
E0
E0
E0
E0
E0
E0
ENDCHAR
STARTCHAR 00A2
ENCODING 162
SWIDTH 720 0
DWIDTH 12 0
BBX 12 17 0 -3
BITMAP
0060
0060
0FF0
3FF0
7FF0
7180
F380
E300
E300
E600
E600
FFE0
7FE0
7FE0
1800
1800
3000
ENDCHAR
STARTCHAR 00A3
ENCODING 163
SWIDTH 840 0
DWIDTH 14 0
BBX 15 12 0 0
BITMAP
00FE
01FE
03FC
0380
0780
1FE0
3FE0
0E00
0E00
1E00
7FF0
FFE0
ENDCHAR
STARTCHAR 00A4
ENCODING 164
SWIDTH 840 0
DWIDTH 14 0
BBX 12 10 2 2
BITMAP
1810
1FF0
1FE0
1CC0
30C0
31C0
3380
7F80
CD80
8100
ENDCHAR
STARTCHAR 00A5
ENCODING 165
SWIDTH 780 0
DWIDTH 13 0
BBX 13 12 1 0
BITMAP
F0F8
F9F0
7FE0
3FC0
1F80
7FC0
7FC0
7FC0
0E00
7F80
7F80
7F80
ENDCHAR
STARTCHAR 00A6
ENCODING 166
SWIDTH 600 0
DWIDTH 10 0
BBX 8 15 2 -3
BITMAP
03
07
06
0E
0E
0C
1C
00
38
30
70
70
60
E0
C0
ENDCHAR
STARTCHAR 00A7
ENCODING 167
SWIDTH 720 0
DWIDTH 12 0
BBX 12 17 0 -4
BITMAP
07F0
1FF0
3FF0
3800
39C0
3FF0
7FF0
FF30
E070
FFF0
FFE0
7FC0
00C0
0FC0
FF80
FF80
F000
ENDCHAR
STARTCHAR 00A8
ENCODING 168
SWIDTH 720 0
DWIDTH 12 0
BBX 7 3 3 12
BITMAP
66
EE
66
ENDCHAR
STARTCHAR 00A9
ENCODING 169
SWIDTH 960 0
DWIDTH 16 0
BBX 13 12 3 0
BITMAP
07F0
0F78
1BD8
3FD8
6CD8
DC18
D818
B9B0
BF60
DEC0
E780
7F00
ENDCHAR
STARTCHAR 00AA
ENCODING 170
SWIDTH 660 0
DWIDTH 11 0
BBX 9 7 3 5
BITMAP
3F80
3F80
3F80
7F00
E700
FE00
7E00
ENDCHAR
STARTCHAR 00AB
ENCODING 171
SWIDTH 360 0
DWIDTH 6 0
BBX 6 4 0 -2
BITMAP
7C
F8
F8
F8
ENDCHAR
STARTCHAR 00AC
ENCODING 172
SWIDTH 600 0
DWIDTH 10 0
BBX 10 7 0 3
BITMAP
FFC0
FFC0
FFC0
01C0
01C0
01C0
01C0
ENDCHAR
STARTCHAR 00AD
ENCODING 173
SWIDTH 480 0
DWIDTH 8 0
BBX 8 2 0 5
BITMAP
FF
FF
ENDCHAR
STARTCHAR 00AE
ENCODING 174
SWIDTH 900 0
DWIDTH 15 0
BBX 13 12 3 0
BITMAP
07F0
0F78
3FD8
77F8
6ED8
CFD8
DF18
9B30
BB60
F3C0
E780
7F00
ENDCHAR
STARTCHAR 00AF
ENCODING 175
SWIDTH 540 0
DWIDTH 9 0
BBX 10 3 0 13
BITMAP
FFC0
FFC0
FFC0
ENDCHAR
STARTCHAR 00B0
ENCODING 176
SWIDTH 660 0
DWIDTH 11 0
BBX 8 7 3 6
BITMAP
7F
63
C3
C3
C7
FE
7C
ENDCHAR
STARTCHAR 00B1
ENCODING 177
SWIDTH 480 0
DWIDTH 8 0
BBX 7 9 0 2
BITMAP
18
18
7E
FE
18
18
30
FE
FE
ENDCHAR
STARTCHAR 00B2
ENCODING 178
SWIDTH 660 0
DWIDTH 11 0
BBX 10 8 2 4
BITMAP
1FC0
3FC0
01C0
3F80
7E00
6000
FF00
FE00
ENDCHAR
STARTCHAR 00B3
ENCODING 179
SWIDTH 600 0
DWIDTH 10 0
BBX 9 8 2 4
BITMAP
1F80
3F80
0380
3F00
7F00
0F00
FE00
F800
ENDCHAR
STARTCHAR 00B4
ENCODING 180
SWIDTH 360 0
DWIDTH 6 0
BBX 3 4 2 10
BITMAP
60
E0
E0
C0
ENDCHAR
STARTCHAR 00B5
ENCODING 181
SWIDTH 720 0
DWIDTH 12 0
BBX 12 14 0 -2
BITMAP
7070
7070
7070
7070
7070
F070
E070
E070
E0F0
FFF0
FFE0
FFE0
E000
E000
ENDCHAR
STARTCHAR 00B6
ENCODING 182
SWIDTH 540 0
DWIDTH 9 0
BBX 9 16 0 -4
BITMAP
3F80
7900
F900
F900
F900
7900
3900
1900
1900
1900
1900
1900
1900
1900
1900
1900
ENDCHAR
STARTCHAR 00B7
ENCODING 183
SWIDTH 360 0
DWIDTH 6 0
BBX 2 2 2 5
BITMAP
C0
80
ENDCHAR
STARTCHAR 00B8
ENCODING 184
SWIDTH 420 0
DWIDTH 7 0
BBX 4 4 1 -4
BITMAP
30
70
F0
60
ENDCHAR
STARTCHAR 00B9
ENCODING 185
SWIDTH 420 0
DWIDTH 7 0
BBX 6 8 2 4
BITMAP
1C
18
38
30
70
60
E0
E0
ENDCHAR
STARTCHAR 00BA
ENCODING 186
SWIDTH 660 0
DWIDTH 11 0
BBX 8 7 3 6
BITMAP
7F
63
C3
C3
C7
FE
7C
ENDCHAR
STARTCHAR 00BB
ENCODING 187
SWIDTH 360 0
DWIDTH 6 0
BBX 6 4 0 8
BITMAP
78
7C
F8
F8
ENDCHAR
STARTCHAR 00BC
ENCODING 188
SWIDTH 900 0
DWIDTH 15 0
BBX 13 13 2 -1
BITMAP
1C60
18C0
39C0
3180
7300
6638
EC78
FDF0
1BB0
3FF8
6FF0
C0E0
00C0
ENDCHAR
STARTCHAR 00BD
ENCODING 189
SWIDTH 960 0
DWIDTH 16 0
BBX 15 13 1 -1
BITMAP
0E38
0C70
1C60
18C0
3980
33FE
77FE
767E
0DFC
1BF0
33FC
73F8
E000
ENDCHAR
STARTCHAR 00BE
ENCODING 190
SWIDTH 1140 0
DWIDTH 19 0
BBX 18 12 2 0
BITMAP
1F8C00
3F9800
03B000
3F7000
7F63C0
0FC780
FF8F80
FB3F00
077700
06FF00
0CFF00
180E00
ENDCHAR
STARTCHAR 00BF
ENCODING 191
SWIDTH 360 0
DWIDTH 6 0
BBX 7 12 0 -1
BITMAP
70
70
20
70
70
E0
E0
E0
E0
FE
7C
3C
ENDCHAR
STARTCHAR 00C0
ENCODING 192
SWIDTH 720 0
DWIDTH 12 0
BBX 12 16 0 0
BITMAP
0E00
0E00
0600
0600
0FC0
3FE0
7FF0
7070
F070
F070
FFF0
FFF0
E0F0
E0E0
E0E0
E0E0
ENDCHAR
STARTCHAR 00C1
ENCODING 193
SWIDTH 720 0
DWIDTH 12 0
BBX 12 17 0 0
BITMAP
0080
0180
0380
0380
0300
0FC0
3FE0
7FF0
7070
F070
F070
FFF0
FFF0
E0F0
E0E0
E0E0
E0E0
ENDCHAR
STARTCHAR 00C2
ENCODING 194
SWIDTH 720 0
DWIDTH 12 0
BBX 12 17 0 0
BITMAP
0200
0300
0500
0D80
0880
0FC0
3FE0
7FF0
7070
F070
F070
FFF0
FFF0
E0F0
E0E0
E0E0
E0E0
ENDCHAR
STARTCHAR 00C3
ENCODING 195
SWIDTH 720 0
DWIDTH 12 0
BBX 12 16 0 0
BITMAP
0640
0FC0
1F80
1000
0FC0
3FE0
7FF0
7070
F070
F070
FFF0
FFF0
E0F0
E0E0
E0E0
E0E0
ENDCHAR
STARTCHAR 00C4
ENCODING 196
SWIDTH 720 0
DWIDTH 12 0
BBX 12 15 0 0
BITMAP
0CC0
1DC0
0CC0
0FC0
3FE0
7FF0
7070
F070
F070
FFF0
FFF0
E0F0
E0E0
E0E0
E0E0
ENDCHAR
STARTCHAR 00C5
ENCODING 197
SWIDTH 720 0
DWIDTH 12 0
BBX 12 15 0 0
BITMAP
0300
0500
0700
0FC0
3FE0
7FF0
7070
F070
F070
FFF0
FFF0
E0F0
E0E0
E0E0
E0E0
ENDCHAR
STARTCHAR 00C6
ENCODING 198
SWIDTH 1260 0
DWIDTH 21 0
BBX 21 12 0 0
BITMAP
0FCFF8
3FFFF8
7FFFF8
707800
F07000
F07FF0
FFFFF0
FFF000
E0F000
E0FFF0
E0FFF0
E0FFF0
ENDCHAR
STARTCHAR 00C7
ENCODING 199
SWIDTH 720 0
DWIDTH 12 0
BBX 12 16 0 -4
BITMAP
0FF0
3FF0
7FF0
7000
F000
E000
E000
E000
E000
FFE0
7FE0
7FE0
0C00
0E00
3C00
1800
ENDCHAR
STARTCHAR 00C8
ENCODING 200
SWIDTH 720 0
DWIDTH 12 0
BBX 12 16 0 0
BITMAP
0300
0300
0380
0180
0FF0
3FF0
7FF0
7000
F000
FFF0
FFF0
F000
F000
FFF0
7FE0
7FE0
ENDCHAR
STARTCHAR 00C9
ENCODING 201
SWIDTH 720 0
DWIDTH 12 0
BBX 12 17 0 0
BITMAP
0080
00C0
01C0
0180
0180
0FF0
3FF0
7FF0
7000
F000
FFF0
FFF0
F000
F000
FFF0
7FE0
7FE0
ENDCHAR
STARTCHAR 00CA
ENCODING 202
SWIDTH 720 0
DWIDTH 12 0
BBX 12 17 0 0
BITMAP
0100
0380
0280
06C0
0000
0FF0
3FF0
7FF0
7000
F000
FFF0
FFF0
F000
F000
FFF0
7FE0
7FE0
ENDCHAR
STARTCHAR 00CB
ENCODING 203
SWIDTH 720 0
DWIDTH 12 0
BBX 12 15 0 0
BITMAP
0CC0
0EE0
0EE0
0FF0
3FF0
7FF0
7000
F000
FFF0
FFF0
F000
F000
FFF0
7FE0
7FE0
ENDCHAR
STARTCHAR 00CC
ENCODING 204
SWIDTH 240 0
DWIDTH 4 0
BBX 4 17 0 0
BITMAP
40
E0
60
70
20
70
70
70
70
70
F0
F0
F0
F0
E0
E0
E0
ENDCHAR
STARTCHAR 00CD
ENCODING 205
SWIDTH 240 0
DWIDTH 4 0
BBX 5 17 0 0
BITMAP
18
38
38
30
00
70
70
70
70
70
F0
F0
F0
F0
E0
E0
E0
ENDCHAR
STARTCHAR 00CE
ENCODING 206
SWIDTH 240 0
DWIDTH 4 0
BBX 5 17 0 0
BITMAP
30
70
58
C8
00
70
70
70
70
70
F0
F0
F0
F0
E0
E0
E0
ENDCHAR
STARTCHAR 00CF
ENCODING 207
SWIDTH 420 0
DWIDTH 7 0
BBX 7 15 0 0
BITMAP
CC
EE
CC
78
78
70
70
70
70
70
70
F0
F0
F0
F0
ENDCHAR
STARTCHAR 00D0
ENCODING 208
SWIDTH 720 0
DWIDTH 12 0
BBX 13 12 -1 0
BITMAP
3FC0
3FF0
3FF8
3838
7038
FC38
FC38
FC38
7078
7FF0
7FF0
7FE0
ENDCHAR
STARTCHAR 00D1
ENCODING 209
SWIDTH 720 0
DWIDTH 12 0
BBX 12 16 0 0
BITMAP
06C0
0FC0
1F80
1000
7FC0
7FE0
7FF0
7FF0
F070
F070
E070
E070
E070
E0E0
E0E0
E0E0
ENDCHAR
STARTCHAR 00D2
ENCODING 210
SWIDTH 780 0
DWIDTH 13 0
BBX 13 17 0 0
BITMAP
0400
0600
0700
0300
0300
1FE0
3FF0
7FF0
7078
F078
E078
E078
E070
E070
FFF0
FFE0
7FE0
ENDCHAR
STARTCHAR 00D3
ENCODING 211
SWIDTH 780 0
DWIDTH 13 0
BBX 13 17 0 0
BITMAP
0180
0180
0380
0300
0000
1FE0
3FF0
7FF0
7078
F078
E078
E078
E070
E070
FFF0
FFE0
7FE0
ENDCHAR
STARTCHAR 00D4
ENCODING 212
SWIDTH 780 0
DWIDTH 13 0
BBX 13 17 0 0
BITMAP
0300
0780
0580
0C80
0000
1FE0
3FF0
7FF0
7078
F078
E078
E078
E070
E070
FFF0
FFE0
7FE0
ENDCHAR
STARTCHAR 00D5
ENCODING 213
SWIDTH 780 0
DWIDTH 13 0
BBX 13 16 0 0
BITMAP
06C0
0FC0
1F80
1000
1FE0
3FF0
7FF0
7078
F078
E078
E078
E070
E070
FFF0
FFE0
7FE0
ENDCHAR
STARTCHAR 00D6
ENCODING 214
SWIDTH 780 0
DWIDTH 13 0
BBX 13 15 0 0
BITMAP
0CC0
0EE0
0CC0
1FE0
3FF0
7FF0
7078
F078
E078
E078
E070
E070
FFF0
FFE0
7FE0
ENDCHAR
STARTCHAR 00D7
ENCODING 215
SWIDTH 720 0
DWIDTH 12 0
BBX 11 9 2 1
BITMAP
1860
3DE0
1F80
1F00
1E00
7F00
F700
C300
0200
ENDCHAR
STARTCHAR 00D8
ENCODING 216
SWIDTH 780 0
DWIDTH 13 0
BBX 13 17 0 -3
BITMAP
0060
00C0
1FE0
3FF0
7FF0
73F8
F378
E378
E678
E670
EC70
FFF0
FFE0
7FE0
1800
3000
3000
ENDCHAR
STARTCHAR 00D9
ENCODING 217
SWIDTH 720 0
DWIDTH 12 0
BBX 12 17 0 0
BITMAP
0800
1C00
0C00
0E00
0400
7070
7070
7070
F070
E070
E070
E0F0
E0F0
E0E0
FFE0
FFE0
7FE0
ENDCHAR
STARTCHAR 00DA
ENCODING 218
SWIDTH 720 0
DWIDTH 12 0
BBX 12 17 0 0
BITMAP
0300
0700
0700
0600
0000
7070
7070
7070
F070
E070
E070
E0F0
E0F0
E0E0
FFE0
FFE0
7FE0
ENDCHAR
STARTCHAR 00DB
ENCODING 219
SWIDTH 720 0
DWIDTH 12 0
BBX 12 17 0 0
BITMAP
0300
0300
0580
0C80
0000
7070
7070
7070
F070
E070
E070
E0F0
E0F0
E0E0
FFE0
FFE0
7FE0
ENDCHAR
STARTCHAR 00DC
ENCODING 220
SWIDTH 720 0
DWIDTH 12 0
BBX 12 15 0 0
BITMAP
0CC0
0EE0
0CC0
7070
7070
7070
F070
E070
E070
E0F0
E0F0
E0E0
FFE0
FFE0
7FE0
ENDCHAR
STARTCHAR 00DD
ENCODING 221
SWIDTH 720 0
DWIDTH 12 0
BBX 12 16 0 1
BITMAP
0380
0380
0300
0300
7070
7070
F070
F070
F070
FFF0
7FF0
7FE0
00E0
FFE0
FFE0
FFC0
ENDCHAR
STARTCHAR 00DE
ENCODING 222
SWIDTH 780 0
DWIDTH 13 0
BBX 13 15 0 -2
BITMAP
7800
7000
7000
7FE0
7FF0
7FF8
7078
F070
FFF0
FFF0
FFC0
E000
E000
E000
E000
ENDCHAR
STARTCHAR 00DF
ENCODING 223
SWIDTH 600 0
DWIDTH 10 0
BBX 9 12 1 0
BITMAP
3C00
4600
C600
C600
CC00
CC00
C400
C300
C180
C180
D980
CF00
ENDCHAR
STARTCHAR 00E0
ENCODING 224
SWIDTH 720 0
DWIDTH 12 0
BBX 12 16 0 0
BITMAP
0E00
0E00
0600
0600
0FC0
3FE0
7FF0
7070
F070
F070
FFF0
FFF0
E0F0
E0E0
E0E0
E0E0
ENDCHAR
STARTCHAR 00E1
ENCODING 225
SWIDTH 720 0
DWIDTH 12 0
BBX 12 17 0 0
BITMAP
0080
0180
0380
0380
0300
0FC0
3FE0
7FF0
7070
F070
F070
FFF0
FFF0
E0F0
E0E0
E0E0
E0E0
ENDCHAR
STARTCHAR 00E2
ENCODING 226
SWIDTH 720 0
DWIDTH 12 0
BBX 12 17 0 0
BITMAP
0200
0300
0500
0D80
0880
0FC0
3FE0
7FF0
7070
F070
F070
FFF0
FFF0
E0F0
E0E0
E0E0
E0E0
ENDCHAR
STARTCHAR 00E3
ENCODING 227
SWIDTH 720 0
DWIDTH 12 0
BBX 12 16 0 0
BITMAP
0640
0FC0
1F80
1000
0FC0
3FE0
7FF0
7070
F070
F070
FFF0
FFF0
E0F0
E0E0
E0E0
E0E0
ENDCHAR
STARTCHAR 00E4
ENCODING 228
SWIDTH 720 0
DWIDTH 12 0
BBX 12 15 0 0
BITMAP
0CC0
1DC0
0CC0
0FC0
3FE0
7FF0
7070
F070
F070
FFF0
FFF0
E0F0
E0E0
E0E0
E0E0
ENDCHAR
STARTCHAR 00E5
ENCODING 229
SWIDTH 720 0
DWIDTH 12 0
BBX 12 15 0 0
BITMAP
0300
0500
0700
0FC0
3FE0
7FF0
7070
F070
F070
FFF0
FFF0
E0F0
E0E0
E0E0
E0E0
ENDCHAR
STARTCHAR 00E6
ENCODING 230
SWIDTH 1260 0
DWIDTH 21 0
BBX 21 12 0 0
BITMAP
0FCFF8
3FFFF8
7FFFF8
707800
F07000
F07FF0
FFFFF0
FFF000
E0F000
E0FFF0
E0FFF0
E0FFF0
ENDCHAR
STARTCHAR 00E7
ENCODING 231
SWIDTH 720 0
DWIDTH 12 0
BBX 12 15 0 -3
BITMAP
0FF0
3FF0
7FF0
7000
F000
E000
E000
E000
E000
FFE0
7FE0
7FE0
3800
3800
F800
ENDCHAR
STARTCHAR 00E8
ENCODING 232
SWIDTH 720 0
DWIDTH 12 0
BBX 12 16 0 0
BITMAP
0300
0300
0380
0180
0FF0
3FF0
7FF0
7000
F000
FFF0
FFF0
F000
F000
FFF0
7FE0
7FE0
ENDCHAR
STARTCHAR 00E9
ENCODING 233
SWIDTH 720 0
DWIDTH 12 0
BBX 12 17 0 0
BITMAP
0080
00C0
01C0
0180
0180
0FF0
3FF0
7FF0
7000
F000
FFF0
FFF0
F000
F000
FFF0
7FE0
7FE0
ENDCHAR
STARTCHAR 00EA
ENCODING 234
SWIDTH 720 0
DWIDTH 12 0
BBX 12 17 0 0
BITMAP
0100
0380
0280
06C0
0000
0FF0
3FF0
7FF0
7000
F000
FFF0
FFF0
F000
F000
FFF0
7FE0
7FE0
ENDCHAR
STARTCHAR 00EB
ENCODING 235
SWIDTH 720 0
DWIDTH 12 0
BBX 12 15 0 0
BITMAP
0CC0
0EE0
0EE0
0FF0
3FF0
7FF0
7000
F000
FFF0
FFF0
F000
F000
FFF0
7FE0
7FE0
ENDCHAR
STARTCHAR 00EC
ENCODING 236
SWIDTH 240 0
DWIDTH 4 0
BBX 4 17 0 0
BITMAP
40
E0
60
70
20
70
70
70
70
70
F0
F0
F0
F0
E0
E0
E0
ENDCHAR
STARTCHAR 00ED
ENCODING 237
SWIDTH 240 0
DWIDTH 4 0
BBX 5 17 0 0
BITMAP
18
38
38
30
00
70
70
70
70
70
F0
F0
F0
F0
E0
E0
E0
ENDCHAR
STARTCHAR 00EE
ENCODING 238
SWIDTH 240 0
DWIDTH 4 0
BBX 5 17 0 0
BITMAP
30
70
58
C8
00
70
70
70
70
70
F0
F0
F0
F0
E0
E0
E0
ENDCHAR
STARTCHAR 00EF
ENCODING 239
SWIDTH 420 0
DWIDTH 7 0
BBX 7 15 0 0
BITMAP
CC
EE
CC
78
78
70
70
70
70
70
70
F0
F0
F0
F0
ENDCHAR
STARTCHAR 00F0
ENCODING 240
SWIDTH 720 0
DWIDTH 12 0
BBX 13 12 -1 0
BITMAP
3FC0
3FF0
3FF8
3838
7038
FC38
FC38
FC38
7078
7FF0
7FF0
7FE0
ENDCHAR
STARTCHAR 00F1
ENCODING 241
SWIDTH 720 0
DWIDTH 12 0
BBX 12 16 0 0
BITMAP
06C0
0FC0
1F80
1000
7FC0
7FE0
7FF0
7FF0
F070
F070
E070
E070
E070
E0E0
E0E0
E0E0
ENDCHAR
STARTCHAR 00F2
ENCODING 242
SWIDTH 780 0
DWIDTH 13 0
BBX 13 17 0 0
BITMAP
0400
0600
0700
0300
0300
1FE0
3FF0
7FF0
7078
F078
E078
E078
E070
E070
FFF0
FFE0
7FE0
ENDCHAR
STARTCHAR 00F3
ENCODING 243
SWIDTH 780 0
DWIDTH 13 0
BBX 13 17 0 0
BITMAP
0180
0180
0380
0300
0000
1FE0
3FF0
7FF0
7078
F078
E078
E078
E070
E070
FFF0
FFE0
7FE0
ENDCHAR
STARTCHAR 00F4
ENCODING 244
SWIDTH 780 0
DWIDTH 13 0
BBX 13 17 0 0
BITMAP
0300
0780
0580
0C80
0000
1FE0
3FF0
7FF0
7078
F078
E078
E078
E070
E070
FFF0
FFE0
7FE0
ENDCHAR
STARTCHAR 00F5
ENCODING 245
SWIDTH 780 0
DWIDTH 13 0
BBX 13 16 0 0
BITMAP
0760
0FC0
0F80
1800
1FE0
3FF0
7FF0
7078
F078
E078
E078
E070
E070
FFF0
FFE0
7FE0
ENDCHAR
STARTCHAR 00F6
ENCODING 246
SWIDTH 780 0
DWIDTH 13 0
BBX 13 15 0 0
BITMAP
0CC0
0EE0
0CC0
1FE0
3FF0
7FF0
7078
F078
E078
E078
E070
E070
FFF0
FFE0
7FE0
ENDCHAR
STARTCHAR 00F7
ENCODING 247
SWIDTH 480 0
DWIDTH 8 0
BBX 8 8 0 2
BITMAP
1C
1C
00
FF
FF
10
38
38
ENDCHAR
STARTCHAR 00F8
ENCODING 248
SWIDTH 780 0
DWIDTH 13 0
BBX 13 17 0 -3
BITMAP
0060
00C0
1FE0
3FF0
7FF0
73F8
F378
E378
E678
E670
EC70
FFF0
FFE0
7FE0
1800
3000
3000
ENDCHAR
STARTCHAR 00F9
ENCODING 249
SWIDTH 720 0
DWIDTH 12 0
BBX 12 17 0 0
BITMAP
0800
1C00
0C00
0E00
0400
7070
7070
7070
F070
E070
E070
E0F0
E0F0
E0E0
FFE0
FFE0
7FE0
ENDCHAR
STARTCHAR 00FA
ENCODING 250
SWIDTH 720 0
DWIDTH 12 0
BBX 12 17 0 0
BITMAP
0300
0700
0700
0600
0000
7070
7070
7070
F070
E070
E070
E0F0
E0F0
E0E0
FFE0
FFE0
7FE0
ENDCHAR
STARTCHAR 00FB
ENCODING 251
SWIDTH 720 0
DWIDTH 12 0
BBX 12 17 0 0
BITMAP
0300
0300
0580
0C80
0000
7070
7070
7070
F070
E070
E070
E0F0
E0F0
E0E0
FFE0
FFE0
7FE0
ENDCHAR
STARTCHAR 00FC
ENCODING 252
SWIDTH 720 0
DWIDTH 12 0
BBX 12 15 0 0
BITMAP
0CC0
0EE0
0CC0
7070
7070
7070
F070
E070
E070
E0F0
E0F0
E0E0
FFE0
FFE0
7FE0
ENDCHAR
STARTCHAR 00FD
ENCODING 253
SWIDTH 720 0
DWIDTH 12 0
BBX 12 16 0 1
BITMAP
0380
0380
0300
0300
7070
7070
F070
F070
F070
FFF0
7FF0
7FE0
00E0
FFE0
FFE0
FFC0
ENDCHAR
STARTCHAR 00FE
ENCODING 254
SWIDTH 780 0
DWIDTH 13 0
BBX 13 15 0 -2
BITMAP
7800
7000
7000
7FE0
7FF0
7FF8
7078
F070
FFF0
FFF0
FFC0
E000
E000
E000
E000
ENDCHAR
STARTCHAR 00FF
ENCODING 255
SWIDTH 720 0
DWIDTH 12 0
BBX 12 15 0 0
BITMAP
1980
1DC0
1DC0
7070
7070
F070
F070
F070
FFF0
7FF0
7FE0
00E0
FFE0
FFE0
FFC0
ENDCHAR
STARTCHAR 0100
ENCODING 256
SWIDTH 720 0
DWIDTH 12 0
BBX 12 15 0 0
BITMAP
0FC0
0FC0
1F80
0FC0
3FE0
7FF0
7070
F070
F070
FFF0
FFF0
E0F0
E0E0
E0E0
E0E0
ENDCHAR
STARTCHAR 0101
ENCODING 257
SWIDTH 720 0
DWIDTH 12 0
BBX 12 12 0 0
BITMAP
0FC0
3FE0
7FF0
7070
F070
F070
FFF0
FFF0
E0F0
E0E0
E0E0
E0E0
ENDCHAR
STARTCHAR 0102
ENCODING 258
SWIDTH 720 0
DWIDTH 12 0
BBX 12 15 0 0
BITMAP
0880
0F00
0000
0FC0
3FE0
7FF0
7070
F070
F070
FFF0
FFF0
E0F0
E0E0
E0E0
E0E0
ENDCHAR
STARTCHAR 0103
ENCODING 259
SWIDTH 720 0
DWIDTH 12 0
BBX 12 15 0 0
BITMAP
0880
0F00
0000
0FC0
3FE0
7FF0
7070
F070
F070
FFF0
FFF0
E0F0
E0E0
E0E0
E0E0
ENDCHAR
STARTCHAR 0104
ENCODING 260
SWIDTH 720 0
DWIDTH 12 0
BBX 12 16 0 -4
BITMAP
0FC0
3FE0
7FF0
7070
F070
F070
FFF0
FFF0
E0F0
E0E0
E0E0
E0E0
0200
0200
0300
0100
ENDCHAR
STARTCHAR 0105
ENCODING 261
SWIDTH 720 0
DWIDTH 12 0
BBX 12 16 0 -4
BITMAP
0FC0
3FE0
7FF0
7070
F070
F070
FFF0
FFF0
E0F0
E0E0
E0E0
E0E0
0200
0200
0300
0100
ENDCHAR
STARTCHAR 0106
ENCODING 262
SWIDTH 720 0
DWIDTH 12 0
BBX 12 17 0 0
BITMAP
0180
0180
0380
0380
0000
0FF0
3FF0
7FF0
7000
F000
E000
E000
E000
E000
FFE0
7FE0
7FE0
ENDCHAR
STARTCHAR 0107
ENCODING 263
SWIDTH 720 0
DWIDTH 12 0
BBX 12 17 0 0
BITMAP
0180
0180
0380
0380
0000
0FF0
3FF0
7FF0
7000
F000
E000
E000
E000
E000
FFE0
7FE0
7FE0
ENDCHAR
STARTCHAR 0108
ENCODING 264
SWIDTH 720 0
DWIDTH 12 0
BBX 12 17 0 0
BITMAP
0300
0700
0580
0C80
0000
0FF0
3FF0
7FF0
7000
F000
E000
E000
E000
E000
FFE0
7FE0
7FE0
ENDCHAR
STARTCHAR 0109
ENCODING 265
SWIDTH 720 0
DWIDTH 12 0
BBX 12 17 0 0
BITMAP
0300
0700
0580
0C80
0000
0FF0
3FF0
7FF0
7000
F000
E000
E000
E000
E000
FFE0
7FE0
7FE0
ENDCHAR
STARTCHAR 010A
ENCODING 266
SWIDTH 720 0
DWIDTH 12 0
BBX 12 15 0 0
BITMAP
1800
1800
0000
0FF0
3FF0
7FF0
7000
F000
E000
E000
E000
E000
FFE0
7FE0
7FE0
ENDCHAR
STARTCHAR 010B
ENCODING 267
SWIDTH 720 0
DWIDTH 12 0
BBX 12 15 0 0
BITMAP
1800
1800
0000
0FF0
3FF0
7FF0
7000
F000
E000
E000
E000
E000
FFE0
7FE0
7FE0
ENDCHAR
STARTCHAR 010C
ENCODING 268
SWIDTH 720 0
DWIDTH 12 0
BBX 12 15 0 0
BITMAP
06C0
0380
0000
0FF0
3FF0
7FF0
7000
F000
E000
E000
E000
E000
FFE0
7FE0
7FE0
ENDCHAR
STARTCHAR 010D
ENCODING 269
SWIDTH 720 0
DWIDTH 12 0
BBX 12 15 0 0
BITMAP
06C0
0380
0000
0FF0
3FF0
7FF0
7000
F000
E000
E000
E000
E000
FFE0
7FE0
7FE0
ENDCHAR
STARTCHAR 010E
ENCODING 270
SWIDTH 720 0
DWIDTH 12 0
BBX 12 15 0 0
BITMAP
1A00
0E00
0000
7F80
7FE0
7FF0
7070
E070
E070
E070
E070
E0F0
FFE0
FFE0
FFC0
ENDCHAR
STARTCHAR 010F
ENCODING 271
SWIDTH 720 0
DWIDTH 12 0
BBX 12 15 0 0
BITMAP
1A00
0E00
0000
7F80
7FE0
7FF0
7070
E070
E070
E070
E070
E0F0
FFE0
FFE0
FFC0
ENDCHAR
STARTCHAR 0110
ENCODING 272
SWIDTH 720 0
DWIDTH 12 0
BBX 13 12 -1 0
BITMAP
3FC0
3FF0
3FF8
3838
7038
FC38
FC38
FC38
7078
7FF0
7FF0
7FE0
ENDCHAR
STARTCHAR 0111
ENCODING 273
SWIDTH 720 0
DWIDTH 12 0
BBX 13 12 -1 0
BITMAP
3FC0
3FF0
3FF8
3838
7038
FC38
FC38
FC38
7078
7FF0
7FF0
7FE0
ENDCHAR
STARTCHAR 0112
ENCODING 274
SWIDTH 720 0
DWIDTH 12 0
BBX 12 15 0 0
BITMAP
07E0
07C0
0000
0FF0
3FF0
7FF0
7000
F000
FFF0
FFF0
F000
F000
FFF0
7FE0
7FE0
ENDCHAR
STARTCHAR 0113
ENCODING 275
SWIDTH 720 0
DWIDTH 12 0
BBX 12 15 0 0
BITMAP
07E0
07C0
0000
0FF0
3FF0
7FF0
7000
F000
FFF0
FFF0
F000
F000
FFF0
7FE0
7FE0
ENDCHAR
STARTCHAR 0114
ENCODING 276
SWIDTH 720 0
DWIDTH 12 0
BBX 12 15 0 0
BITMAP
0880
0700
0000
0FF0
3FF0
7FF0
7000
F000
FFF0
FFF0
F000
F000
FFF0
7FE0
7FE0
ENDCHAR
STARTCHAR 0115
ENCODING 277
SWIDTH 720 0
DWIDTH 12 0
BBX 12 15 0 0
BITMAP
0880
0700
0000
0FF0
3FF0
7FF0
7000
F000
FFF0
FFF0
F000
F000
FFF0
7FE0
7FE0
ENDCHAR
STARTCHAR 0116
ENCODING 278
SWIDTH 720 0
DWIDTH 12 0
BBX 12 15 0 0
BITMAP
0600
0600
0000
0FF0
3FF0
7FF0
7000
F000
FFF0
FFF0
F000
F000
FFF0
7FE0
7FE0
ENDCHAR
STARTCHAR 0117
ENCODING 279
SWIDTH 720 0
DWIDTH 12 0
BBX 12 15 0 0
BITMAP
0600
0600
0000
0FF0
3FF0
7FF0
7000
F000
FFF0
FFF0
F000
F000
FFF0
7FE0
7FE0
ENDCHAR
STARTCHAR 0118
ENCODING 280
SWIDTH 720 0
DWIDTH 12 0
BBX 12 16 0 -4
BITMAP
0FF0
3FF0
7FF0
7000
F000
FFF0
FFF0
F000
F000
FFF0
7FE0
7FE0
0200
0200
0380
0100
ENDCHAR
STARTCHAR 0119
ENCODING 281
SWIDTH 720 0
DWIDTH 12 0
BBX 12 16 0 -4
BITMAP
0FF0
3FF0
7FF0
7000
F000
FFF0
FFF0
F000
F000
FFF0
7FE0
7FE0
1000
2000
3800
1000
ENDCHAR
STARTCHAR 011A
ENCODING 282
SWIDTH 720 0
DWIDTH 12 0
BBX 12 15 0 0
BITMAP
0680
0300
0000
0FF0
3FF0
7FF0
7000
F000
FFF0
FFF0
F000
F000
FFF0
7FE0
7FE0
ENDCHAR
STARTCHAR 011B
ENCODING 283
SWIDTH 720 0
DWIDTH 12 0
BBX 12 15 0 0
BITMAP
0680
0300
0000
0FF0
3FF0
7FF0
7000
F000
FFF0
FFF0
F000
F000
FFF0
7FE0
7FE0
ENDCHAR
STARTCHAR 011C
ENCODING 284
SWIDTH 720 0
DWIDTH 12 0
BBX 12 17 0 0
BITMAP
0180
0380
06C0
04C0
0000
0FF0
3FF0
7FF0
7000
F000
E000
E070
E070
E070
FFF0
7FE0
7FE0
ENDCHAR
STARTCHAR 011D
ENCODING 285
SWIDTH 720 0
DWIDTH 12 0
BBX 12 17 0 0
BITMAP
0180
0380
06C0
04C0
0000
0FF0
3FF0
7FF0
7000
F000
E000
E070
E070
E070
FFF0
7FE0
7FE0
ENDCHAR
STARTCHAR 011E
ENCODING 286
SWIDTH 720 0
DWIDTH 12 0
BBX 12 15 0 0
BITMAP
0440
03C0
0000
0FF0
3FF0
7FF0
7000
F000
E000
E070
E070
E070
FFF0
7FE0
7FE0
ENDCHAR
STARTCHAR 011F
ENCODING 287
SWIDTH 720 0
DWIDTH 12 0
BBX 12 15 0 0
BITMAP
0440
03C0
0000
0FF0
3FF0
7FF0
7000
F000
E000
E070
E070
E070
FFF0
7FE0
7FE0
ENDCHAR
STARTCHAR 0120
ENCODING 288
SWIDTH 720 0
DWIDTH 12 0
BBX 12 15 0 0
BITMAP
0C00
0C00
0000
0FF0
3FF0
7FF0
7000
F000
E000
E070
E070
E070
FFF0
7FE0
7FE0
ENDCHAR
STARTCHAR 0121
ENCODING 289
SWIDTH 720 0
DWIDTH 12 0
BBX 12 15 0 0
BITMAP
0C00
0C00
0000
0FF0
3FF0
7FF0
7000
F000
E000
E070
E070
E070
FFF0
7FE0
7FE0
ENDCHAR
STARTCHAR 0122
ENCODING 290
SWIDTH 720 0
DWIDTH 12 0
BBX 12 15 0 -4
BITMAP
0FF0
3FF0
7FF0
7000
F000
E000
E070
E070
E070
FFF0
7FE0
7FE0
0C00
0600
1E00
ENDCHAR
STARTCHAR 0123
ENCODING 291
SWIDTH 540 0
DWIDTH 9 0
BBX 7 16 1 -3
BITMAP
10
10
10
00
7A
C6
82
82
82
82
82
C6
7A
02
C6
7C
ENDCHAR
STARTCHAR 0124
ENCODING 292
SWIDTH 720 0
DWIDTH 12 0
BBX 12 17 0 0
BITMAP
0300
0700
0580
0C80
0000
7070
7070
70F0
70F0
F0F0
FFF0
FFF0
FFE0
E0E0
E0E0
E0E0
E0E0
ENDCHAR
STARTCHAR 0125
ENCODING 293
SWIDTH 720 0
DWIDTH 12 0
BBX 12 17 0 0
BITMAP
0300
0700
0580
0C80
0000
7070
7070
70F0
70F0
F0F0
FFF0
FFF0
FFE0
E0E0
E0E0
E0E0
E0E0
ENDCHAR
STARTCHAR 0126
ENCODING 294
SWIDTH 720 0
DWIDTH 12 0
BBX 12 12 0 0
BITMAP
6060
6060
FFF0
6060
6060
7FE0
6060
6060
6060
6060
6060
6060
ENDCHAR
STARTCHAR 0127
ENCODING 295
SWIDTH 540 0
DWIDTH 9 0
BBX 8 12 0 0
BITMAP
60
FC
60
7E
63
61
61
61
61
61
61
61
ENDCHAR
STARTCHAR 0128
ENCODING 296
SWIDTH 240 0
DWIDTH 4 0
BBX 7 16 -1 0
BITMAP
7E
FC
F8
00
38
38
38
38
38
78
78
78
78
70
70
70
ENDCHAR
STARTCHAR 0129
ENCODING 297
SWIDTH 240 0
DWIDTH 4 0
BBX 7 16 -1 0
BITMAP
7E
FC
F8
00
38
38
38
38
38
78
78
78
78
70
70
70
ENDCHAR
STARTCHAR 012A
ENCODING 298
SWIDTH 240 0
DWIDTH 4 0
BBX 7 15 -1 0
BITMAP
7E
7C
FC
38
38
38
38
38
78
78
78
78
70
70
70
ENDCHAR
STARTCHAR 012B
ENCODING 299
SWIDTH 240 0
DWIDTH 4 0
BBX 7 15 -1 0
BITMAP
7E
7C
FC
38
38
38
38
38
78
78
78
78
70
70
70
ENDCHAR
STARTCHAR 012C
ENCODING 300
SWIDTH 240 0
DWIDTH 4 0
BBX 6 15 -2 0
BITMAP
88
78
00
1C
1C
1C
1C
1C
3C
3C
3C
3C
38
38
38
ENDCHAR
STARTCHAR 012D
ENCODING 301
SWIDTH 300 0
DWIDTH 5 0
BBX 5 12 0 0
BITMAP
88
70
00
20
20
20
20
20
20
20
20
20
ENDCHAR
STARTCHAR 012E
ENCODING 302
SWIDTH 240 0
DWIDTH 4 0
BBX 5 16 -1 -4
BITMAP
38
38
38
38
38
78
78
78
78
70
70
70
C0
80
E0
40
ENDCHAR
STARTCHAR 012F
ENCODING 303
SWIDTH 240 0
DWIDTH 4 0
BBX 5 16 -1 -4
BITMAP
38
38
38
38
38
78
78
78
78
70
70
70
80
80
C0
40
ENDCHAR
STARTCHAR 0130
ENCODING 304
SWIDTH 240 0
DWIDTH 4 0
BBX 4 15 0 0
BITMAP
C0
C0
00
70
70
70
70
70
F0
F0
F0
F0
E0
E0
E0
ENDCHAR
STARTCHAR 0131
ENCODING 305
SWIDTH 300 0
DWIDTH 5 0
BBX 1 9 2 0
BITMAP
80
80
80
80
80
80
80
80
80
ENDCHAR
STARTCHAR 0132
ENCODING 306
SWIDTH 780 0
DWIDTH 13 0
BBX 17 12 2 0
BITMAP
700780
700780
F00780
F00780
F00700
F00700
E00700
E00700
E00F00
E07F00
E07E00
E07C00
ENDCHAR
STARTCHAR 0133
ENCODING 307
SWIDTH 480 0
DWIDTH 8 0
BBX 16 12 2 0
BITMAP
7007
7007
F007
F007
F00F
F00F
F00F
E00F
E00F
E07E
E0FE
E0F8
ENDCHAR
STARTCHAR 0134
ENCODING 308
SWIDTH 480 0
DWIDTH 8 0
BBX 8 17 0 0
BITMAP
06
06
0F
19
00
0F
0F
0F
0E
0E
0E
0E
0E
1E
FE
FC
F8
ENDCHAR
STARTCHAR 0135
ENCODING 309
SWIDTH 480 0
DWIDTH 8 0
BBX 8 17 0 0
BITMAP
06
06
0F
19
00
0F
0F
0F
0E
0E
0E
0E
0E
1E
FE
FC
F8
ENDCHAR
STARTCHAR 0136
ENCODING 310
SWIDTH 720 0
DWIDTH 12 0
BBX 13 15 0 -4
BITMAP
78F8
71F0
73E0
F3C0
F7C0
FF80
FF00
FF80
F7C0
F3C0
F3E0
E1F0
0400
0200
0E00
ENDCHAR
STARTCHAR 0137
ENCODING 311
SWIDTH 720 0
DWIDTH 12 0
BBX 13 15 0 -4
BITMAP
78F8
71F0
73E0
F3C0
F7C0
FF80
FF00
FF80
F7C0
F3C0
F3E0
E1F0
1800
0C00
3C00
ENDCHAR
STARTCHAR 0138
ENCODING 312
SWIDTH 540 0
DWIDTH 9 0
BBX 7 9 1 0
BITMAP
C6
CC
D8
F0
D0
D8
CC
C4
C6
ENDCHAR
STARTCHAR 0139
ENCODING 313
SWIDTH 720 0
DWIDTH 12 0
BBX 12 17 0 0
BITMAP
1800
1800
3800
3000
0000
7000
7000
7000
F000
F000
F000
F000
F000
F000
FFF0
FFF0
7FE0
ENDCHAR
STARTCHAR 013A
ENCODING 314
SWIDTH 720 0
DWIDTH 12 0
BBX 12 17 0 0
BITMAP
1800
1800
3800
3000
0000
7000
7000
7000
F000
F000
F000
F000
F000
F000
FFF0
FFF0
7FE0
ENDCHAR
STARTCHAR 013B
ENCODING 315
SWIDTH 720 0
DWIDTH 12 0
BBX 12 15 0 -4
BITMAP
7000
7000
7000
F000
F000
F000
F000
F000
F000
FFF0
FFF0
7FE0
1000
0800
3800
ENDCHAR
STARTCHAR 013C
ENCODING 316
SWIDTH 720 0
DWIDTH 12 0
BBX 12 15 0 -4
BITMAP
7000
7000
7000
F000
F000
F000
F000
F000
F000
FFF0
FFF0
7FE0
1000
0800
3800
ENDCHAR
STARTCHAR 013D
ENCODING 317
SWIDTH 540 0
DWIDTH 9 0
BBX 8 12 1 0
BITMAP
C6
C2
C4
C4
C0
C0
C0
C0
C0
C0
C0
FF
ENDCHAR
STARTCHAR 013E
ENCODING 318
SWIDTH 300 0
DWIDTH 5 0
BBX 4 12 1 0
BITMAP
F0
D0
D0
E0
C0
C0
C0
C0
C0
C0
C0
C0
ENDCHAR
STARTCHAR 013F
ENCODING 319
SWIDTH 720 0
DWIDTH 12 0
BBX 12 12 0 0
BITMAP
7000
7000
7000
F000
F000
F000
F000
F000
F000
FFF0
FFF0
7FE0
ENDCHAR
STARTCHAR 0140
ENCODING 320
SWIDTH 360 0
DWIDTH 6 0
BBX 12 12 2 0
BITMAP
7000
7000
F000
F000
F000
F000
F000
E000
F000
FFF0
FFE0
7FE0
ENDCHAR
STARTCHAR 0141
ENCODING 321
SWIDTH 540 0
DWIDTH 9 0
BBX 9 12 0 0
BITMAP
6000
6000
6000
6C00
7000
6000
6000
E000
6000
6000
6000
7F80
ENDCHAR
STARTCHAR 0142
ENCODING 322
SWIDTH 240 0
DWIDTH 4 0
BBX 4 12 0 0
BITMAP
60
60
60
60
60
70
60
E0
60
60
60
60
ENDCHAR
STARTCHAR 0143
ENCODING 323
SWIDTH 720 0
DWIDTH 12 0
BBX 12 17 0 0
BITMAP
0600
0600
0E00
0C00
0000
7FC0
7FF0
7FF0
7FF0
7070
F070
F070
E070
E070
E0F0
E0E0
E0E0
ENDCHAR
STARTCHAR 0144
ENCODING 324
SWIDTH 720 0
DWIDTH 12 0
BBX 12 17 0 0
BITMAP
0600
0600
0E00
0C00
0000
7FC0
7FF0
7FF0
7FF0
7070
F070
F070
E070
E070
E0F0
E0E0
E0E0
ENDCHAR
STARTCHAR 0145
ENCODING 325
SWIDTH 720 0
DWIDTH 12 0
BBX 12 16 0 -4
BITMAP
7FC0
7FF0
7FF0
7FF0
7070
F070
F070
E070
E070
E0F0
E0E0
E0E0
0600
0300
0F00
0400
ENDCHAR
STARTCHAR 0146
ENCODING 326
SWIDTH 720 0
DWIDTH 12 0
BBX 12 16 0 -4
BITMAP
7FC0
7FF0
7FF0
7FF0
7070
F070
F070
E070
E070
E0F0
E0E0
E0E0
0600
0300
0F00
0400
ENDCHAR
STARTCHAR 0147
ENCODING 327
SWIDTH 720 0
DWIDTH 12 0
BBX 12 15 0 0
BITMAP
1B00
0E00
0000
7FC0
7FF0
7FF0
7FF0
7070
F070
F070
E070
E070
E0F0
E0E0
E0E0
ENDCHAR
STARTCHAR 0148
ENCODING 328
SWIDTH 720 0
DWIDTH 12 0
BBX 12 15 0 0
BITMAP
1B00
0E00
0000
7FC0
7FF0
7FF0
7FF0
7070
F070
F070
E070
E070
E0F0
E0E0
E0E0
ENDCHAR
STARTCHAR 0149
ENCODING 329
SWIDTH 600 0
DWIDTH 10 0
BBX 14 12 -1 0
BITMAP
FFF0
FFFC
FFFC
DFFC
1C1C
1C1C
1C1C
1C1C
3C1C
3C1C
381C
381C
ENDCHAR
STARTCHAR 014A
ENCODING 330
SWIDTH 720 0
DWIDTH 12 0
BBX 10 12 1 0
BITMAP
DF00
E180
C0C0
C0C0
C040
C040
C040
C040
C040
C0C0
C080
CF00
ENDCHAR
STARTCHAR 014B
ENCODING 331
SWIDTH 540 0
DWIDTH 9 0
BBX 7 12 1 -3
BITMAP
FC
E6
C2
C2
C2
C2
C2
C2
C2
02
02
0E
ENDCHAR
STARTCHAR 014C
ENCODING 332
SWIDTH 780 0
DWIDTH 13 0
BBX 13 16 0 0
BITMAP
0FC0
0FC0
0F80
0000
1FE0
3FF0
7FF0
7078
F078
E078
E078
E070
E070
FFF0
FFE0
7FE0
ENDCHAR
STARTCHAR 014D
ENCODING 333
SWIDTH 780 0
DWIDTH 13 0
BBX 13 16 0 0
BITMAP
0FC0
0FC0
0F80
0000
1FE0
3FF0
7FF0
7078
F078
E078
E078
E070
E070
FFF0
FFE0
7FE0
ENDCHAR
STARTCHAR 014E
ENCODING 334
SWIDTH 780 0
DWIDTH 13 0
BBX 13 14 0 0
BITMAP
0480
0300
1FE0
3FF0
7FF0
7078
F078
E078
E078
E070
E070
FFF0
FFE0
7FE0
ENDCHAR
STARTCHAR 014F
ENCODING 335
SWIDTH 780 0
DWIDTH 13 0
BBX 13 14 0 0
BITMAP
0480
0300
1FE0
3FF0
7FF0
7078
F078
E078
E078
E070
E070
FFF0
FFE0
7FE0
ENDCHAR
STARTCHAR 0150
ENCODING 336
SWIDTH 780 0
DWIDTH 13 0
BBX 13 15 0 0
BITMAP
06C0
0580
0000
1FE0
3FF0
7FF0
7078
F078
E078
E078
E070
E070
FFF0
FFE0
7FE0
ENDCHAR
STARTCHAR 0151
ENCODING 337
SWIDTH 780 0
DWIDTH 13 0
BBX 13 15 0 0
BITMAP
06C0
0580
0000
1FE0
3FF0
7FF0
7078
F078
E078
E078
E070
E070
FFF0
FFE0
7FE0
ENDCHAR
STARTCHAR 0152
ENCODING 338
SWIDTH 1320 0
DWIDTH 22 0
BBX 22 12 0 0
BITMAP
1FE7FC
3FFFF8
7FFFF8
707800
F07800
E07FF8
E07FF8
E07800
E07800
FFFFF8
FFFFF8
7FFFF0
ENDCHAR
STARTCHAR 0153
ENCODING 339
SWIDTH 1320 0
DWIDTH 22 0
BBX 22 12 0 0
BITMAP
1FE7FC
3FFFF8
7FFFF8
707800
F07800
E07FF8
E07FF8
E07800
E07800
FFFFF8
FFFFF8
7FFFF0
ENDCHAR
STARTCHAR 0154
ENCODING 340
SWIDTH 780 0
DWIDTH 13 0
BBX 12 17 0 0
BITMAP
0300
0700
0600
0600
0000
7F80
7FE0
7FF0
7070
F070
FFF0
FFF0
FFE0
E1E0
E1E0
E1E0
E0F0
ENDCHAR
STARTCHAR 0155
ENCODING 341
SWIDTH 780 0
DWIDTH 13 0
BBX 12 17 0 0
BITMAP
0300
0700
0600
0600
0000
7F80
7FE0
7FF0
7070
F070
FFF0
FFF0
FFE0
E1E0
E1E0
E1E0
E0F0
ENDCHAR
STARTCHAR 0156
ENCODING 342
SWIDTH 780 0
DWIDTH 13 0
BBX 12 15 0 -4
BITMAP
7F80
7FE0
7FF0
7070
F070
FFF0
FFF0
FFE0
E1E0
E1E0
E1E0
E0F0
0C00
0600
1E00
ENDCHAR
STARTCHAR 0157
ENCODING 343
SWIDTH 780 0
DWIDTH 13 0
BBX 12 15 0 -4
BITMAP
7F80
7FE0
7FF0
7070
F070
FFF0
FFF0
FFE0
E1E0
E1E0
E1E0
E0F0
0C00
0600
1E00
ENDCHAR
STARTCHAR 0158
ENCODING 344
SWIDTH 780 0
DWIDTH 13 0
BBX 12 15 0 0
BITMAP
6C00
3800
0000
7F80
7FE0
7FF0
7070
F070
FFF0
FFF0
FFE0
E1E0
E1E0
E1E0
E0F0
ENDCHAR
STARTCHAR 0159
ENCODING 345
SWIDTH 780 0
DWIDTH 13 0
BBX 12 15 0 0
BITMAP
6C00
3800
0000
7F80
7FE0
7FF0
7070
F070
FFF0
FFF0
FFE0
E1E0
E1E0
E1E0
E0F0
ENDCHAR
STARTCHAR 015A
ENCODING 346
SWIDTH 660 0
DWIDTH 11 0
BBX 12 17 0 0
BITMAP
0600
0E00
0C00
0C00
0000
0FF0
7FE0
7FE0
F000
E000
FFC0
7FE0
3FE0
0060
FFE0
FFC0
FF80
ENDCHAR
STARTCHAR 015B
ENCODING 347
SWIDTH 660 0
DWIDTH 11 0
BBX 12 17 0 0
BITMAP
0600
0E00
0C00
0C00
0000
0FF0
7FE0
7FE0
F000
E000
FFC0
7FE0
3FE0
0060
FFE0
FFC0
FF80
ENDCHAR
STARTCHAR 015C
ENCODING 348
SWIDTH 660 0
DWIDTH 11 0
BBX 12 17 0 0
BITMAP
0300
0380
0680
04C0
0000
0FF0
7FE0
7FE0
F000
E000
FFC0
7FE0
3FE0
0060
FFE0
FFC0
FF80
ENDCHAR
STARTCHAR 015D
ENCODING 349
SWIDTH 660 0
DWIDTH 11 0
BBX 12 17 0 0
BITMAP
0300
0380
0680
04C0
0000
0FF0
7FE0
7FE0
F000
E000
FFC0
7FE0
3FE0
0060
FFE0
FFC0
FF80
ENDCHAR
STARTCHAR 015E
ENCODING 350
SWIDTH 660 0
DWIDTH 11 0
BBX 12 16 0 -4
BITMAP
0FF0
7FE0
7FE0
F000
E000
FFC0
7FE0
3FE0
0060
FFE0
FFC0
FF80
0600
0700
1E00
0C00
ENDCHAR
STARTCHAR 015F
ENCODING 351
SWIDTH 660 0
DWIDTH 11 0
BBX 12 15 0 -3
BITMAP
0FF0
7FE0
7FE0
F000
E000
FFC0
7FE0
3FE0
0060
FFE0
FFC0
FF80
1C00
1C00
7C00
ENDCHAR
STARTCHAR 0160
ENCODING 352
SWIDTH 660 0
DWIDTH 11 0
BBX 12 15 0 0
BITMAP
1600
0C00
0000
0FF0
7FE0
7FE0
F000
E000
FFC0
7FE0
3FE0
0060
FFE0
FFC0
FF80
ENDCHAR
STARTCHAR 0161
ENCODING 353
SWIDTH 660 0
DWIDTH 11 0
BBX 12 15 0 0
BITMAP
1600
0C00
0000
0FF0
7FE0
7FE0
F000
E000
FFC0
7FE0
3FE0
0060
FFE0
FFC0
FF80
ENDCHAR
STARTCHAR 0162
ENCODING 354
SWIDTH 780 0
DWIDTH 13 0
BBX 12 16 0 -4
BITMAP
7FE0
7FE0
FFE0
FFE0
7800
7800
7000
7000
7800
7FF0
7FF0
3FF0
0C00
0E00
3E00
1800
ENDCHAR
STARTCHAR 0163
ENCODING 355
SWIDTH 780 0
DWIDTH 13 0
BBX 12 16 0 -4
BITMAP
7FE0
7FE0
FFE0
FFE0
7800
7800
7000
7000
7800
7FF0
7FF0
3FF0
3000
3800
F800
6000
ENDCHAR
STARTCHAR 0164
ENCODING 356
SWIDTH 780 0
DWIDTH 13 0
BBX 12 15 0 0
BITMAP
3400
1800
0000
7FE0
7FE0
FFE0
FFE0
7800
7800
7000
7000
7800
7FF0
7FF0
3FF0
ENDCHAR
STARTCHAR 0165
ENCODING 357
SWIDTH 360 0
DWIDTH 6 0
BBX 6 12 0 0
BITMAP
24
64
64
F0
60
60
60
60
60
60
60
38
ENDCHAR
STARTCHAR 0166
ENCODING 358
SWIDTH 600 0
DWIDTH 10 0
BBX 10 12 0 0
BITMAP
FFC0
0C00
0C00
0C00
0C00
0C00
3F80
0C00
0C00
0C00
0C00
0C00
ENDCHAR
STARTCHAR 0167
ENCODING 359
SWIDTH 300 0
DWIDTH 5 0
BBX 4 12 0 0
BITMAP
20
60
60
F0
60
60
F0
60
60
60
60
30
ENDCHAR
STARTCHAR 0168
ENCODING 360
SWIDTH 720 0
DWIDTH 12 0
BBX 12 17 0 0
BITMAP
0060
0FC0
0F80
1B00
0000
7070
7070
7070
F070
E070
E070
E0F0
E0F0
E0E0
FFE0
FFE0
7FE0
ENDCHAR
STARTCHAR 0169
ENCODING 361
SWIDTH 720 0
DWIDTH 12 0
BBX 12 17 0 0
BITMAP
0060
0FC0
0F80
1B00
0000
7070
7070
7070
F070
E070
E070
E0F0
E0F0
E0E0
FFE0
FFE0
7FE0
ENDCHAR
STARTCHAR 016A
ENCODING 362
SWIDTH 720 0
DWIDTH 12 0
BBX 12 15 0 0
BITMAP
07E0
07E0
0FC0
7070
7070
7070
F070
E070
E070
E0F0
E0F0
E0E0
FFE0
FFE0
7FE0
ENDCHAR
STARTCHAR 016B
ENCODING 363
SWIDTH 720 0
DWIDTH 12 0
BBX 12 15 0 0
BITMAP
07E0
07E0
0FC0
7070
7070
7070
F070
E070
E070
E0F0
E0F0
E0E0
FFE0
FFE0
7FE0
ENDCHAR
STARTCHAR 016C
ENCODING 364
SWIDTH 720 0
DWIDTH 12 0
BBX 12 15 0 0
BITMAP
0900
0F00
0000
7070
7070
7070
F070
E070
E070
E0F0
E0F0
E0E0
FFE0
FFE0
7FE0
ENDCHAR
STARTCHAR 016D
ENCODING 365
SWIDTH 720 0
DWIDTH 12 0
BBX 12 15 0 0
BITMAP
0900
0F00
0000
7070
7070
7070
F070
E070
E070
E0F0
E0F0
E0E0
FFE0
FFE0
7FE0
ENDCHAR
STARTCHAR 016E
ENCODING 366
SWIDTH 720 0
DWIDTH 12 0
BBX 12 15 0 0
BITMAP
0300
0500
0300
7070
7070
7070
F070
E070
E070
E0F0
E0F0
E0E0
FFE0
FFE0
7FE0
ENDCHAR
STARTCHAR 016F
ENCODING 367
SWIDTH 720 0
DWIDTH 12 0
BBX 12 15 0 0
BITMAP
00C0
0140
00C0
7070
7070
7070
F070
E070
E070
E0F0
E0F0
E0E0
FFE0
FFE0
7FE0
ENDCHAR
STARTCHAR 0170
ENCODING 368
SWIDTH 720 0
DWIDTH 12 0
BBX 12 15 0 0
BITMAP
0D80
0900
0000
7070
7070
7070
F070
E070
E070
E0F0
E0F0
E0E0
FFE0
FFE0
7FE0
ENDCHAR
STARTCHAR 0171
ENCODING 369
SWIDTH 720 0
DWIDTH 12 0
BBX 12 12 0 0
BITMAP
7670
7470
7070
F070
E070
E070
E0F0
E0F0
E0E0
FFE0
FFE0
7FE0
ENDCHAR
STARTCHAR 0172
ENCODING 370
SWIDTH 720 0
DWIDTH 12 0
BBX 12 16 0 -4
BITMAP
7070
7070
7070
F070
E070
E070
E0F0
E0F0
E0E0
FFE0
FFE0
7FE0
0200
0400
0700
0200
ENDCHAR
STARTCHAR 0173
ENCODING 371
SWIDTH 720 0
DWIDTH 12 0
BBX 12 16 0 -4
BITMAP
7070
7070
7070
F070
E070
E070
E0F0
E0F0
E0E0
FFE0
FFE0
7FE0
0200
0200
0300
0100
ENDCHAR
STARTCHAR 0174
ENCODING 372
SWIDTH 900 0
DWIDTH 15 0
BBX 15 17 0 0
BITMAP
0180
01C0
0240
0660
0000
738E
738E
738E
739E
E39E
E39C
E39C
E39C
E71C
FFFC
FFFC
7FFC
ENDCHAR
STARTCHAR 0175
ENCODING 373
SWIDTH 900 0
DWIDTH 15 0
BBX 15 17 0 0
BITMAP
0180
01C0
0240
0660
0000
738E
738E
738E
739E
E39E
E39C
E39C
E39C
E71C
FFFC
FFFC
7FFC
ENDCHAR
STARTCHAR 0176
ENCODING 374
SWIDTH 720 0
DWIDTH 12 0
BBX 12 17 0 0
BITMAP
0300
0380
0680
04C0
0000
7070
7070
F070
F070
F070
FFF0
7FF0
7FE0
00E0
FFE0
FFE0
FFC0
ENDCHAR
STARTCHAR 0177
ENCODING 375
SWIDTH 720 0
DWIDTH 12 0
BBX 12 17 0 0
BITMAP
0300
0380
0680
04C0
0000
7070
7070
F070
F070
F070
FFF0
7FF0
7FE0
00E0
FFE0
FFE0
FFC0
ENDCHAR
STARTCHAR 0178
ENCODING 376
SWIDTH 720 0
DWIDTH 12 0
BBX 12 15 0 1
BITMAP
1DC0
1DC0
0000
7070
7070
F070
F070
F070
FFF0
7FF0
7FE0
00E0
FFE0
FFE0
FFC0
ENDCHAR
STARTCHAR 0179
ENCODING 377
SWIDTH 780 0
DWIDTH 13 0
BBX 13 14 0 0
BITMAP
00C0
01E0
7FF0
7FF8
7FF8
7FF8
03F0
0FC0
1F80
3F00
FC00
FFF0
FFF0
FFF0
ENDCHAR
STARTCHAR 017A
ENCODING 378
SWIDTH 780 0
DWIDTH 13 0
BBX 13 14 0 0
BITMAP
00C0
01E0
7FF0
7FF8
7FF8
7FF8
03F0
0FC0
1F80
3F00
FC00
FFF0
FFF0
FFF0
ENDCHAR
STARTCHAR 017B
ENCODING 379
SWIDTH 780 0
DWIDTH 13 0
BBX 13 15 0 0
BITMAP
0800
0800
0000
7FF0
7FF8
7FF8
7FF8
03F0
0FC0
1F80
3F00
FC00
FFF0
FFF0
FFF0
ENDCHAR
STARTCHAR 017C
ENCODING 380
SWIDTH 780 0
DWIDTH 13 0
BBX 13 15 0 0
BITMAP
0800
0800
0000
7FF0
7FF8
7FF8
7FF8
03F0
0FC0
1F80
3F00
FC00
FFF0
FFF0
FFF0
ENDCHAR
STARTCHAR 017D
ENCODING 381
SWIDTH 780 0
DWIDTH 13 0
BBX 13 15 0 0
BITMAP
0680
0300
0000
7FF0
7FF8
7FF8
7FF8
03F0
0FC0
1F80
3F00
FC00
FFF0
FFF0
FFF0
ENDCHAR
STARTCHAR 017E
ENCODING 382
SWIDTH 780 0
DWIDTH 13 0
BBX 13 15 0 0
BITMAP
0680
0300
0000
7FF0
7FF8
7FF8
7FF8
03F0
0FC0
1F80
3F00
FC00
FFF0
FFF0
FFF0
ENDCHAR
STARTCHAR 017F
ENCODING 383
SWIDTH 240 0
DWIDTH 4 0
BBX 4 12 1 0
BITMAP
70
C0
C0
C0
C0
C0
C0
C0
C0
C0
C0
C0
ENDCHAR
STARTCHAR 0180
ENCODING 384
SWIDTH 540 0
DWIDTH 9 0
BBX 9 12 0 0
BITMAP
6000
FC00
6000
7E00
7300
6100
6180
4180
6180
6100
6300
7E00
ENDCHAR
STARTCHAR 0181
ENCODING 385
SWIDTH 780 0
DWIDTH 13 0
BBX 12 12 0 0
BITMAP
7FC0
D060
D020
1020
1060
1FC0
1060
1030
1030
1030
1060
1FC0
ENDCHAR
STARTCHAR 0182
ENCODING 386
SWIDTH 720 0
DWIDTH 12 0
BBX 13 12 0 0
BITMAP
0FF8
3FF0
7FF0
7000
FFE0
FFF0
FFF0
F070
F070
FFF0
FFE0
FFC0
ENDCHAR
STARTCHAR 0183
ENCODING 387
SWIDTH 540 0
DWIDTH 9 0
BBX 8 12 1 0
BITMAP
FC
C0
C0
FC
E6
C2
C3
83
C3
C2
C6
FC
ENDCHAR
STARTCHAR 0184
ENCODING 388
SWIDTH 660 0
DWIDTH 11 0
BBX 11 12 0 0
BITMAP
2000
6000
E000
6000
6000
7F80
60C0
6040
6060
6040
60C0
7F80
ENDCHAR
STARTCHAR 0185
ENCODING 389
SWIDTH 540 0
DWIDTH 9 0
BBX 9 12 0 0
BITMAP
2000
E000
6000
7E00
7300
6100
6180
4180
6180
6100
6300
7E00
ENDCHAR
STARTCHAR 0186
ENCODING 390
SWIDTH 720 0
DWIDTH 12 0
BBX 10 12 1 0
BITMAP
3E00
6180
C0C0
00C0
0040
0040
0040
0040
00C0
C0C0
6180
3E00
ENDCHAR
STARTCHAR 0187
ENCODING 391
SWIDTH 720 0
DWIDTH 12 0
BBX 13 13 1 0
BITMAP
0078
1F40
61C0
40C0
C000
C000
C000
C000
C000
C000
4040
60C0
1F00
ENDCHAR
STARTCHAR 0188
ENCODING 392
SWIDTH 540 0
DWIDTH 9 0
BBX 9 10 1 0
BITMAP
0380
3A00
C600
C200
8000
8000
8000
8200
4600
3C00
ENDCHAR
STARTCHAR 0189
ENCODING 393
SWIDTH 720 0
DWIDTH 12 0
BBX 13 12 -1 0
BITMAP
3FC0
3FF0
3FF8
3838
7038
FC38
FC38
FC38
7078
7FF0
7FF0
7FE0
ENDCHAR
STARTCHAR 018A
ENCODING 394
SWIDTH 840 0
DWIDTH 14 0
BBX 13 12 0 0
BITMAP
7FC0
D020
D030
1018
1018
1018
1018
1018
1018
1030
1060
1FC0
ENDCHAR
STARTCHAR 018B
ENCODING 395
SWIDTH 660 0
DWIDTH 11 0
BBX 9 12 1 0
BITMAP
7F80
0180
0180
0180
0180
7F80
C180
8180
8180
8180
C180
7F80
ENDCHAR
STARTCHAR 018C
ENCODING 396
SWIDTH 540 0
DWIDTH 9 0
BBX 7 12 1 0
BITMAP
7E
02
02
7A
C6
82
82
82
82
82
C6
3A
ENDCHAR
STARTCHAR 018D
ENCODING 397
SWIDTH 540 0
DWIDTH 9 0
BBX 8 12 1 -3
BITMAP
3C
C6
83
83
83
83
C3
C6
3C
18
0C
FE
ENDCHAR
STARTCHAR 018E
ENCODING 398
SWIDTH 660 0
DWIDTH 11 0
BBX 9 12 1 0
BITMAP
FF80
0180
0180
0180
0180
7F80
0180
0180
0180
0180
0180
FF80
ENDCHAR
STARTCHAR 018F
ENCODING 399
SWIDTH 780 0
DWIDTH 13 0
BBX 11 12 1 0
BITMAP
1F00
3180
6040
4060
0060
FFE0
C060
C060
C060
60C0
7180
1F00
ENDCHAR
STARTCHAR 0190
ENCODING 400
SWIDTH 600 0
DWIDTH 10 0
BBX 8 12 1 0
BITMAP
3C
63
C3
C1
60
38
C0
C0
80
C1
C3
3E
ENDCHAR
STARTCHAR 0191
ENCODING 401
SWIDTH 600 0
DWIDTH 10 0
BBX 10 15 0 -3
BITMAP
7FC0
6000
6000
6000
6000
7F80
6000
6000
6000
6000
6000
6000
6000
6000
C000
ENDCHAR
STARTCHAR 0192
ENCODING 402
SWIDTH 540 0
DWIDTH 9 0
BBX 9 15 0 -3
BITMAP
0380
0600
0400
1F00
0C00
0C00
0C00
0800
0800
0800
1800
1800
1800
1000
F000
ENDCHAR
STARTCHAR 0193
ENCODING 403
SWIDTH 780 0
DWIDTH 13 0
BBX 13 13 1 0
BITMAP
0038
1FA0
30E0
6060
C000
C000
C000
C3E0
C020
C020
6020
30E0
1F80
ENDCHAR
STARTCHAR 0194
ENCODING 404
SWIDTH 660 0
DWIDTH 11 0
BBX 10 15 0 -3
BITMAP
C040
60C0
6080
2180
3100
1300
1B00
1E00
0E00
0C00
0C00
0E00
1A00
1A00
0E00
ENDCHAR
STARTCHAR 0195
ENCODING 405
SWIDTH 900 0
DWIDTH 15 0
BBX 13 12 1 0
BITMAP
C000
C000
C000
FC18
C618
C218
C218
C218
C218
C218
C310
C1E0
ENDCHAR
STARTCHAR 0196
ENCODING 406
SWIDTH 240 0
DWIDTH 4 0
BBX 2 12 1 0
BITMAP
C0
C0
C0
C0
C0
C0
C0
C0
C0
C0
C0
C0
ENDCHAR
STARTCHAR 0197
ENCODING 407
SWIDTH 300 0
DWIDTH 5 0
BBX 5 12 0 0
BITMAP
20
20
20
20
20
F8
20
20
20
20
20
20
ENDCHAR
STARTCHAR 0198
ENCODING 408
SWIDTH 660 0
DWIDTH 11 0
BBX 10 12 1 0
BITMAP
71C0
C180
C300
C600
CC00
D800
EC00
C600
C300
C300
C180
C0C0
ENDCHAR
STARTCHAR 0199
ENCODING 409
SWIDTH 540 0
DWIDTH 9 0
BBX 7 12 1 0
BITMAP
70
C0
C0
C6
CC
D8
F0
F0
D8
CC
C4
C6
ENDCHAR
STARTCHAR 019A
ENCODING 410
SWIDTH 240 0
DWIDTH 4 0
BBX 4 12 0 0
BITMAP
60
60
60
60
60
60
F0
60
60
60
60
60
ENDCHAR
STARTCHAR 019B
ENCODING 411
SWIDTH 540 0
DWIDTH 9 0
BBX 8 12 0 0
BITMAP
34
18
38
58
18
1C
34
26
26
62
43
C1
ENDCHAR
STARTCHAR 019C
ENCODING 412
SWIDTH 900 0
DWIDTH 15 0
BBX 13 12 1 0
BITMAP
C218
C218
C218
C218
C218
C218
C218
C218
C218
C218
4738
79F8
ENDCHAR
STARTCHAR 019D
ENCODING 413
SWIDTH 720 0
DWIDTH 12 0
BBX 11 15 0 -3
BITMAP
6060
7060
7060
6860
6460
6460
6260
6260
6160
60E0
60E0
6060
6000
6000
C000
ENDCHAR
STARTCHAR 019E
ENCODING 414
SWIDTH 540 0
DWIDTH 9 0
BBX 7 12 1 -3
BITMAP
FC
C6
C2
C2
C2
C2
C2
C2
C2
02
02
02
ENDCHAR
STARTCHAR 019F
ENCODING 415
SWIDTH 780 0
DWIDTH 13 0
BBX 11 12 1 0
BITMAP
1F00
30C0
4040
C060
C020
FFE0
C020
C020
C060
6060
31C0
1F00
ENDCHAR
STARTCHAR 01A0
ENCODING 416
SWIDTH 900 0
DWIDTH 15 0
BBX 13 12 1 0
BITMAP
1F08
30C8
4068
C070
C020
C020
8020
C020
C060
4040
30C0
1F00
ENDCHAR
STARTCHAR 01A1
ENCODING 417
SWIDTH 660 0
DWIDTH 11 0
BBX 10 9 1 0
BITMAP
3CC0
C640
8380
8380
8300
8300
8200
C600
3C00
ENDCHAR
STARTCHAR 01A2
ENCODING 418
SWIDTH 900 0
DWIDTH 15 0
BBX 12 15 1 -3
BITMAP
1FF0
3090
4090
C090
C090
C090
8090
C090
C090
4090
3090
1F10
0010
0010
0010
ENDCHAR
STARTCHAR 01A3
ENCODING 419
SWIDTH 660 0
DWIDTH 11 0
BBX 9 12 1 -3
BITMAP
3F80
C480
8480
8480
8480
8480
8480
C480
3C80
0080
0080
0080
ENDCHAR
STARTCHAR 01A4
ENCODING 420
SWIDTH 780 0
DWIDTH 13 0
BBX 12 12 0 0
BITMAP
7FC0
D030
D030
1030
1030
1030
1FC0
1000
1000
1000
1000
1000
ENDCHAR
STARTCHAR 01A5
ENCODING 421
SWIDTH 540 0
DWIDTH 9 0
BBX 8 15 1 -3
BITMAP
70
C0
C0
FC
E6
C2
C3
83
C3
C2
C6
FC
C0
C0
C0
ENDCHAR
STARTCHAR 01A6
ENCODING 422
SWIDTH 660 0
DWIDTH 11 0
BBX 10 15 1 -3
BITMAP
C000
FF00
C180
C080
C0C0
C080
C180
FF00
CC00
C600
C600
C300
0180
0180
00C0
ENDCHAR
STARTCHAR 01A7
ENCODING 423
SWIDTH 660 0
DWIDTH 11 0
BBX 10 12 1 0
BITMAP
3E00
6180
C080
C180
0180
1E00
6000
C000
80C0
C080
4180
3E00
ENDCHAR
STARTCHAR 01A8
ENCODING 424
SWIDTH 540 0
DWIDTH 9 0
BBX 7 9 1 0
BITMAP
7C
C6
C6
0C
38
C0
86
C6
78
ENDCHAR
STARTCHAR 01A9
ENCODING 425
SWIDTH 660 0
DWIDTH 11 0
BBX 9 12 1 0
BITMAP
FF80
C000
6000
3000
1800
0C00
0800
1800
3000
6000
C000
FF80
ENDCHAR
STARTCHAR 01AA
ENCODING 426
SWIDTH 360 0
DWIDTH 6 0
BBX 5 15 1 -3
BITMAP
E0
A0
A0
E0
20
20
20
20
20
20
20
20
20
30
18
ENDCHAR
STARTCHAR 01AB
ENCODING 427
SWIDTH 300 0
DWIDTH 5 0
BBX 4 15 0 -3
BITMAP
20
60
60
F0
60
60
60
60
60
60
60
30
10
10
70
ENDCHAR
STARTCHAR 01AC
ENCODING 428
SWIDTH 600 0
DWIDTH 10 0
BBX 10 12 0 0
BITMAP
7FC0
CC00
CC00
0C00
0C00
0C00
0C00
0C00
0C00
0C00
0C00
0C00
ENDCHAR
STARTCHAR 01AD
ENCODING 429
SWIDTH 300 0
DWIDTH 5 0
BBX 5 12 0 0
BITMAP
38
60
60
F0
60
60
60
60
60
60
60
38
ENDCHAR
STARTCHAR 01AE
ENCODING 430
SWIDTH 600 0
DWIDTH 10 0
BBX 10 15 0 -3
BITMAP
FFC0
0C00
0C00
0C00
0C00
0C00
0C00
0C00
0C00
0C00
0C00
0C00
0C00
0400
0700
ENDCHAR
STARTCHAR 01AF
ENCODING 431
SWIDTH 900 0
DWIDTH 15 0
BBX 13 12 1 0
BITMAP
C0D8
C0C8
C0C8
C0F0
C0C0
C0C0
C0C0
C0C0
C0C0
4080
6180
3F00
ENDCHAR
STARTCHAR 01B0
ENCODING 432
SWIDTH 660 0
DWIDTH 11 0
BBX 10 9 1 0
BITMAP
C2C0
C240
C240
C380
C200
C200
C200
C600
7A00
ENDCHAR
STARTCHAR 01B1
ENCODING 433
SWIDTH 780 0
DWIDTH 13 0
BBX 11 12 1 0
BITMAP
FBE0
3180
60C0
4040
C060
C060
C060
C060
C040
60C0
3180
1F00
ENDCHAR
STARTCHAR 01B2
ENCODING 434
SWIDTH 720 0
DWIDTH 12 0
BBX 10 12 1 0
BITMAP
C380
C0C0
C0C0
C0C0
C0C0
C0C0
C0C0
C0C0
C080
4180
6100
3E00
ENDCHAR
STARTCHAR 01B3
ENCODING 435
SWIDTH 780 0
DWIDTH 13 0
BBX 13 12 0 0
BITMAP
C070
60C8
3080
1180
1B00
0E00
0600
0400
0400
0400
0400
0400
ENDCHAR
STARTCHAR 01B4
ENCODING 436
SWIDTH 540 0
DWIDTH 9 0
BBX 12 15 0 -3
BITMAP
00F0
0180
0180
C100
4300
6200
2200
3600
3400
1C00
1C00
1800
1800
1000
7000
ENDCHAR
STARTCHAR 01B5
ENCODING 437
SWIDTH 600 0
DWIDTH 10 0
BBX 10 12 0 0
BITMAP
7FC0
0180
0180
0300
0600
FFC0
1800
1800
3000
6000
6000
FFC0
ENDCHAR
STARTCHAR 01B6
ENCODING 438
SWIDTH 540 0
DWIDTH 9 0
BBX 8 9 0 0
BITMAP
7F
02
06
0C
FF
30
20
60
FF
ENDCHAR
STARTCHAR 01B7
ENCODING 439
SWIDTH 600 0
DWIDTH 10 0
BBX 10 15 0 -3
BITMAP
7FC0
0180
0100
0300
0600
0F00
0180
00C0
00C0
00C0
00C0
C0C0
4080
6180
1E00
ENDCHAR
STARTCHAR 01B8
ENCODING 440
SWIDTH 600 0
DWIDTH 10 0
BBX 10 15 0 -3
BITMAP
7F80
6000
3000
1800
0C00
1C00
7000
6000
C000
C000
C000
40C0
60C0
3180
1F00
ENDCHAR
STARTCHAR 01B9
ENCODING 441
SWIDTH 540 0
DWIDTH 9 0
BBX 8 12 1 -3
BITMAP
FE
40
20
10
78
C0
80
80
83
82
C6
3C
ENDCHAR
STARTCHAR 01BA
ENCODING 442
SWIDTH 540 0
DWIDTH 9 0
BBX 7 12 1 -3
BITMAP
FE
04
0C
18
3C
06
06
1C
E0
80
82
7C
ENDCHAR
STARTCHAR 01BB
ENCODING 443
SWIDTH 540 0
DWIDTH 9 0
BBX 8 12 1 0
BITMAP
3C
46
C2
83
02
06
FF
18
30
60
C0
FF
ENDCHAR
STARTCHAR 01BC
ENCODING 444
SWIDTH 540 0
DWIDTH 9 0
BBX 8 12 1 0
BITMAP
FE
60
60
60
7C
06
03
03
83
C2
46
3C
ENDCHAR
STARTCHAR 01BD
ENCODING 445
SWIDTH 480 0
DWIDTH 8 0
BBX 7 9 0 0
BITMAP
FE
20
20
3C
06
02
02
46
7C
ENDCHAR
STARTCHAR 01BE
ENCODING 446
SWIDTH 480 0
DWIDTH 8 0
BBX 8 12 0 0
BITMAP
20
60
60
F0
60
60
38
06
03
C3
42
3C
ENDCHAR
STARTCHAR 01BF
ENCODING 447
SWIDTH 540 0
DWIDTH 9 0
BBX 8 12 1 -3
BITMAP
FC
E6
C3
C3
C3
C3
C6
CC
D8
E0
C0
C0
ENDCHAR
STARTCHAR 01C0
ENCODING 448
SWIDTH 240 0
DWIDTH 4 0
BBX 1 12 2 0
BITMAP
80
80
80
80
80
80
80
80
80
80
80
80
ENDCHAR
STARTCHAR 01C1
ENCODING 449
SWIDTH 420 0
DWIDTH 7 0
BBX 3 12 2 0
BITMAP
A0
A0
A0
A0
A0
A0
A0
A0
A0
A0
A0
A0
ENDCHAR
STARTCHAR 01C2
ENCODING 450
SWIDTH 600 0
DWIDTH 10 0
BBX 8 12 1 0
BITMAP
18
18
18
18
FF
18
18
18
FF
18
18
18
ENDCHAR
STARTCHAR 01C3
ENCODING 451
SWIDTH 180 0
DWIDTH 3 0
BBX 4 12 0 0
BITMAP
70
70
70
60
60
60
E0
E0
E0
40
E0
E0
ENDCHAR
STARTCHAR 01C4
ENCODING 452
SWIDTH 1380 0
DWIDTH 23 0
BBX 25 15 1 0
BITMAP
00016000
0001C000
00000000
3FC7FF00
7FF7FF80
7FF7FF80
707FFF80
70383F00
7038FC00
7039F800
703BF000
707FC000
7FFFFF00
7FEFFF00
FFCFFF00
ENDCHAR
STARTCHAR 01C5
ENCODING 453
SWIDTH 1260 0
DWIDTH 21 0
BBX 25 12 1 0
BITMAP
3FC7FF00
7FF7FF80
7FF7FF80
707FFF80
70383F00
7038FC00
7039F800
703BF000
707FC000
7FFFFF00
7FEFFF00
FFCFFF00
ENDCHAR
STARTCHAR 01C6
ENCODING 454
SWIDTH 1080 0
DWIDTH 18 0
BBX 22 12 1 0
BITMAP
3FFFF8
7FDFFC
7FCFFC
7047FC
7039F8
703FE0
7037C0
702780
70CF00
7F8FF8
7F9FF8
FFFFF8
ENDCHAR
STARTCHAR 01C7
ENCODING 455
SWIDTH 1080 0
DWIDTH 18 0
BBX 22 12 2 0
BITMAP
70003C
70003C
F0003C
F0003C
F0003C
F00038
F00038
E00038
F00038
FFF3F8
FFE3F0
7FE3E0
ENDCHAR
STARTCHAR 01C8
ENCODING 456
SWIDTH 840 0
DWIDTH 14 0
BBX 23 12 2 0
BITMAP
70001E
70001E
F0001E
F0001C
F0001C
F0001C
F0001C
E0001C
F0003C
FFF1FC
FFE1F8
7FE1F0
ENDCHAR
STARTCHAR 01C9
ENCODING 457
SWIDTH 480 0
DWIDTH 8 0
BBX 16 12 2 0
BITMAP
7007
7007
F007
F00F
F00F
F00F
F00F
E00F
F00E
FFFE
FF1E
7FF8
ENDCHAR
STARTCHAR 01CA
ENCODING 458
SWIDTH 1260 0
DWIDTH 21 0
BBX 27 12 0 0
BITMAP
7FE001E0
7FF001E0
7FF001C0
7FF801C0
703801C0
707001C0
707001C0
707003C0
707003C0
70701FC0
F0701F80
F0701F00
ENDCHAR
STARTCHAR 01CB
ENCODING 459
SWIDTH 960 0
DWIDTH 16 0
BBX 27 12 0 0
BITMAP
7FE001E0
7FF001E0
7FF001C0
7FF801C0
703801C0
707001C0
707001C0
707003C0
707003C0
70701FC0
F0701F80
F0701F00
ENDCHAR
STARTCHAR 01CC
ENCODING 460
SWIDTH 780 0
DWIDTH 13 0
BBX 24 12 0 0
BITMAP
7FE00F
7FF00F
7FF00F
7FF80E
70380E
70700E
70700E
70700E
70701E
7070FE
F070FC
F070F8
ENDCHAR
STARTCHAR 01CD
ENCODING 461
SWIDTH 720 0
DWIDTH 12 0
BBX 12 15 0 0
BITMAP
1600
0C00
0000
0FC0
3FE0
7FF0
7070
F070
F070
FFF0
FFF0
E0F0
E0E0
E0E0
E0E0
ENDCHAR
STARTCHAR 01CE
ENCODING 462
SWIDTH 720 0
DWIDTH 12 0
BBX 12 12 0 0
BITMAP
3FC0
3FE0
7FF0
7070
F070
F070
FFF0
FFF0
E0F0
E0E0
E0E0
E0E0
ENDCHAR
STARTCHAR 01CF
ENCODING 463
SWIDTH 240 0
DWIDTH 4 0
BBX 6 15 -2 0
BITMAP
D8
70
00
1C
1C
1C
1C
1C
3C
3C
3C
3C
38
38
38
ENDCHAR
STARTCHAR 01D0
ENCODING 464
SWIDTH 240 0
DWIDTH 4 0
BBX 4 12 0 0
BITMAP
F0
60
00
60
60
60
60
60
60
60
60
60
ENDCHAR
STARTCHAR 01D1
ENCODING 465
SWIDTH 780 0
DWIDTH 13 0
BBX 13 15 0 0
BITMAP
1600
1C00
0000
1FE0
3FF0
7FF0
7078
F078
E078
E078
E070
E070
FFF0
FFE0
7FE0
ENDCHAR
STARTCHAR 01D2
ENCODING 466
SWIDTH 780 0
DWIDTH 13 0
BBX 13 12 0 0
BITMAP
5FE0
7FF0
7FF0
7078
F078
E078
E078
E070
E070
FFF0
FFE0
7FE0
ENDCHAR
STARTCHAR 01D3
ENCODING 467
SWIDTH 720 0
DWIDTH 12 0
BBX 12 15 0 0
BITMAP
0B00
0600
0000
7070
7070
7070
F070
E070
E070
E0F0
E0F0
E0E0
FFE0
FFE0
7FE0
ENDCHAR
STARTCHAR 01D4
ENCODING 468
SWIDTH 720 0
DWIDTH 12 0
BBX 12 12 0 0
BITMAP
7670
7C70
7070
F070
E070
E070
E0F0
E0F0
E0E0
FFE0
FFE0
7FE0
ENDCHAR
STARTCHAR 01D5
ENCODING 469
SWIDTH 720 0
DWIDTH 12 0
BBX 12 15 0 0
BITMAP
0F00
0900
0900
7070
7070
7070
F070
E070
E070
E0F0
E0F0
E0E0
FFE0
FFE0
7FE0
ENDCHAR
STARTCHAR 01D6
ENCODING 470
SWIDTH 720 0
DWIDTH 12 0
BBX 12 16 0 0
BITMAP
0FC0
0CB0
1CF0
0330
7070
7070
7070
F070
E070
E070
E0F0
E0F0
E0E0
FFE0
FFE0
7FE0
ENDCHAR
STARTCHAR 01D7
ENCODING 471
SWIDTH 720 0
DWIDTH 12 0
BBX 12 15 0 0
BITMAP
0200
0900
0900
7070
7070
7070
F070
E070
E070
E0F0
E0F0
E0E0
FFE0
FFE0
7FE0
ENDCHAR
STARTCHAR 01D8
ENCODING 472
SWIDTH 720 0
DWIDTH 12 0
BBX 12 17 0 0
BITMAP
0E00
0E00
0F30
0B70
0730
7070
7070
7070
F070
E070
E070
E0F0
E0F0
E0E0
FFE0
FFE0
7FE0
ENDCHAR
STARTCHAR 01D9
ENCODING 473
SWIDTH 720 0
DWIDTH 12 0
BBX 12 15 0 0
BITMAP
0600
0900
0900
7070
7070
7070
F070
E070
E070
E0F0
E0F0
E0E0
FFE0
FFE0
7FE0
ENDCHAR
STARTCHAR 01DA
ENCODING 474
SWIDTH 720 0
DWIDTH 12 0
BBX 12 15 0 0
BITMAP
3730
1B70
0730
7070
7070
7070
F070
E070
E070
E0F0
E0F0
E0E0
FFE0
FFE0
7FE0
ENDCHAR
STARTCHAR 01DB
ENCODING 475
SWIDTH 720 0
DWIDTH 12 0
BBX 12 15 0 0
BITMAP
0C00
0900
0900
7070
7070
7070
F070
E070
E070
E0F0
E0F0
E0E0
FFE0
FFE0
7FE0
ENDCHAR
STARTCHAR 01DC
ENCODING 476
SWIDTH 720 0
DWIDTH 12 0
BBX 12 17 0 0
BITMAP
3000
3000
3B30
1F70
0330
7070
7070
7070
F070
E070
E070
E0F0
E0F0
E0E0
FFE0
FFE0
7FE0
ENDCHAR
STARTCHAR 01DD
ENCODING 477
SWIDTH 540 0
DWIDTH 9 0
BBX 8 9 1 0
BITMAP
7C
C6
83
03
FF
83
C2
46
3C
ENDCHAR
STARTCHAR 01DE
ENCODING 478
SWIDTH 720 0
DWIDTH 12 0
BBX 12 15 0 0
BITMAP
1E00
1200
1200
0FC0
3FE0
7FF0
7070
F070
F070
FFF0
FFF0
E0F0
E0E0
E0E0
E0E0
ENDCHAR
STARTCHAR 01DF
ENCODING 479
SWIDTH 720 0
DWIDTH 12 0
BBX 12 16 0 0
BITMAP
0FC0
1CB0
1CF0
0330
0FC0
3FE0
7FF0
7070
F070
F070
FFF0
FFF0
E0F0
E0E0
E0E0
E0E0
ENDCHAR
STARTCHAR 01E0
ENCODING 480
SWIDTH 720 0
DWIDTH 12 0
BBX 12 15 0 0
BITMAP
1E00
0C00
0C00
0FC0
3FE0
7FF0
7070
F070
F070
FFF0
FFF0
E0F0
E0E0
E0E0
E0E0
ENDCHAR
STARTCHAR 01E1
ENCODING 481
SWIDTH 720 0
DWIDTH 12 0
BBX 12 16 0 0
BITMAP
0FC0
1F80
1F80
0000
1FC0
3FE0
7FF0
7070
F070
F070
FFF0
FFF0
E0F0
E0E0
E0E0
E0E0
ENDCHAR
STARTCHAR 01E2
ENCODING 482
SWIDTH 1260 0
DWIDTH 21 0
BBX 21 15 0 0
BITMAP
003E00
007E00
007C00
0FCFF8
3FFFF8
7FFFF8
707800
F07000
F07FF0
FFFFF0
FFF000
E0F000
E0FFF0
E0FFF0
E0FFF0
ENDCHAR
STARTCHAR 01E3
ENCODING 483
SWIDTH 1260 0
DWIDTH 21 0
BBX 21 12 0 0
BITMAP
0FFFF8
3FFFF8
7FFFF8
707800
F07000
F07FF0
FFFFF0
FFF000
E0F000
E0FFF0
E0FFF0
E0FFF0
ENDCHAR
STARTCHAR 01E4
ENCODING 484
SWIDTH 780 0
DWIDTH 13 0
BBX 12 12 1 0
BITMAP
1F80
30C0
6060
C000
C000
C000
C3E0
C020
C3F0
6060
30C0
1F80
ENDCHAR
STARTCHAR 01E5
ENCODING 485
SWIDTH 540 0
DWIDTH 9 0
BBX 9 12 0 -3
BITMAP
3D00
6300
4100
4100
4100
4100
6300
3D00
0100
FF80
0300
7E00
ENDCHAR
STARTCHAR 01E6
ENCODING 486
SWIDTH 720 0
DWIDTH 12 0
BBX 12 15 0 0
BITMAP
1A00
0C00
0000
0FF0
3FF0
7FF0
7000
F000
E000
E070
E070
E070
FFF0
7FE0
7FE0
ENDCHAR
STARTCHAR 01E7
ENCODING 487
SWIDTH 720 0
DWIDTH 12 0
BBX 12 12 0 0
BITMAP
DFF0
7FF0
7FF0
7000
F000
E000
E070
E070
E070
FFF0
7FE0
7FE0
ENDCHAR
STARTCHAR 01E8
ENCODING 488
SWIDTH 720 0
DWIDTH 12 0
BBX 13 15 0 0
BITMAP
3400
1C00
0000
78F8
71F0
73E0
F3C0
F7C0
FF80
FF00
FF80
F7C0
F3C0
F3E0
E1F0
ENDCHAR
STARTCHAR 01E9
ENCODING 489
SWIDTH 720 0
DWIDTH 12 0
BBX 13 15 0 0
BITMAP
6800
3000
0000
78F8
71F0
73E0
F3C0
F7C0
FF80
FF00
FF80
F7C0
F3C0
F3E0
E1F0
ENDCHAR
STARTCHAR 01EA
ENCODING 490
SWIDTH 780 0
DWIDTH 13 0
BBX 13 16 0 -4
BITMAP
1FE0
3FF0
7FF0
7078
F078
E078
E078
E070
E070
FFF0
FFE0
7FE0
0800
0800
0E00
0400
ENDCHAR
STARTCHAR 01EB
ENCODING 491
SWIDTH 780 0
DWIDTH 13 0
BBX 13 16 0 -4
BITMAP
1FE0
3FF0
7FF0
7078
F078
E078
E078
E070
E070
FFF0
FFE0
7FE0
2000
2000
3800
1000
ENDCHAR
STARTCHAR 01EC
ENCODING 492
SWIDTH 780 0
DWIDTH 13 0
BBX 13 19 0 -4
BITMAP
0FC0
0F80
1F80
1FE0
3FF0
7FF0
7078
F078
E078
E078
E070
E070
FFF0
FFE0
7FE0
0800
0800
0E00
0400
ENDCHAR
STARTCHAR 01ED
ENCODING 493
SWIDTH 780 0
DWIDTH 13 0
BBX 13 16 0 -4
BITMAP
3FE0
3FF0
7FF0
7078
F078
E078
E078
E070
E070
FFF0
FFE0
7FE0
2000
2000
3800
1000
ENDCHAR
STARTCHAR 01EE
ENCODING 494
SWIDTH 600 0
DWIDTH 10 0
BBX 10 19 0 -4
BITMAP
1B00
0E00
0000
7FC0
00C0
0180
0300
0600
0E00
0F80
0180
00C0
00C0
00C0
00C0
C0C0
6180
3F00
0C00
ENDCHAR
STARTCHAR 01EF
ENCODING 495
SWIDTH 540 0
DWIDTH 9 0
BBX 8 16 1 -4
BITMAP
2C
38
00
FE
06
0C
18
38
3E
02
03
03
83
C6
7C
10
ENDCHAR
STARTCHAR 01F0
ENCODING 496
SWIDTH 240 0
DWIDTH 4 0
BBX 5 16 -1 -4
BITMAP
58
30
00
30
30
30
30
30
30
30
30
30
30
30
E0
40
ENDCHAR
STARTCHAR 01F1
ENCODING 497
SWIDTH 1380 0
DWIDTH 23 0
BBX 25 12 1 0
BITMAP
3FC7FF00
7FF7FF80
7FF7FF80
707FFF80
70383F00
7038FC00
7039F800
703BF000
707FC000
7FFFFF00
7FEFFF00
FFCFFF00
ENDCHAR
STARTCHAR 01F2
ENCODING 498
SWIDTH 1260 0
DWIDTH 21 0
BBX 25 12 1 0
BITMAP
3FC7FF00
7FF7FF80
7FF7FF80
707FFF80
70383F00
7038FC00
7039F800
703BF000
707FC000
7FFFFF00
7FEFFF00
FFCFFF00
ENDCHAR
STARTCHAR 01F3
ENCODING 499
SWIDTH 1080 0
DWIDTH 18 0
BBX 22 12 1 0
BITMAP
3FFFF8
7FCFFC
7FCFFC
7047FC
7039F8
703FE0
7037C0
702780
70CF00
7F8FF8
7F9FF8
FFFFF8
ENDCHAR
STARTCHAR 01F4
ENCODING 500
SWIDTH 720 0
DWIDTH 12 0
BBX 12 17 0 0
BITMAP
0600
0E00
0E00
0C00
0000
0FF0
3FF0
7FF0
7000
F000
E000
E070
E070
E070
FFF0
7FE0
7FE0
ENDCHAR
STARTCHAR 01F5
ENCODING 501
SWIDTH 720 0
DWIDTH 12 0
BBX 12 14 0 0
BITMAP
3800
3800
3FF0
7FF0
7FF0
7000
F000
E000
E070
E070
E070
FFF0
7FE0
7FE0
ENDCHAR
STARTCHAR 01F6
ENCODING 502
SWIDTH 1080 0
DWIDTH 18 0
BBX 15 12 1 0
BITMAP
C0C0
C0C0
C0C0
C0C2
C0C2
FFC2
C0C2
C0C2
C0C2
C0C2
C046
C03C
ENDCHAR
STARTCHAR 01F7
ENCODING 503
SWIDTH 660 0
DWIDTH 11 0
BBX 9 15 1 -3
BITMAP
DE00
E300
C180
C180
C180
C180
C100
C300
C200
C600
CC00
D000
E000
C000
C000
ENDCHAR
STARTCHAR 01F8
ENCODING 504
SWIDTH 720 0
DWIDTH 12 0
BBX 12 17 0 0
BITMAP
0800
1C00
1C00
0C00
0400
7FC0
7FF0
7FF0
7FF0
7070
F070
F070
E070
E070
E0F0
E0E0
E0E0
ENDCHAR
STARTCHAR 01F9
ENCODING 505
SWIDTH 720 0
DWIDTH 12 0
BBX 12 14 0 0
BITMAP
3000
3000
7FC0
7FF0
7FF0
7FF0
7070
F070
F070
E070
E070
E0F0
E0E0
E0E0
ENDCHAR
STARTCHAR 01FA
ENCODING 506
SWIDTH 720 0
DWIDTH 12 0
BBX 12 19 0 0
BITMAP
0600
0600
0E00
0C00
0300
0500
0700
0FC0
3FE0
7FF0
7070
F070
F070
FFF0
FFF0
E0F0
E0E0
E0E0
E0E0
ENDCHAR
STARTCHAR 01FB
ENCODING 507
SWIDTH 720 0
DWIDTH 12 0
BBX 12 18 0 0
BITMAP
0600
0E00
0C00
0F00
0500
0700
0FC0
3FE0
7FF0
7070
F070
F070
FFF0
FFF0
E0F0
E0E0
E0E0
E0E0
ENDCHAR
STARTCHAR 01FC
ENCODING 508
SWIDTH 1260 0
DWIDTH 21 0
BBX 21 17 0 0
BITMAP
00C000
01C000
018000
018000
000000
0FCFF8
3FFFF8
7FFFF8
707800
F07000
F07FF0
FFFFF0
FFF000
E0F000
E0FFF0
E0FFF0
E0FFF0
ENDCHAR
STARTCHAR 01FD
ENCODING 509
SWIDTH 1260 0
DWIDTH 21 0
BBX 21 14 0 0
BITMAP
018000
018000
0FCFF8
3FFFF8
7FFFF8
707800
F07000
F07FF0
FFFFF0
FFF000
E0F000
E0FFF0
E0FFF0
E0FFF0
ENDCHAR
STARTCHAR 01FE
ENCODING 510
SWIDTH 780 0
DWIDTH 13 0
BBX 13 20 0 -3
BITMAP
0600
0E00
0C00
0C60
00C0
1FE0
3FF0
7FF0
73F8
F378
E378
E678
E670
EC70
FFF0
FFE0
7FE0
1800
3000
3000
ENDCHAR
STARTCHAR 01FF
ENCODING 511
SWIDTH 780 0
DWIDTH 13 0
BBX 13 17 0 -3
BITMAP
1C60
1CC0
1FE0
3FF0
7FF0
73F8
F378
E378
E678
E670
EC70
FFF0
FFE0
7FE0
1800
3000
3000
ENDCHAR
STARTCHAR 0200
ENCODING 512
SWIDTH 720 0
DWIDTH 12 0
BBX 12 15 0 0
BITMAP
3600
1200
0000
0FC0
3FE0
7FF0
7070
F070
F070
FFF0
FFF0
E0F0
E0E0
E0E0
E0E0
ENDCHAR
STARTCHAR 0201
ENCODING 513
SWIDTH 720 0
DWIDTH 12 0
BBX 12 12 0 0
BITMAP
6FC0
3FE0
7FF0
7070
F070
F070
FFF0
FFF0
E0F0
E0E0
E0E0
E0E0
ENDCHAR
STARTCHAR 0202
ENCODING 514
SWIDTH 720 0
DWIDTH 12 0
BBX 12 15 0 0
BITMAP
1E00
1200
0000
0FC0
3FE0
7FF0
7070
F070
F070
FFF0
FFF0
E0F0
E0E0
E0E0
E0E0
ENDCHAR
STARTCHAR 0203
ENCODING 515
SWIDTH 720 0
DWIDTH 12 0
BBX 12 12 0 0
BITMAP
3FC0
3FE0
7FF0
7070
F070
F070
FFF0
FFF0
E0F0
E0E0
E0E0
E0E0
ENDCHAR
STARTCHAR 0204
ENCODING 516
SWIDTH 720 0
DWIDTH 12 0
BBX 12 15 0 0
BITMAP
6800
2400
0000
0FF0
3FF0
7FF0
7000
F000
FFF0
FFF0
F000
F000
FFF0
7FE0
7FE0
ENDCHAR
STARTCHAR 0205
ENCODING 517
SWIDTH 720 0
DWIDTH 12 0
BBX 12 12 0 0
BITMAP
DFF0
7FF0
7FF0
7000
F000
FFF0
FFF0
F000
F000
FFF0
7FE0
7FE0
ENDCHAR
STARTCHAR 0206
ENCODING 518
SWIDTH 720 0
DWIDTH 12 0
BBX 12 15 0 0
BITMAP
3C00
2400
0000
0FF0
3FF0
7FF0
7000
F000
FFF0
FFF0
F000
F000
FFF0
7FE0
7FE0
ENDCHAR
STARTCHAR 0207
ENCODING 519
SWIDTH 720 0
DWIDTH 12 0
BBX 12 12 0 0
BITMAP
7FF0
FFF0
7FF0
7000
F000
FFF0
FFF0
F000
F000
FFF0
7FE0
7FE0
ENDCHAR
STARTCHAR 0208
ENCODING 520
SWIDTH 240 0
DWIDTH 4 0
BBX 6 15 -2 0
BITMAP
D0
58
00
1C
1C
1C
1C
1C
3C
3C
3C
3C
38
38
38
ENDCHAR
STARTCHAR 0209
ENCODING 521
SWIDTH 300 0
DWIDTH 5 0
BBX 5 12 -1 0
BITMAP
D8
48
00
10
10
10
10
10
10
10
10
10
ENDCHAR
STARTCHAR 020A
ENCODING 522
SWIDTH 240 0
DWIDTH 4 0
BBX 6 15 -2 0
BITMAP
78
88
00
1C
1C
1C
1C
1C
3C
3C
3C
3C
38
38
38
ENDCHAR
STARTCHAR 020B
ENCODING 523
SWIDTH 300 0
DWIDTH 5 0
BBX 5 12 0 0
BITMAP
70
88
00
20
20
20
20
20
20
20
20
20
ENDCHAR
STARTCHAR 020C
ENCODING 524
SWIDTH 780 0
DWIDTH 13 0
BBX 13 15 0 0
BITMAP
6C00
3600
0000
1FE0
3FF0
7FF0
7078
F078
E078
E078
E070
E070
FFF0
FFE0
7FE0
ENDCHAR
STARTCHAR 020D
ENCODING 525
SWIDTH 780 0
DWIDTH 13 0
BBX 13 12 0 0
BITMAP
9FE0
FFF0
7FF0
7078
F078
E078
E078
E070
E070
FFF0
FFE0
7FE0
ENDCHAR
STARTCHAR 020E
ENCODING 526
SWIDTH 780 0
DWIDTH 13 0
BBX 13 15 0 0
BITMAP
1E00
2200
0000
1FE0
3FF0
7FF0
7078
F078
E078
E078
E070
E070
FFF0
FFE0
7FE0
ENDCHAR
STARTCHAR 020F
ENCODING 527
SWIDTH 780 0
DWIDTH 13 0
BBX 13 12 0 0
BITMAP
7FE0
FFF0
7FF0
7078
F078
E078
E078
E070
E070
FFF0
FFE0
7FE0
ENDCHAR
STARTCHAR 0210
ENCODING 528
SWIDTH 780 0
DWIDTH 13 0
BBX 12 15 0 0
BITMAP
4800
2C00
0000
7F80
7FE0
7FF0
7070
F070
FFF0
FFF0
FFE0
E1E0
E1E0
E1E0
E0F0
ENDCHAR
STARTCHAR 0211
ENCODING 529
SWIDTH 780 0
DWIDTH 13 0
BBX 14 12 -2 0
BITMAP
FFE0
57F8
1FFC
1C1C
3C1C
3FFC
3FFC
3FF8
3878
3878
3878
383C
ENDCHAR
STARTCHAR 0212
ENCODING 530
SWIDTH 780 0
DWIDTH 13 0
BBX 12 15 0 0
BITMAP
3C00
2400
0000
7F80
7FE0
7FF0
7070
F070
FFF0
FFF0
FFE0
E1E0
E1E0
E1E0
E0F0
ENDCHAR
STARTCHAR 0213
ENCODING 531
SWIDTH 780 0
DWIDTH 13 0
BBX 13 12 -1 0
BITMAP
7FC0
B7F0
3FF8
3838
7838
7FF8
7FF8
7FF0
70F0
70F0
70F0
7078
ENDCHAR
STARTCHAR 0214
ENCODING 532
SWIDTH 720 0
DWIDTH 12 0
BBX 12 15 0 0
BITMAP
1A00
0B00
0000
7070
7070
7070
F070
E070
E070
E0F0
E0F0
E0E0
FFE0
FFE0
7FE0
ENDCHAR
STARTCHAR 0215
ENCODING 533
SWIDTH 720 0
DWIDTH 12 0
BBX 12 12 0 0
BITMAP
7C70
7470
7070
F070
E070
E070
E0F0
E0F0
E0E0
FFE0
FFE0
7FE0
ENDCHAR
STARTCHAR 0216
ENCODING 534
SWIDTH 720 0
DWIDTH 12 0
BBX 12 15 0 0
BITMAP
0F00
1900
0000
7070
7070
7070
F070
E070
E070
E0F0
E0F0
E0E0
FFE0
FFE0
7FE0
ENDCHAR
STARTCHAR 0217
ENCODING 535
SWIDTH 720 0
DWIDTH 12 0
BBX 12 12 0 0
BITMAP
7C70
7270
7070
F070
E070
E070
E0F0
E0F0
E0E0
FFE0
FFE0
7FE0
ENDCHAR
STARTCHAR 0218
ENCODING 536
SWIDTH 660 0
DWIDTH 11 0
BBX 12 16 0 -5
BITMAP
0FF0
7FE0
7FE0
F000
E000
FFC0
7FE0
3FE0
0060
FFE0
FFC0
FF80
0000
0C00
0C00
0400
ENDCHAR
STARTCHAR 0219
ENCODING 537
SWIDTH 660 0
DWIDTH 11 0
BBX 12 16 0 -5
BITMAP
0FF0
7FE0
7FE0
F000
E000
FFC0
7FE0
3FE0
0060
FFE0
FFC0
FF80
0000
1000
1000
1000
ENDCHAR
STARTCHAR 021A
ENCODING 538
SWIDTH 600 0
DWIDTH 10 0
BBX 10 16 0 -4
BITMAP
FFC0
0C00
0C00
0C00
0C00
0C00
0C00
0C00
0C00
0C00
0C00
0C00
0000
0C00
0400
0800
ENDCHAR
STARTCHAR 021B
ENCODING 539
SWIDTH 300 0
DWIDTH 5 0
BBX 5 16 0 -4
BITMAP
20
60
60
F0
60
60
60
60
60
60
60
38
00
30
10
20
ENDCHAR
STARTCHAR 021C
ENCODING 540
SWIDTH 540 0
DWIDTH 9 0
BBX 7 15 1 -3
BITMAP
7C
C6
02
02
02
06
0E
36
C2
02
06
04
18
30
C0
ENDCHAR
STARTCHAR 021D
ENCODING 541
SWIDTH 420 0
DWIDTH 7 0
BBX 6 12 1 -3
BITMAP
78
88
0C
0C
18
78
8C
0C
0C
18
70
80
ENDCHAR
STARTCHAR 021E
ENCODING 542
SWIDTH 720 0
DWIDTH 12 0
BBX 12 15 0 0
BITMAP
0B00
0600
0000
7070
7070
70F0
70F0
F0F0
FFF0
FFF0
FFE0
E0E0
E0E0
E0E0
E0E0
ENDCHAR
STARTCHAR 021F
ENCODING 543
SWIDTH 720 0
DWIDTH 12 0
BBX 12 15 0 0
BITMAP
3400
1800
0000
7070
7070
70F0
70F0
F0F0
FFF0
FFF0
FFE0
E0E0
E0E0
E0E0
E0E0
ENDCHAR
STARTCHAR 0220
ENCODING 544
SWIDTH 720 0
DWIDTH 12 0
BBX 10 15 1 -3
BITMAP
DF00
E180
C080
C0C0
C0C0
C0C0
C0C0
C0C0
C0C0
C0C0
C0C0
C0C0
00C0
00C0
00C0
ENDCHAR
STARTCHAR 0221
ENCODING 545
SWIDTH 720 0
DWIDTH 12 0
BBX 10 15 1 -3
BITMAP
0200
0200
0200
7A00
C600
8200
8200
8200
8200
8200
C600
3BC0
0640
0E40
09C0
ENDCHAR
STARTCHAR 0222
ENCODING 546
SWIDTH 600 0
DWIDTH 10 0
BBX 8 12 1 0
BITMAP
0E
73
C3
C3
43
3C
C3
C1
81
C1
C3
3E
ENDCHAR
STARTCHAR 0223
ENCODING 547
SWIDTH 600 0
DWIDTH 10 0
BBX 8 12 1 0
BITMAP
64
C6
C2
C2
46
3C
C6
C3
83
C3
C6
7C
ENDCHAR
STARTCHAR 0224
ENCODING 548
SWIDTH 600 0
DWIDTH 10 0
BBX 10 14 0 -2
BITMAP
7FC0
0180
0180
0300
0600
0C00
0C00
1800
3000
6000
6000
FF80
0040
0040
ENDCHAR
STARTCHAR 0225
ENCODING 549
SWIDTH 540 0
DWIDTH 9 0
BBX 8 11 0 -2
BITMAP
7F
02
04
08
18
30
20
60
FF
01
01
ENDCHAR
STARTCHAR 0226
ENCODING 550
SWIDTH 720 0
DWIDTH 12 0
BBX 12 15 0 0
BITMAP
0C00
0C00
0000
0FC0
3FE0
7FF0
7070
F070
F070
FFF0
FFF0
E0F0
E0E0
E0E0
E0E0
ENDCHAR
STARTCHAR 0227
ENCODING 551
SWIDTH 720 0
DWIDTH 12 0
BBX 12 12 0 0
BITMAP
1FC0
3FE0
7FF0
7070
F070
F070
FFF0
FFF0
E0F0
E0E0
E0E0
E0E0
ENDCHAR
STARTCHAR 0228
ENCODING 552
SWIDTH 660 0
DWIDTH 11 0
BBX 9 16 1 -4
BITMAP
FF80
C000
C000
C000
C000
FF80
C000
C000
C000
C000
C000
FF80
0800
0C00
0600
1C00
ENDCHAR
STARTCHAR 0229
ENCODING 553
SWIDTH 540 0
DWIDTH 9 0
BBX 8 13 1 -4
BITMAP
3C
46
C2
83
FF
80
C3
C6
3C
10
18
0C
38
ENDCHAR
STARTCHAR 022A
ENCODING 554
SWIDTH 780 0
DWIDTH 13 0
BBX 13 15 0 0
BITMAP
1E00
1200
1200
1FE0
3FF0
7FF0
7078
F078
E078
E078
E070
E070
FFF0
FFE0
7FE0
ENDCHAR
STARTCHAR 022B
ENCODING 555
SWIDTH 780 0
DWIDTH 13 0
BBX 13 16 0 0
BITMAP
1F00
3BC0
3AE0
0EE0
1FE0
3FF0
7FF0
7078
F078
E078
E078
E070
E070
FFF0
FFE0
7FE0
ENDCHAR
STARTCHAR 022C
ENCODING 556
SWIDTH 780 0
DWIDTH 13 0
BBX 13 19 0 0
BITMAP
07C0
0FC0
0F80
0730
1FE0
3FC0
3000
1FE0
3FF0
7FF0
7078
F078
E078
E078
E070
E070
FFF0
FFE0
7FE0
ENDCHAR
STARTCHAR 022D
ENCODING 557
SWIDTH 780 0
DWIDTH 13 0
BBX 13 19 0 0
BITMAP
07C0
0FC0
0F80
0760
0FC0
0FC0
1800
1FE0
3FF0
7FF0
7078
F078
E078
E078
E070
E070
FFF0
FFE0
7FE0
ENDCHAR
STARTCHAR 022E
ENCODING 558
SWIDTH 780 0
DWIDTH 13 0
BBX 13 15 0 0
BITMAP
0C00
0C00
0000
1FE0
3FF0
7FF0
7078
F078
E078
E078
E070
E070
FFF0
FFE0
7FE0
ENDCHAR
STARTCHAR 022F
ENCODING 559
SWIDTH 780 0
DWIDTH 13 0
BBX 13 12 0 0
BITMAP
3FE0
3FF0
7FF0
7078
F078
E078
E078
E070
E070
FFF0
FFE0
7FE0
ENDCHAR
STARTCHAR 0230
ENCODING 560
SWIDTH 780 0
DWIDTH 13 0
BBX 13 15 0 0
BITMAP
1E00
0800
0800
1FE0
3FF0
7FF0
7078
F078
E078
E078
E070
E070
FFF0
FFE0
7FE0
ENDCHAR
STARTCHAR 0231
ENCODING 561
SWIDTH 780 0
DWIDTH 13 0
BBX 13 16 0 0
BITMAP
1F00
3F00
3E00
0000
3FE0
3FF0
7FF0
7078
F078
E078
E078
E070
E070
FFF0
FFE0
7FE0
ENDCHAR
STARTCHAR 0232
ENCODING 562
SWIDTH 720 0
DWIDTH 12 0
BBX 12 15 0 0
BITMAP
0FC0
0FC0
1F80
7070
7070
F070
F070
F070
FFF0
7FF0
7FE0
00E0
FFE0
FFE0
FFC0
ENDCHAR
STARTCHAR 0233
ENCODING 563
SWIDTH 720 0
DWIDTH 12 0
BBX 12 12 0 0
BITMAP
7FF0
7F70
F070
F070
F070
FFF0
7FF0
7FE0
00E0
FFE0
FFE0
FFC0
ENDCHAR
STARTCHAR 0234
ENCODING 564
SWIDTH 360 0
DWIDTH 6 0
BBX 6 15 0 -3
BITMAP
60
60
60
60
60
60
60
60
60
60
60
78
6C
EC
B8
ENDCHAR
STARTCHAR 0235
ENCODING 565
SWIDTH 720 0
DWIDTH 12 0
BBX 11 12 1 -3
BITMAP
BC00
C600
C200
C200
C200
C200
C200
C200
C3C0
0660
0E60
09C0
ENDCHAR
STARTCHAR 0236
ENCODING 566
SWIDTH 360 0
DWIDTH 6 0
BBX 6 12 0 0
BITMAP
20
60
60
F0
60
60
60
60
7C
64
E4
BC
ENDCHAR
STARTCHAR 0237
ENCODING 567
SWIDTH 240 0
DWIDTH 4 0
BBX 4 12 -1 -3
BITMAP
30
30
30
30
30
30
30
30
30
30
20
E0
ENDCHAR
STARTCHAR 0238
ENCODING 568
SWIDTH 900 0
DWIDTH 15 0
BBX 13 12 1 0
BITMAP
0200
0200
0200
7AF0
C718
8208
8208
8208
8208
8218
C718
3AE0
ENDCHAR
STARTCHAR 0239
ENCODING 569
SWIDTH 900 0
DWIDTH 15 0
BBX 13 12 1 -3
BITMAP
7AF0
C718
8608
8208
8208
8208
8208
4718
3AE0
0200
0200
0200
ENDCHAR
STARTCHAR 023A
ENCODING 570
SWIDTH 660 0
DWIDTH 11 0
BBX 11 14 0 -1
BITMAP
0040
0E40
0A80
0B80
1B00
1300
1380
3580
3F80
68C0
7040
7060
E060
6000
ENDCHAR
STARTCHAR 023B
ENCODING 571
SWIDTH 720 0
DWIDTH 12 0
BBX 10 13 1 -1
BITMAP
1FC0
3180
41C0
C300
C200
C400
C400
C800
D800
5040
60C0
7F00
4000
ENDCHAR
STARTCHAR 023C
ENCODING 572
SWIDTH 540 0
DWIDTH 9 0
BBX 8 15 0 -3
BITMAP
01
03
02
1E
67
65
48
48
50
71
33
3E
60
40
C0
ENDCHAR
STARTCHAR 023D
ENCODING 573
SWIDTH 540 0
DWIDTH 9 0
BBX 9 12 0 0
BITMAP
6000
6000
6000
6000
6000
6000
FC00
6000
6000
6000
6000
7F80
ENDCHAR
STARTCHAR 023E
ENCODING 574
SWIDTH 600 0
DWIDTH 10 0
BBX 10 14 0 -1
BITMAP
00C0
FFC0
0D80
0D00
0E00
0E00
0C00
0C00
0C00
1C00
3C00
2C00
6C00
4000
ENDCHAR
STARTCHAR 023F
ENCODING 575
SWIDTH 540 0
DWIDTH 9 0
BBX 7 12 1 -3
BITMAP
78
8C
84
E0
7C
06
06
86
78
20
34
1C
ENDCHAR
STARTCHAR 0240
ENCODING 576
SWIDTH 540 0
DWIDTH 9 0
BBX 8 12 0 -3
BITMAP
7F
02
04
08
18
30
20
60
F0
18
0D
07
ENDCHAR
STARTCHAR 0241
ENCODING 577
SWIDTH 600 0
DWIDTH 10 0
BBX 9 12 0 0
BITMAP
3E00
6300
C180
0180
0080
0180
0180
0300
0E00
0800
0800
0800
ENDCHAR
STARTCHAR 0242
ENCODING 578
SWIDTH 480 0
DWIDTH 8 0
BBX 7 9 0 0
BITMAP
3C
46
C6
06
06
1C
10
10
10
ENDCHAR
STARTCHAR 0243
ENCODING 579
SWIDTH 660 0
DWIDTH 11 0
BBX 10 12 0 0
BITMAP
7F00
6080
60C0
60C0
6080
7F00
60C0
6040
FC40
6040
60C0
7F80
ENDCHAR
STARTCHAR 0244
ENCODING 580
SWIDTH 720 0
DWIDTH 12 0
BBX 12 12 0 0
BITMAP
6060
6060
6060
6060
6060
FFF0
6060
6060
6060
2060
30C0
0F80
ENDCHAR
STARTCHAR 0245
ENCODING 581
SWIDTH 660 0
DWIDTH 11 0
BBX 11 12 0 0
BITMAP
0600
0E00
0A00
1B00
1900
1180
3180
2080
60C0
6040
4060
C060
ENDCHAR
STARTCHAR 0246
ENCODING 582
SWIDTH 660 0
DWIDTH 11 0
BBX 9 14 1 -1
BITMAP
0080
FF80
C100
C300
C200
C600
C400
FF80
C800
D800
D000
F000
FF80
4000
ENDCHAR
STARTCHAR 0247
ENCODING 583
SWIDTH 540 0
DWIDTH 9 0
BBX 8 15 1 -3
BITMAP
03
02
06
3C
4E
CA
8B
FF
90
E3
E6
7C
40
C0
80
ENDCHAR
STARTCHAR 0248
ENCODING 584
SWIDTH 540 0
DWIDTH 9 0
BBX 8 12 0 0
BITMAP
02
02
02
02
02
02
0F
02
02
C2
46
3C
ENDCHAR
STARTCHAR 0249
ENCODING 585
SWIDTH 240 0
DWIDTH 4 0
BBX 5 15 -1 -3
BITMAP
30
00
00
30
30
30
30
78
30
30
30
30
30
20
E0
ENDCHAR
STARTCHAR 024A
ENCODING 586
SWIDTH 780 0
DWIDTH 13 0
BBX 12 15 1 -3
BITMAP
1FC0
30C0
60C0
C0C0
C0C0
C0C0
80C0
C0C0
C0C0
60C0
30C0
1FC0
00C0
0040
0070
ENDCHAR
STARTCHAR 024B
ENCODING 587
SWIDTH 540 0
DWIDTH 9 0
BBX 9 12 1 -3
BITMAP
7A00
C600
8600
8200
8200
8200
8200
4600
3A00
0200
0200
0380
ENDCHAR
STARTCHAR 024C
ENCODING 588
SWIDTH 720 0
DWIDTH 12 0
BBX 12 12 0 0
BITMAP
3FC0
2060
2060
2060
2060
2060
FF80
2180
20C0
20C0
2060
2030
ENDCHAR
STARTCHAR 024D
ENCODING 589
SWIDTH 360 0
DWIDTH 6 0
BBX 6 9 0 0
BITMAP
5C
60
60
60
F0
60
60
60
60
ENDCHAR
STARTCHAR 024E
ENCODING 590
SWIDTH 660 0
DWIDTH 11 0
BBX 11 12 0 0
BITMAP
C060
60C0
FFE0
1180
1B00
0E00
0600
0400
0400
0400
0400
0400
ENDCHAR
STARTCHAR 024F
ENCODING 591
SWIDTH 540 0
DWIDTH 9 0
BBX 8 12 0 -3
BITMAP
C1
43
62
FF
26
34
14
1C
18
18
10
60
ENDCHAR
STARTCHAR 0250
ENCODING 592
SWIDTH 540 0
DWIDTH 9 0
BBX 8 9 1 0
BITMAP
9E
E3
C3
C3
DE
F0
C3
C6
7C
ENDCHAR
STARTCHAR 0251
ENCODING 593
SWIDTH 540 0
DWIDTH 9 0
BBX 7 9 1 0
BITMAP
7A
C6
82
82
82
82
82
46
3A
ENDCHAR
STARTCHAR 0252
ENCODING 594
SWIDTH 540 0
DWIDTH 9 0
BBX 8 9 1 0
BITMAP
BC
E6
C2
C3
83
C3
C2
C6
FC
ENDCHAR
STARTCHAR 0253
ENCODING 595
SWIDTH 540 0
DWIDTH 9 0
BBX 8 12 1 0
BITMAP
70
C0
C0
FC
E6
C2
C3
83
C3
C2
C6
FC
ENDCHAR
STARTCHAR 0254
ENCODING 596
SWIDTH 540 0
DWIDTH 9 0
BBX 8 9 0 0
BITMAP
3C
46
C3
03
03
03
C3
46
3C
ENDCHAR
STARTCHAR 0255
ENCODING 597
SWIDTH 540 0
DWIDTH 9 0
BBX 7 10 1 -1
BITMAP
3C
C6
C2
80
80
9C
E2
46
BC
80
ENDCHAR
STARTCHAR 0256
ENCODING 598
SWIDTH 540 0
DWIDTH 9 0
BBX 9 15 1 -3
BITMAP
0200
0200
0200
7A00
C600
8200
8200
8200
8200
8200
C600
3A00
0200
0200
0380
ENDCHAR
STARTCHAR 0257
ENCODING 599
SWIDTH 540 0
DWIDTH 9 0
BBX 9 12 1 0
BITMAP
0380
0200
0200
7A00
C600
8200
8200
8200
8200
8200
C600
3A00
ENDCHAR
STARTCHAR 0258
ENCODING 600
SWIDTH 540 0
DWIDTH 9 0
BBX 8 9 1 0
BITMAP
3C
46
C2
83
FF
03
83
C6
7C
ENDCHAR
STARTCHAR 0259
ENCODING 601
SWIDTH 540 0
DWIDTH 9 0
BBX 8 9 1 0
BITMAP
7C
C6
83
03
FF
83
C2
46
3C
ENDCHAR
STARTCHAR 025A
ENCODING 602
SWIDTH 780 0
DWIDTH 13 0
BBX 12 9 1 0
BITMAP
7C00
C600
8200
1F80
E380
8370
C200
4600
3C00
ENDCHAR
STARTCHAR 025B
ENCODING 603
SWIDTH 480 0
DWIDTH 8 0
BBX 6 9 1 0
BITMAP
78
CC
84
C0
70
80
84
CC
78
ENDCHAR
STARTCHAR 025C
ENCODING 604
SWIDTH 720 0
DWIDTH 12 0
BBX 12 12 0 0
BITMAP
7FC0
7FE0
7FF0
0070
00F0
0FE0
0FE0
1FF0
00F0
FFE0
FFE0
FF80
ENDCHAR
STARTCHAR 025D
ENCODING 605
SWIDTH 660 0
DWIDTH 11 0
BBX 11 9 0 0
BITMAP
3C00
6600
4700
0720
1CE0
0600
C200
6600
3C00
ENDCHAR
STARTCHAR 025E
ENCODING 606
SWIDTH 540 0
DWIDTH 9 0
BBX 7 9 1 0
BITMAP
3C
C4
86
86
9C
86
82
C6
3C
ENDCHAR
STARTCHAR 025F
ENCODING 607
SWIDTH 300 0
DWIDTH 5 0
BBX 6 12 -1 -3
BITMAP
10
10
10
10
10
10
10
10
7C
10
10
F0
ENDCHAR
STARTCHAR 0260
ENCODING 608
SWIDTH 540 0
DWIDTH 9 0
BBX 10 15 1 -3
BITMAP
03C0
0200
0200
7A00
C600
8200
8200
8200
8200
8200
C600
7A00
0200
8600
7C00
ENDCHAR
STARTCHAR 0261
ENCODING 609
SWIDTH 720 0
DWIDTH 12 0
BBX 12 12 0 0
BITMAP
0FF0
3FF0
7FF0
7000
F000
E000
E070
E070
E070
FFF0
7FE0
7FE0
ENDCHAR
STARTCHAR 0262
ENCODING 610
SWIDTH 600 0
DWIDTH 10 0
BBX 7 9 1 0
BITMAP
3C
C6
C2
80
9E
82
82
42
3C
ENDCHAR
STARTCHAR 0263
ENCODING 611
SWIDTH 540 0
DWIDTH 9 0
BBX 8 12 0 -3
BITMAP
C3
43
62
26
34
1C
18
18
1C
1C
34
1C
ENDCHAR
STARTCHAR 0264
ENCODING 612
SWIDTH 600 0
DWIDTH 10 0
BBX 9 9 1 0
BITMAP
E780
B480
1C00
1800
1800
1800
1C00
3400
1C00
ENDCHAR
STARTCHAR 0265
ENCODING 613
SWIDTH 540 0
DWIDTH 9 0
BBX 7 12 1 -3
BITMAP
C2
C2
C2
C2
C2
C2
C2
C6
7A
02
02
02
ENDCHAR
STARTCHAR 0266
ENCODING 614
SWIDTH 540 0
DWIDTH 9 0
BBX 7 12 1 0
BITMAP
70
C0
C0
FC
C6
C2
C2
C2
C2
C2
C2
C2
ENDCHAR
STARTCHAR 0267
ENCODING 615
SWIDTH 540 0
DWIDTH 9 0
BBX 7 15 1 -3
BITMAP
70
C0
C0
FC
C6
C2
C2
C2
C2
C2
C2
C2
02
02
0E
ENDCHAR
STARTCHAR 0268
ENCODING 616
SWIDTH 240 0
DWIDTH 4 0
BBX 4 12 0 0
BITMAP
60
00
00
60
60
60
60
F0
60
60
60
60
ENDCHAR
STARTCHAR 0269
ENCODING 617
SWIDTH 240 0
DWIDTH 4 0
BBX 3 9 1 0
BITMAP
80
80
80
80
80
80
80
80
E0
ENDCHAR
STARTCHAR 026A
ENCODING 618
SWIDTH 360 0
DWIDTH 6 0
BBX 5 9 1 0
BITMAP
F8
60
60
60
60
60
60
60
F8
ENDCHAR
STARTCHAR 026B
ENCODING 619
SWIDTH 360 0
DWIDTH 6 0
BBX 6 12 0 0
BITMAP
30
30
30
30
30
7C
B8
30
30
30
30
30
ENDCHAR
STARTCHAR 026C
ENCODING 620
SWIDTH 300 0
DWIDTH 5 0
BBX 5 12 0 0
BITMAP
30
30
30
70
B0
B0
78
30
30
30
30
30
ENDCHAR
STARTCHAR 026D
ENCODING 621
SWIDTH 240 0
DWIDTH 4 0
BBX 3 15 1 -3
BITMAP
C0
C0
C0
C0
C0
C0
C0
C0
C0
C0
C0
C0
C0
C0
60
ENDCHAR
STARTCHAR 026E
ENCODING 622
SWIDTH 600 0
DWIDTH 10 0
BBX 8 15 1 -3
BITMAP
C0
C0
C0
FE
C6
CC
D8
DC
C6
C3
C1
C1
03
C6
7C
ENDCHAR
STARTCHAR 026F
ENCODING 623
SWIDTH 840 0
DWIDTH 14 0
BBX 12 9 1 0
BITMAP
C610
C610
C610
C610
C610
C610
C630
C630
7BD0
ENDCHAR
STARTCHAR 0270
ENCODING 624
SWIDTH 840 0
DWIDTH 14 0
BBX 12 12 1 -3
BITMAP
C610
C610
C610
C610
C610
C610
C630
C630
7BD0
0010
0010
0010
ENDCHAR
STARTCHAR 0271
ENCODING 625
SWIDTH 840 0
DWIDTH 14 0
BBX 12 12 1 -3
BITMAP
BDE0
C730
C610
C610
C610
C610
C610
C610
C610
0010
0030
0060
ENDCHAR
STARTCHAR 0272
ENCODING 626
SWIDTH 540 0
DWIDTH 9 0
BBX 9 12 -1 -3
BITMAP
3F00
3180
3080
3080
3080
3080
3080
3080
3080
3000
2000
E000
ENDCHAR
STARTCHAR 0273
ENCODING 627
SWIDTH 540 0
DWIDTH 9 0
BBX 9 12 1 -3
BITMAP
FC00
C600
C200
C200
C200
C200
C200
C200
C200
0200
0200
0180
ENDCHAR
STARTCHAR 0274
ENCODING 628
SWIDTH 540 0
DWIDTH 9 0
BBX 7 9 1 0
BITMAP
C2
E2
E2
D2
D2
CA
CA
C6
C6
ENDCHAR
STARTCHAR 0275
ENCODING 629
SWIDTH 540 0
DWIDTH 9 0
BBX 8 9 1 0
BITMAP
3C
C6
C3
83
FF
83
83
C6
3C
ENDCHAR
STARTCHAR 0276
ENCODING 630
SWIDTH 780 0
DWIDTH 13 0
BBX 12 9 1 0
BITMAP
3FF0
C700
8300
8300
83E0
8300
8300
C700
3BF0
ENDCHAR
STARTCHAR 0277
ENCODING 631
SWIDTH 780 0
DWIDTH 13 0
BBX 12 9 1 0
BITMAP
1F80
60C0
C060
8020
8430
8430
8620
CA60
71C0
ENDCHAR
STARTCHAR 0278
ENCODING 632
SWIDTH 540 0
DWIDTH 9 0
BBX 8 15 1 -3
BITMAP
10
10
10
7C
D6
92
93
93
93
92
D6
7C
10
10
10
ENDCHAR
STARTCHAR 0279
ENCODING 633
SWIDTH 360 0
DWIDTH 6 0
BBX 5 9 0 0
BITMAP
18
18
18
18
18
18
18
18
F8
ENDCHAR
STARTCHAR 027A
ENCODING 634
SWIDTH 360 0
DWIDTH 6 0
BBX 5 12 0 0
BITMAP
18
18
18
18
18
18
18
18
18
18
18
F8
ENDCHAR
STARTCHAR 027B
ENCODING 635
SWIDTH 360 0
DWIDTH 6 0
BBX 6 12 0 -3
BITMAP
18
18
18
18
18
18
18
18
F8
18
18
0C
ENDCHAR
STARTCHAR 027C
ENCODING 636
SWIDTH 360 0
DWIDTH 6 0
BBX 5 12 1 -3
BITMAP
B8
C0
C0
C0
C0
C0
C0
C0
C0
C0
C0
C0
ENDCHAR
STARTCHAR 027D
ENCODING 637
SWIDTH 360 0
DWIDTH 6 0
BBX 5 12 1 -3
BITMAP
B8
C0
C0
C0
C0
C0
C0
C0
C0
C0
C0
60
ENDCHAR
STARTCHAR 027E
ENCODING 638
SWIDTH 360 0
DWIDTH 6 0
BBX 5 9 1 0
BITMAP
78
40
C0
C0
C0
C0
C0
C0
C0
ENDCHAR
STARTCHAR 027F
ENCODING 639
SWIDTH 360 0
DWIDTH 6 0
BBX 5 12 0 -3
BITMAP
E0
10
10
18
18
18
18
18
18
18
18
18
ENDCHAR
STARTCHAR 0280
ENCODING 640
SWIDTH 540 0
DWIDTH 9 0
BBX 8 9 1 0
BITMAP
FC
C2
C2
C6
FC
CC
C4
C6
C3
ENDCHAR
STARTCHAR 0281
ENCODING 641
SWIDTH 540 0
DWIDTH 9 0
BBX 8 9 1 0
BITMAP
C3
C6
C4
CC
FC
C6
C2
C2
FC
ENDCHAR
STARTCHAR 0282
ENCODING 642
SWIDTH 540 0
DWIDTH 9 0
BBX 7 12 1 -3
BITMAP
78
CC
84
C0
78
06
86
C6
BC
80
80
E0
ENDCHAR
STARTCHAR 0283
ENCODING 643
SWIDTH 240 0
DWIDTH 4 0
BBX 6 15 -1 -3
BITMAP
1C
30
30
30
30
30
30
30
30
30
30
30
30
20
E0
ENDCHAR
STARTCHAR 0284
ENCODING 644
SWIDTH 240 0
DWIDTH 4 0
BBX 7 15 -1 -3
BITMAP
1E
10
10
10
10
10
10
10
10
10
10
7C
10
10
F0
ENDCHAR
STARTCHAR 0285
ENCODING 645
SWIDTH 240 0
DWIDTH 4 0
BBX 5 12 -1 -3
BITMAP
E0
30
30
30
30
30
30
30
30
30
30
18
ENDCHAR
STARTCHAR 0286
ENCODING 646
SWIDTH 360 0
DWIDTH 6 0
BBX 7 15 0 -3
BITMAP
0E
18
18
18
18
18
18
18
18
18
18
78
98
9C
74
ENDCHAR
STARTCHAR 0287
ENCODING 647
SWIDTH 300 0
DWIDTH 5 0
BBX 4 12 0 0
BITMAP
E0
20
20
20
20
20
20
20
F0
20
20
20
ENDCHAR
STARTCHAR 0288
ENCODING 648
SWIDTH 300 0
DWIDTH 5 0
BBX 5 15 0 -3
BITMAP
20
60
60
F0
60
60
60
60
60
60
60
60
60
60
38
ENDCHAR
STARTCHAR 0289
ENCODING 649
SWIDTH 540 0
DWIDTH 9 0
BBX 9 9 0 0
BITMAP
6100
6100
6100
6100
FF80
6100
6100
6300
3D00
ENDCHAR
STARTCHAR 028A
ENCODING 650
SWIDTH 600 0
DWIDTH 10 0
BBX 8 9 1 0
BITMAP
C3
46
42
C3
83
83
83
46
3C
ENDCHAR
STARTCHAR 028B
ENCODING 651
SWIDTH 540 0
DWIDTH 9 0
BBX 7 9 1 0
BITMAP
DC
C6
C2
C2
C2
C6
C6
C4
78
ENDCHAR
STARTCHAR 028C
ENCODING 652
SWIDTH 540 0
DWIDTH 9 0
BBX 8 9 0 0
BITMAP
18
1C
1C
34
26
26
62
43
C1
ENDCHAR
STARTCHAR 028D
ENCODING 653
SWIDTH 720 0
DWIDTH 12 0
BBX 12 9 0 0
BITMAP
10C0
28C0
2940
2960
6920
4720
4620
C630
C610
ENDCHAR
STARTCHAR 028E
ENCODING 654
SWIDTH 540 0
DWIDTH 9 0
BBX 8 12 0 0
BITMAP
04
0C
0C
18
18
1C
34
24
26
62
43
C1
ENDCHAR
STARTCHAR 028F
ENCODING 655
SWIDTH 540 0
DWIDTH 9 0
BBX 7 9 1 0
BITMAP
82
C6
4C
28
38
10
10
10
10
ENDCHAR
STARTCHAR 0290
ENCODING 656
SWIDTH 540 0
DWIDTH 9 0
BBX 10 12 0 -3
BITMAP
7F00
0200
0400
0800
1800
3000
2000
6000
FF00
0100
0100
01C0
ENDCHAR
STARTCHAR 0291
ENCODING 657
SWIDTH 540 0
DWIDTH 9 0
BBX 9 10 0 -1
BITMAP
7F00
0200
0400
0800
1800
3300
6580
6980
FF00
1000
ENDCHAR
STARTCHAR 0292
ENCODING 658
SWIDTH 540 0
DWIDTH 9 0
BBX 8 12 1 -3
BITMAP
FE
04
08
18
3C
06
03
03
83
C2
C6
3C
ENDCHAR
STARTCHAR 0293
ENCODING 659
SWIDTH 540 0
DWIDTH 9 0
BBX 8 12 1 -3
BITMAP
FE
04
08
18
3C
06
02
03
7B
CF
C6
7D
ENDCHAR
STARTCHAR 0294
ENCODING 660
SWIDTH 540 0
DWIDTH 9 0
BBX 8 12 0 0
BITMAP
3C
46
C3
03
03
03
03
06
1C
18
18
18
ENDCHAR
STARTCHAR 0295
ENCODING 661
SWIDTH 540 0
DWIDTH 9 0
BBX 7 12 1 0
BITMAP
3C
C6
C2
80
80
80
80
C0
70
10
10
10
ENDCHAR
STARTCHAR 0296
ENCODING 662
SWIDTH 540 0
DWIDTH 9 0
BBX 8 12 0 0
BITMAP
18
18
18
1C
06
03
03
03
03
C3
46
3C
ENDCHAR
STARTCHAR 0297
ENCODING 663
SWIDTH 540 0
DWIDTH 9 0
BBX 7 12 1 -3
BITMAP
3C
C6
82
80
80
80
80
80
80
82
C6
3C
ENDCHAR
STARTCHAR 0298
ENCODING 664
SWIDTH 780 0
DWIDTH 13 0
BBX 11 12 1 0
BITMAP
1F00
30C0
4060
C060
C020
C420
8020
C020
C060
4060
30C0
1F00
ENDCHAR
STARTCHAR 0299
ENCODING 665
SWIDTH 720 0
DWIDTH 12 0
BBX 12 12 0 0
BITMAP
7FC0
7FF0
7FF0
7070
F070
FFF0
FFF0
FFF0
F070
FFF0
FFF0
FFC0
ENDCHAR
STARTCHAR 029A
ENCODING 666
SWIDTH 540 0
DWIDTH 9 0
BBX 7 9 1 0
BITMAP
78
CC
86
C6
72
86
86
CC
78
ENDCHAR
STARTCHAR 029B
ENCODING 667
SWIDTH 600 0
DWIDTH 10 0
BBX 9 10 1 0
BITMAP
0380
3E00
C600
C200
8000
9E00
8200
8200
4600
3C00
ENDCHAR
STARTCHAR 029C
ENCODING 668
SWIDTH 720 0
DWIDTH 12 0
BBX 12 12 0 0
BITMAP
7070
7070
70F0
70F0
F0F0
FFF0
FFF0
FFE0
E0E0
E0E0
E0E0
E0E0
ENDCHAR
STARTCHAR 029D
ENCODING 669
SWIDTH 420 0
DWIDTH 7 0
BBX 7 15 0 -3
BITMAP
0C
00
00
0C
0C
0C
0C
0C
0C
0C
0C
7E
CC
C8
70
ENDCHAR
STARTCHAR 029E
ENCODING 670
SWIDTH 540 0
DWIDTH 9 0
BBX 7 12 0 -3
BITMAP
C2
62
32
36
1E
0E
1A
32
62
02
02
02
ENDCHAR
STARTCHAR 029F
ENCODING 671
SWIDTH 420 0
DWIDTH 7 0
BBX 5 9 1 0
BITMAP
C0
C0
C0
C0
C0
C0
C0
C0
F8
ENDCHAR
STARTCHAR 02A0
ENCODING 672
SWIDTH 540 0
DWIDTH 9 0
BBX 9 15 1 -3
BITMAP
0380
0200
0200
7A00
C600
8200
8200
8200
8200
8200
4600
3A00
0200
0200
0200
ENDCHAR
STARTCHAR 02A1
ENCODING 673
SWIDTH 540 0
DWIDTH 9 0
BBX 8 12 0 0
BITMAP
3C
46
C3
03
03
03
03
06
1C
18
FE
18
ENDCHAR
STARTCHAR 02A2
ENCODING 674
SWIDTH 540 0
DWIDTH 9 0
BBX 7 12 1 0
BITMAP
3C
C6
C2
80
80
80
80
C0
70
10
FE
10
ENDCHAR
STARTCHAR 02A3
ENCODING 675
SWIDTH 960 0
DWIDTH 16 0
BBX 15 12 1 0
BITMAP
0200
0200
0200
7BFE
C60C
820C
8218
8230
8260
82C0
C680
3BFE
ENDCHAR
STARTCHAR 02A4
ENCODING 676
SWIDTH 900 0
DWIDTH 15 0
BBX 14 15 1 -3
BITMAP
0200
0200
0200
7BF8
C610
8230
8260
8270
8218
820C
C60C
3A0C
000C
0318
01F0
ENDCHAR
STARTCHAR 02A5
ENCODING 677
SWIDTH 1020 0
DWIDTH 17 0
BBX 16 13 1 -1
BITMAP
0200
0200
0200
7BFE
C60C
820C
8218
8230
826E
82DB
C693
3BFE
0020
ENDCHAR
STARTCHAR 02A6
ENCODING 678
SWIDTH 720 0
DWIDTH 12 0
BBX 11 12 0 0
BITMAP
2000
6000
6000
FFC0
6C60
6C20
6400
6380
6060
6020
6020
3FC0
ENDCHAR
STARTCHAR 02A7
ENCODING 679
SWIDTH 420 0
DWIDTH 7 0
BBX 8 15 0 -3
BITMAP
27
64
64
FC
64
64
64
64
64
64
64
3C
04
04
18
ENDCHAR
STARTCHAR 02A8
ENCODING 680
SWIDTH 720 0
DWIDTH 12 0
BBX 12 12 0 0
BITMAP
2000
6000
6000
F3C0
6620
6430
6C00
6C00
6CE0
6530
6630
3BE0
ENDCHAR
STARTCHAR 02A9
ENCODING 681
SWIDTH 780 0
DWIDTH 13 0
BBX 12 15 0 -3
BITMAP
3800
2000
6000
FDE0
6630
6430
6430
6430
6430
6430
6430
6430
0030
0030
0060
ENDCHAR
STARTCHAR 02AA
ENCODING 682
SWIDTH 660 0
DWIDTH 11 0
BBX 10 12 1 0
BITMAP
C000
C000
C000
CF00
D180
D080
D800
CF00
C080
C0C0
E180
FF00
ENDCHAR
STARTCHAR 02AB
ENCODING 683
SWIDTH 660 0
DWIDTH 11 0
BBX 9 12 1 0
BITMAP
C000
C000
C000
FF80
C180
C300
C600
CC00
C800
D800
F000
FF80
ENDCHAR
STARTCHAR 02AC
ENCODING 684
SWIDTH 480 0
DWIDTH 8 0
BBX 8 12 0 0
BITMAP
89
59
5A
56
66
26
89
59
5A
56
66
26
ENDCHAR
STARTCHAR 02AD
ENCODING 685
SWIDTH 540 0
DWIDTH 9 0
BBX 7 12 1 0
BITMAP
FE
82
82
82
00
00
00
00
FE
82
82
82
ENDCHAR
STARTCHAR 02AE
ENCODING 686
SWIDTH 720 0
DWIDTH 12 0
BBX 11 12 0 -3
BITMAP
F060
1060
1860
1860
1860
1860
1860
08E0
0760
0060
0060
0060
ENDCHAR
STARTCHAR 02AF
ENCODING 687
SWIDTH 720 0
DWIDTH 12 0
BBX 14 12 0 -3
BITMAP
F060
1060
1860
1860
1860
1860
1860
08E0
0760
0060
0060
003C
ENDCHAR
STARTCHAR 02B0
ENCODING 688
SWIDTH 420 0
DWIDTH 7 0
BBX 5 8 1 4
BITMAP
80
80
F0
98
88
88
88
88
ENDCHAR
STARTCHAR 02B1
ENCODING 689
SWIDTH 420 0
DWIDTH 7 0
BBX 5 8 1 4
BITMAP
C0
80
F0
98
88
88
88
88
ENDCHAR
STARTCHAR 02B2
ENCODING 690
SWIDTH 180 0
DWIDTH 3 0
BBX 2 10 0 2
BITMAP
40
00
40
40
40
40
40
40
40
C0
ENDCHAR
STARTCHAR 02B3
ENCODING 691
SWIDTH 240 0
DWIDTH 4 0
BBX 3 6 1 4
BITMAP
E0
80
80
80
80
80
ENDCHAR
STARTCHAR 02B4
ENCODING 692
SWIDTH 240 0
DWIDTH 4 0
BBX 3 6 0 4
BITMAP
20
20
20
20
20
E0
ENDCHAR
STARTCHAR 02B5
ENCODING 693
SWIDTH 240 0
DWIDTH 4 0
BBX 4 8 0 2
BITMAP
20
20
20
20
20
E0
20
10
ENDCHAR
STARTCHAR 02B6
ENCODING 694
SWIDTH 360 0
DWIDTH 6 0
BBX 5 6 1 4
BITMAP
98
90
F0
88
88
F0
ENDCHAR
STARTCHAR 02B7
ENCODING 695
SWIDTH 480 0
DWIDTH 8 0
BBX 8 6 0 4
BITMAP
99
D9
5A
76
66
24
ENDCHAR
STARTCHAR 02B8
ENCODING 696
SWIDTH 300 0
DWIDTH 5 0
BBX 5 8 0 2
BITMAP
88
48
50
50
30
20
20
C0
ENDCHAR
STARTCHAR 02B9
ENCODING 697
SWIDTH 180 0
DWIDTH 3 0
BBX 3 4 0 8
BITMAP
60
E0
E0
E0
ENDCHAR
STARTCHAR 02BA
ENCODING 698
SWIDTH 360 0
DWIDTH 6 0
BBX 6 4 0 8
BITMAP
78
7C
F8
F8
ENDCHAR
STARTCHAR 02BB
ENCODING 699
SWIDTH 240 0
DWIDTH 4 0
BBX 2 3 1 9
BITMAP
40
80
C0
ENDCHAR
STARTCHAR 02BC
ENCODING 700
SWIDTH 240 0
DWIDTH 4 0
BBX 2 3 1 9
BITMAP
C0
40
80
ENDCHAR
STARTCHAR 02BD
ENCODING 701
SWIDTH 240 0
DWIDTH 4 0
BBX 2 3 1 9
BITMAP
C0
80
40
ENDCHAR
STARTCHAR 02BE
ENCODING 702
SWIDTH 360 0
DWIDTH 6 0
BBX 2 3 2 10
BITMAP
80
40
80
ENDCHAR
STARTCHAR 02BF
ENCODING 703
SWIDTH 360 0
DWIDTH 6 0
BBX 2 3 2 10
BITMAP
C0
80
C0
ENDCHAR
STARTCHAR 02C0
ENCODING 704
SWIDTH 360 0
DWIDTH 6 0
BBX 4 8 1 4
BITMAP
E0
90
10
10
10
70
40
40
ENDCHAR
STARTCHAR 02C1
ENCODING 705
SWIDTH 360 0
DWIDTH 6 0
BBX 5 8 0 4
BITMAP
78
48
80
80
40
70
10
10
ENDCHAR
STARTCHAR 02C2
ENCODING 706
SWIDTH 540 0
DWIDTH 9 0
BBX 9 11 0 1
BITMAP
0180
0F00
3F00
FE00
F000
F000
7C00
1F00
0F00
0300
0100
ENDCHAR
STARTCHAR 02C3
ENCODING 707
SWIDTH 540 0
DWIDTH 9 0
BBX 9 11 0 1
BITMAP
4000
7000
7800
3C00
1E00
0F80
0F80
7F80
FF00
F000
8000
ENDCHAR
STARTCHAR 02C4
ENCODING 708
SWIDTH 600 0
DWIDTH 10 0
BBX 8 8 1 2
BITMAP
18
18
24
24
66
42
C2
C3
ENDCHAR
STARTCHAR 02C5
ENCODING 709
SWIDTH 600 0
DWIDTH 10 0
BBX 8 8 1 2
BITMAP
C3
C2
42
66
24
24
18
18
ENDCHAR
STARTCHAR 02C6
ENCODING 710
SWIDTH 600 0
DWIDTH 10 0
BBX 6 4 2 10
BITMAP
30
38
68
CC
ENDCHAR
STARTCHAR 02C7
ENCODING 711
SWIDTH 360 0
DWIDTH 6 0
BBX 4 2 1 10
BITMAP
F0
60
ENDCHAR
STARTCHAR 02C8
ENCODING 712
SWIDTH 360 0
DWIDTH 6 0
BBX 1 3 2 10
BITMAP
80
80
80
ENDCHAR
STARTCHAR 02C9
ENCODING 713
SWIDTH 480 0
DWIDTH 8 0
BBX 6 2 2 10
BITMAP
FC
F8
ENDCHAR
STARTCHAR 02CA
ENCODING 714
SWIDTH 360 0
DWIDTH 6 0
BBX 2 2 2 10
BITMAP
40
C0
ENDCHAR
STARTCHAR 02CB
ENCODING 715
SWIDTH 360 0
DWIDTH 6 0
BBX 3 2 1 10
BITMAP
C0
60
ENDCHAR
STARTCHAR 02CC
ENCODING 716
SWIDTH 360 0
DWIDTH 6 0
BBX 1 2 2 -3
BITMAP
80
80
ENDCHAR
STARTCHAR 02CD
ENCODING 717
SWIDTH 360 0
DWIDTH 6 0
BBX 5 1 0 -2
BITMAP
F8
ENDCHAR
STARTCHAR 02CE
ENCODING 718
SWIDTH 360 0
DWIDTH 6 0
BBX 3 2 1 -3
BITMAP
C0
60
ENDCHAR
STARTCHAR 02CF
ENCODING 719
SWIDTH 360 0
DWIDTH 6 0
BBX 2 2 2 -3
BITMAP
40
C0
ENDCHAR
STARTCHAR 02D0
ENCODING 720
SWIDTH 300 0
DWIDTH 5 0
BBX 1 9 2 0
BITMAP
80
00
00
00
00
00
00
00
80
ENDCHAR
STARTCHAR 02D1
ENCODING 721
SWIDTH 300 0
DWIDTH 5 0
BBX 1 1 2 8
BITMAP
80
ENDCHAR
STARTCHAR 02D2
ENCODING 722
SWIDTH 360 0
DWIDTH 6 0
BBX 2 3 2 1
BITMAP
80
40
80
ENDCHAR
STARTCHAR 02D3
ENCODING 723
SWIDTH 360 0
DWIDTH 6 0
BBX 2 3 2 1
BITMAP
C0
80
C0
ENDCHAR
STARTCHAR 02D4
ENCODING 724
SWIDTH 360 0
DWIDTH 6 0
BBX 3 3 1 1
BITMAP
40
40
E0
ENDCHAR
STARTCHAR 02D5
ENCODING 725
SWIDTH 360 0
DWIDTH 6 0
BBX 3 3 1 1
BITMAP
E0
40
40
ENDCHAR
STARTCHAR 02D6
ENCODING 726
SWIDTH 360 0
DWIDTH 6 0
BBX 3 3 1 1
BITMAP
40
E0
40
ENDCHAR
STARTCHAR 02D7
ENCODING 727
SWIDTH 360 0
DWIDTH 6 0
BBX 5 1 0 2
BITMAP
F8
ENDCHAR
STARTCHAR 02D8
ENCODING 728
SWIDTH 360 0
DWIDTH 6 0
BBX 5 2 0 10
BITMAP
C8
78
ENDCHAR
STARTCHAR 02D9
ENCODING 729
SWIDTH 360 0
DWIDTH 6 0
BBX 2 1 2 11
BITMAP
C0
ENDCHAR
STARTCHAR 02DA
ENCODING 730
SWIDTH 720 0
DWIDTH 12 0
BBX 3 3 5 12
BITMAP
60
A0
E0
ENDCHAR
STARTCHAR 02DB
ENCODING 731
SWIDTH 360 0
DWIDTH 6 0
BBX 2 3 1 -3
BITMAP
80
80
C0
ENDCHAR
STARTCHAR 02DC
ENCODING 732
SWIDTH 840 0
DWIDTH 14 0
BBX 8 4 3 12
BITMAP
3B
7E
7C
C0
ENDCHAR
STARTCHAR 02DD
ENCODING 733
SWIDTH 360 0
DWIDTH 6 0
BBX 5 2 1 10
BITMAP
D8
90
ENDCHAR
STARTCHAR 02DE
ENCODING 734
SWIDTH 360 0
DWIDTH 6 0
BBX 4 4 0 3
BITMAP
C0
40
40
70
ENDCHAR
STARTCHAR 02DF
ENCODING 735
SWIDTH 360 0
DWIDTH 6 0
BBX 5 6 0 6
BITMAP
88
58
30
30
58
88
ENDCHAR
STARTCHAR 02E0
ENCODING 736
SWIDTH 300 0
DWIDTH 5 0
BBX 5 8 0 2
BITMAP
88
48
50
30
20
30
50
30
ENDCHAR
STARTCHAR 02E1
ENCODING 737
SWIDTH 180 0
DWIDTH 3 0
BBX 1 8 1 4
BITMAP
80
80
80
80
80
80
80
80
ENDCHAR
STARTCHAR 02E2
ENCODING 738
SWIDTH 360 0
DWIDTH 6 0
BBX 4 6 1 4
BITMAP
F0
90
E0
30
90
F0
ENDCHAR
STARTCHAR 02E3
ENCODING 739
SWIDTH 360 0
DWIDTH 6 0
BBX 5 6 0 4
BITMAP
48
50
30
30
58
C8
ENDCHAR
STARTCHAR 02E4
ENCODING 740
SWIDTH 360 0
DWIDTH 6 0
BBX 5 8 0 4
BITMAP
78
48
80
80
40
30
10
10
ENDCHAR
STARTCHAR 02E5
ENCODING 741
SWIDTH 420 0
DWIDTH 7 0
BBX 4 12 1 0
BITMAP
F0
10
10
10
10
10
10
10
10
10
10
10
ENDCHAR
STARTCHAR 02E6
ENCODING 742
SWIDTH 420 0
DWIDTH 7 0
BBX 4 12 1 0
BITMAP
10
10
10
F0
10
10
10
10
10
10
10
10
ENDCHAR
STARTCHAR 02E7
ENCODING 743
SWIDTH 420 0
DWIDTH 7 0
BBX 4 12 1 0
BITMAP
10
10
10
10
10
10
F0
10
10
10
10
10
ENDCHAR
STARTCHAR 02E8
ENCODING 744
SWIDTH 420 0
DWIDTH 7 0
BBX 4 12 1 0
BITMAP
10
10
10
10
10
10
10
10
F0
10
10
10
ENDCHAR
STARTCHAR 02E9
ENCODING 745
SWIDTH 420 0
DWIDTH 7 0
BBX 4 12 1 0
BITMAP
10
10
10
10
10
10
10
10
10
10
10
F0
ENDCHAR
STARTCHAR 02EA
ENCODING 746
SWIDTH 360 0
DWIDTH 6 0
BBX 4 7 1 0
BITMAP
80
80
80
80
80
80
F0
ENDCHAR
STARTCHAR 02EB
ENCODING 747
SWIDTH 360 0
DWIDTH 6 0
BBX 4 7 1 0
BITMAP
80
80
80
F0
80
80
80
ENDCHAR
STARTCHAR 02EC
ENCODING 748
SWIDTH 360 0
DWIDTH 6 0
BBX 4 2 1 -3
BITMAP
F0
60
ENDCHAR
STARTCHAR 02ED
ENCODING 749
SWIDTH 360 0
DWIDTH 6 0
BBX 5 3 0 10
BITMAP
F8
00
F8
ENDCHAR
STARTCHAR 02EE
ENCODING 750
SWIDTH 360 0
DWIDTH 6 0
BBX 6 4 0 8
BITMAP
78
7C
F8
F8
ENDCHAR
STARTCHAR 02EF
ENCODING 751
SWIDTH 360 0
DWIDTH 6 0
BBX 3 2 1 -3
BITMAP
A0
40
ENDCHAR
STARTCHAR 02F0
ENCODING 752
SWIDTH 360 0
DWIDTH 6 0
BBX 3 2 1 -3
BITMAP
40
A0
ENDCHAR
STARTCHAR 02F1
ENCODING 753
SWIDTH 360 0
DWIDTH 6 0
BBX 2 3 2 -3
BITMAP
40
80
40
ENDCHAR
STARTCHAR 02F2
ENCODING 754
SWIDTH 360 0
DWIDTH 6 0
BBX 2 3 2 -3
BITMAP
80
40
80
ENDCHAR
STARTCHAR 02F3
ENCODING 755
SWIDTH 360 0
DWIDTH 6 0
BBX 3 3 1 -4
BITMAP
60
A0
60
ENDCHAR
STARTCHAR 02F4
ENCODING 756
SWIDTH 360 0
DWIDTH 6 0
BBX 3 2 1 1
BITMAP
C0
60
ENDCHAR
STARTCHAR 02F5
ENCODING 757
SWIDTH 360 0
DWIDTH 6 0
BBX 5 2 0 1
BITMAP
D0
48
ENDCHAR
STARTCHAR 02F6
ENCODING 758
SWIDTH 360 0
DWIDTH 6 0
BBX 5 2 1 1
BITMAP
D8
90
ENDCHAR
STARTCHAR 02F7
ENCODING 759
SWIDTH 360 0
DWIDTH 6 0
BBX 6 2 0 -3
BITMAP
6C
98
ENDCHAR
STARTCHAR 02F8
ENCODING 760
SWIDTH 300 0
DWIDTH 5 0
BBX 1 9 2 3
BITMAP
80
00
00
00
00
00
00
00
80
ENDCHAR
STARTCHAR 02F9
ENCODING 761
SWIDTH 360 0
DWIDTH 6 0
BBX 3 3 1 9
BITMAP
E0
80
80
ENDCHAR
STARTCHAR 02FA
ENCODING 762
SWIDTH 360 0
DWIDTH 6 0
BBX 3 3 1 9
BITMAP
E0
20
20
ENDCHAR
STARTCHAR 02FB
ENCODING 763
SWIDTH 360 0
DWIDTH 6 0
BBX 3 3 1 -4
BITMAP
80
80
E0
ENDCHAR
STARTCHAR 02FC
ENCODING 764
SWIDTH 360 0
DWIDTH 6 0
BBX 3 3 1 -4
BITMAP
20
20
E0
ENDCHAR
STARTCHAR 02FD
ENCODING 765
SWIDTH 420 0
DWIDTH 7 0
BBX 7 3 0 -3
BITMAP
C6
C6
FE
ENDCHAR
STARTCHAR 02FE
ENCODING 766
SWIDTH 420 0
DWIDTH 7 0
BBX 7 3 0 -3
BITMAP
C0
C0
FE
ENDCHAR
STARTCHAR 02FF
ENCODING 767
SWIDTH 360 0
DWIDTH 6 0
BBX 5 5 0 -4
BITMAP
20
40
F8
40
20
ENDCHAR
STARTCHAR 0300
ENCODING 768
SWIDTH 0 0
DWIDTH 0 0
BBX 2 2 -4 13
BITMAP
C0
40
ENDCHAR
STARTCHAR 0301
ENCODING 769
SWIDTH 0 0
DWIDTH 0 0
BBX 2 2 -3 13
BITMAP
40
C0
ENDCHAR
STARTCHAR 0302
ENCODING 770
SWIDTH 0 0
DWIDTH 0 0
BBX 4 2 -2 10
BITMAP
60
F0
ENDCHAR
STARTCHAR 0303
ENCODING 771
SWIDTH 0 0
DWIDTH 0 0
BBX 6 2 -8 13
BITMAP
64
DC
ENDCHAR
STARTCHAR 0304
ENCODING 772
SWIDTH 0 0
DWIDTH 0 0
BBX 6 1 -3 10
BITMAP
FC
ENDCHAR
STARTCHAR 0305
ENCODING 773
SWIDTH 0 0
DWIDTH 0 0
BBX 10 1 -5 13
BITMAP
FFC0
ENDCHAR
STARTCHAR 0306
ENCODING 774
SWIDTH 0 0
DWIDTH 0 0
BBX 4 2 -2 10
BITMAP
90
F0
ENDCHAR
STARTCHAR 0307
ENCODING 775
SWIDTH 0 0
DWIDTH 0 0
BBX 2 1 -1 10
BITMAP
C0
ENDCHAR
STARTCHAR 0308
ENCODING 776
SWIDTH 0 0
DWIDTH 0 0
BBX 4 1 -2 10
BITMAP
90
ENDCHAR
STARTCHAR 0309
ENCODING 777
SWIDTH 0 0
DWIDTH 0 0
BBX 4 2 -4 13
BITMAP
F0
40
ENDCHAR
STARTCHAR 030A
ENCODING 778
SWIDTH 0 0
DWIDTH 0 0
BBX 3 3 -2 12
BITMAP
60
A0
60
ENDCHAR
STARTCHAR 030B
ENCODING 779
SWIDTH 0 0
DWIDTH 0 0
BBX 6 2 -3 10
BITMAP
6C
D8
ENDCHAR
STARTCHAR 030C
ENCODING 780
SWIDTH 0 0
DWIDTH 0 0
BBX 4 2 -2 10
BITMAP
F0
60
ENDCHAR
STARTCHAR 030D
ENCODING 781
SWIDTH 0 0
DWIDTH 0 0
BBX 1 3 0 10
BITMAP
80
80
80
ENDCHAR
STARTCHAR 030E
ENCODING 782
SWIDTH 0 0
DWIDTH 0 0
BBX 2 3 -1 10
BITMAP
C0
C0
C0
ENDCHAR
STARTCHAR 030F
ENCODING 783
SWIDTH 0 0
DWIDTH 0 0
BBX 5 2 -2 10
BITMAP
B0
D8
ENDCHAR
STARTCHAR 0310
ENCODING 784
SWIDTH 0 0
DWIDTH 0 0
BBX 4 3 -2 10
BITMAP
60
90
F0
ENDCHAR
STARTCHAR 0311
ENCODING 785
SWIDTH 0 0
DWIDTH 0 0
BBX 4 2 -2 10
BITMAP
F0
90
ENDCHAR
STARTCHAR 0312
ENCODING 786
SWIDTH 0 0
DWIDTH 0 0
BBX 2 3 -1 9
BITMAP
40
80
C0
ENDCHAR
STARTCHAR 0313
ENCODING 787
SWIDTH 0 0
DWIDTH 0 0
BBX 2 3 -1 9
BITMAP
C0
40
80
ENDCHAR
STARTCHAR 0314
ENCODING 788
SWIDTH 0 0
DWIDTH 0 0
BBX 2 3 -1 9
BITMAP
C0
80
40
ENDCHAR
STARTCHAR 0315
ENCODING 789
SWIDTH 0 0
DWIDTH 0 0
BBX 2 3 0 9
BITMAP
C0
40
80
ENDCHAR
STARTCHAR 0316
ENCODING 790
SWIDTH 0 0
DWIDTH 0 0
BBX 2 2 -1 -3
BITMAP
C0
40
ENDCHAR
STARTCHAR 0317
ENCODING 791
SWIDTH 0 0
DWIDTH 0 0
BBX 2 2 -1 -3
BITMAP
C0
80
ENDCHAR
STARTCHAR 0318
ENCODING 792
SWIDTH 0 0
DWIDTH 0 0
BBX 3 3 -2 -4
BITMAP
20
E0
20
ENDCHAR
STARTCHAR 0319
ENCODING 793
SWIDTH 0 0
DWIDTH 0 0
BBX 3 3 -1 -4
BITMAP
80
E0
80
ENDCHAR
STARTCHAR 031A
ENCODING 794
SWIDTH 0 0
DWIDTH 0 0
BBX 6 4 -3 10
BITMAP
FC
04
04
04
ENDCHAR
STARTCHAR 031B
ENCODING 795
SWIDTH 0 0
DWIDTH 0 0
BBX 2 3 0 9
BITMAP
40
40
C0
ENDCHAR
STARTCHAR 031C
ENCODING 796
SWIDTH 0 0
DWIDTH 0 0
BBX 2 3 -1 -4
BITMAP
40
80
40
ENDCHAR
STARTCHAR 031D
ENCODING 797
SWIDTH 0 0
DWIDTH 0 0
BBX 2 3 -1 -4
BITMAP
80
80
C0
ENDCHAR
STARTCHAR 031E
ENCODING 798
SWIDTH 0 0
DWIDTH 0 0
BBX 2 3 -1 -4
BITMAP
C0
80
80
ENDCHAR
STARTCHAR 031F
ENCODING 799
SWIDTH 0 0
DWIDTH 0 0
BBX 2 3 -1 -4
BITMAP
80
C0
80
ENDCHAR
STARTCHAR 0320
ENCODING 800
SWIDTH 0 0
DWIDTH 0 0
BBX 6 1 -3 -2
BITMAP
FC
ENDCHAR
STARTCHAR 0321
ENCODING 801
SWIDTH 0 0
DWIDTH 0 0
BBX 4 4 -2 -3
BITMAP
30
20
20
E0
ENDCHAR
STARTCHAR 0322
ENCODING 802
SWIDTH 0 0
DWIDTH 0 0
BBX 3 4 0 -3
BITMAP
C0
C0
C0
60
ENDCHAR
STARTCHAR 0323
ENCODING 803
SWIDTH 0 0
DWIDTH 0 0
BBX 2 2 -7 -3
BITMAP
C0
C0
ENDCHAR
STARTCHAR 0324
ENCODING 804
SWIDTH 0 0
DWIDTH 0 0
BBX 4 1 -2 -3
BITMAP
90
ENDCHAR
STARTCHAR 0325
ENCODING 805
SWIDTH 0 0
DWIDTH 0 0
BBX 4 3 -2 -4
BITMAP
60
90
60
ENDCHAR
STARTCHAR 0326
ENCODING 806
SWIDTH 0 0
DWIDTH 0 0
BBX 2 2 -1 -3
BITMAP
C0
C0
ENDCHAR
STARTCHAR 0327
ENCODING 807
SWIDTH 0 0
DWIDTH 0 0
BBX 4 4 -2 -4
BITMAP
60
70
30
E0
ENDCHAR
STARTCHAR 0328
ENCODING 808
SWIDTH 0 0
DWIDTH 0 0
BBX 2 3 -1 -3
BITMAP
80
80
C0
ENDCHAR
STARTCHAR 0329
ENCODING 809
SWIDTH 0 0
DWIDTH 0 0
BBX 1 2 0 -3
BITMAP
80
80
ENDCHAR
STARTCHAR 032A
ENCODING 810
SWIDTH 0 0
DWIDTH 0 0
BBX 6 3 -3 -3
BITMAP
FC
84
84
ENDCHAR
STARTCHAR 032B
ENCODING 811
SWIDTH 0 0
DWIDTH 0 0
BBX 6 2 -3 -3
BITMAP
A4
78
ENDCHAR
STARTCHAR 032C
ENCODING 812
SWIDTH 0 0
DWIDTH 0 0
BBX 4 2 -2 -3
BITMAP
F0
60
ENDCHAR
STARTCHAR 032D
ENCODING 813
SWIDTH 0 0
DWIDTH 0 0
BBX 4 2 -2 -3
BITMAP
60
F0
ENDCHAR
STARTCHAR 032E
ENCODING 814
SWIDTH 0 0
DWIDTH 0 0
BBX 4 2 -2 -3
BITMAP
90
F0
ENDCHAR
STARTCHAR 032F
ENCODING 815
SWIDTH 0 0
DWIDTH 0 0
BBX 4 2 -2 -3
BITMAP
F0
90
ENDCHAR
STARTCHAR 0330
ENCODING 816
SWIDTH 0 0
DWIDTH 0 0
BBX 6 2 -3 -3
BITMAP
64
98
ENDCHAR
STARTCHAR 0331
ENCODING 817
SWIDTH 0 0
DWIDTH 0 0
BBX 6 1 -3 -2
BITMAP
FC
ENDCHAR
STARTCHAR 0332
ENCODING 818
SWIDTH 0 0
DWIDTH 0 0
BBX 10 1 -5 -3
BITMAP
FFC0
ENDCHAR
STARTCHAR 0333
ENCODING 819
SWIDTH 0 0
DWIDTH 0 0
BBX 6 3 -3 -4
BITMAP
FC
00
FC
ENDCHAR
STARTCHAR 0334
ENCODING 820
SWIDTH 0 0
DWIDTH 0 0
BBX 6 2 -3 2
BITMAP
64
98
ENDCHAR
STARTCHAR 0335
ENCODING 821
SWIDTH 0 0
DWIDTH 0 0
BBX 6 1 -3 2
BITMAP
FC
ENDCHAR
STARTCHAR 0336
ENCODING 822
SWIDTH 0 0
DWIDTH 0 0
BBX 10 1 -5 2
BITMAP
FFC0
ENDCHAR
STARTCHAR 0337
ENCODING 823
SWIDTH 0 0
DWIDTH 0 0
BBX 8 8 -4 0
BITMAP
01
02
04
08
10
20
40
80
ENDCHAR
STARTCHAR 0338
ENCODING 824
SWIDTH 0 0
DWIDTH 0 0
BBX 4 12 -2 0
BITMAP
10
10
30
20
20
20
40
40
40
C0
80
80
ENDCHAR
STARTCHAR 0339
ENCODING 825
SWIDTH 0 0
DWIDTH 0 0
BBX 2 3 -1 -4
BITMAP
80
40
80
ENDCHAR
STARTCHAR 033A
ENCODING 826
SWIDTH 0 0
DWIDTH 0 0
BBX 6 3 -3 -3
BITMAP
84
84
FC
ENDCHAR
STARTCHAR 033B
ENCODING 827
SWIDTH 0 0
DWIDTH 0 0
BBX 4 3 -2 -4
BITMAP
F0
90
F0
ENDCHAR
STARTCHAR 033C
ENCODING 828
SWIDTH 0 0
DWIDTH 0 0
BBX 6 2 -3 -3
BITMAP
78
A4
ENDCHAR
STARTCHAR 033D
ENCODING 829
SWIDTH 0 0
DWIDTH 0 0
BBX 4 4 -2 10
BITMAP
90
60
60
90
ENDCHAR
STARTCHAR 033E
ENCODING 830
SWIDTH 0 0
DWIDTH 0 0
BBX 2 4 -1 10
BITMAP
C0
80
40
C0
ENDCHAR
STARTCHAR 033F
ENCODING 831
SWIDTH 0 0
DWIDTH 0 0
BBX 10 3 -5 12
BITMAP
FFC0
0000
FFC0
ENDCHAR
STARTCHAR 0340
ENCODING 832
SWIDTH 0 0
DWIDTH 0 0
BBX 3 2 -3 10
BITMAP
C0
60
ENDCHAR
STARTCHAR 0341
ENCODING 833
SWIDTH 0 0
DWIDTH 0 0
BBX 3 2 0 10
BITMAP
60
C0
ENDCHAR
STARTCHAR 0342
ENCODING 834
SWIDTH 0 0
DWIDTH 0 0
BBX 6 2 -3 10
BITMAP
64
98
ENDCHAR
STARTCHAR 0343
ENCODING 835
SWIDTH 0 0
DWIDTH 0 0
BBX 2 3 -1 9
BITMAP
C0
40
80
ENDCHAR
STARTCHAR 0344
ENCODING 836
SWIDTH 0 0
DWIDTH 0 0
BBX 6 2 -3 10
BITMAP
10
A4
ENDCHAR
STARTCHAR 0345
ENCODING 837
SWIDTH 0 0
DWIDTH 0 0
BBX 2 2 -1 -3
BITMAP
C0
C0
ENDCHAR
STARTCHAR 0346
ENCODING 838
SWIDTH 0 0
DWIDTH 0 0
BBX 6 3 -3 10
BITMAP
FC
84
84
ENDCHAR
STARTCHAR 0347
ENCODING 839
SWIDTH 0 0
DWIDTH 0 0
BBX 8 3 -4 -4
BITMAP
FF
00
FF
ENDCHAR
STARTCHAR 0348
ENCODING 840
SWIDTH 0 0
DWIDTH 0 0
BBX 2 2 -1 -3
BITMAP
C0
C0
ENDCHAR
STARTCHAR 0349
ENCODING 841
SWIDTH 0 0
DWIDTH 0 0
BBX 3 3 -2 -4
BITMAP
E0
20
20
ENDCHAR
STARTCHAR 034A
ENCODING 842
SWIDTH 0 0
DWIDTH 0 0
BBX 6 3 -3 10
BITMAP
74
B8
20
ENDCHAR
STARTCHAR 034B
ENCODING 843
SWIDTH 0 0
DWIDTH 0 0
BBX 6 4 -3 10
BITMAP
30
64
98
30
ENDCHAR
STARTCHAR 034C
ENCODING 844
SWIDTH 0 0
DWIDTH 0 0
BBX 6 4 -3 10
BITMAP
64
98
64
98
ENDCHAR
STARTCHAR 034D
ENCODING 845
SWIDTH 0 0
DWIDTH 0 0
BBX 4 1 -2 -3
BITMAP
F0
ENDCHAR
STARTCHAR 034E
ENCODING 846
SWIDTH 0 0
DWIDTH 0 0
BBX 2 3 -1 -4
BITMAP
80
C0
80
ENDCHAR
STARTCHAR 034F
ENCODING 847
SWIDTH 0 0
DWIDTH 0 0
BBX 12 13 -6 0
BITMAP
E670
8010
8D10
1080
2040
8010
A050
8010
2040
1080
8D10
8010
E670
ENDCHAR
STARTCHAR 0350
ENCODING 848
SWIDTH 0 0
DWIDTH 0 0
BBX 2 3 -1 10
BITMAP
80
40
80
ENDCHAR
STARTCHAR 0351
ENCODING 849
SWIDTH 0 0
DWIDTH 0 0
BBX 2 3 -1 10
BITMAP
40
80
40
ENDCHAR
STARTCHAR 0352
ENCODING 850
SWIDTH 0 0
DWIDTH 0 0
BBX 4 3 -2 10
BITMAP
F0
90
60
ENDCHAR
STARTCHAR 0353
ENCODING 851
SWIDTH 0 0
DWIDTH 0 0
BBX 4 4 -2 -4
BITMAP
90
60
60
90
ENDCHAR
STARTCHAR 0354
ENCODING 852
SWIDTH 0 0
DWIDTH 0 0
BBX 2 3 -1 -3
BITMAP
40
80
40
ENDCHAR
STARTCHAR 0355
ENCODING 853
SWIDTH 0 0
DWIDTH 0 0
BBX 2 3 -1 -3
BITMAP
80
40
80
ENDCHAR
STARTCHAR 0356
ENCODING 854
SWIDTH 0 0
DWIDTH 0 0
BBX 5 3 -2 -3
BITMAP
80
50
A8
ENDCHAR
STARTCHAR 0357
ENCODING 855
SWIDTH 0 0
DWIDTH 0 0
BBX 2 3 -1 10
BITMAP
80
40
80
ENDCHAR
STARTCHAR 0358
ENCODING 856
SWIDTH 0 0
DWIDTH 0 0
BBX 2 1 2 10
BITMAP
C0
ENDCHAR
STARTCHAR 0359
ENCODING 857
SWIDTH 0 0
DWIDTH 0 0
BBX 2 3 -1 -4
BITMAP
80
C0
C0
ENDCHAR
STARTCHAR 035A
ENCODING 858
SWIDTH 0 0
DWIDTH 0 0
BBX 6 3 -3 -4
BITMAP
78
84
78
ENDCHAR
STARTCHAR 035B
ENCODING 859
SWIDTH 0 0
DWIDTH 0 0
BBX 3 5 -2 10
BITMAP
40
40
E0
20
20
ENDCHAR
STARTCHAR 035C
ENCODING 860
SWIDTH 0 0
DWIDTH 0 0
BBX 12 3 -1 -4
BITMAP
8010
6020
1FC0
ENDCHAR
STARTCHAR 035D
ENCODING 861
SWIDTH 0 0
DWIDTH 0 0
BBX 12 3 -1 10
BITMAP
8010
6020
1FC0
ENDCHAR
STARTCHAR 035E
ENCODING 862
SWIDTH 0 0
DWIDTH 0 0
BBX 9 1 -1 11
BITMAP
FF80
ENDCHAR
STARTCHAR 035F
ENCODING 863
SWIDTH 0 0
DWIDTH 0 0
BBX 9 1 -1 -2
BITMAP
FF80
ENDCHAR
STARTCHAR 0360
ENCODING 864
SWIDTH 0 0
DWIDTH 0 0
BBX 13 3 -1 10
BITMAP
7818
C610
81E0
ENDCHAR
STARTCHAR 0361
ENCODING 865
SWIDTH 0 0
DWIDTH 0 0
BBX 12 3 -1 10
BITMAP
1F80
6060
8010
ENDCHAR
STARTCHAR 0362
ENCODING 866
SWIDTH 0 0
DWIDTH 0 0
BBX 9 1 -1 -3
BITMAP
FF80
ENDCHAR
STARTCHAR 0363
ENCODING 867
SWIDTH 0 0
DWIDTH 0 0
BBX 6 6 -3 4
BITMAP
78
48
38
C8
88
74
ENDCHAR
STARTCHAR 0364
ENCODING 868
SWIDTH 0 0
DWIDTH 0 0
BBX 6 6 -3 4
BITMAP
78
4C
FC
80
4C
78
ENDCHAR
STARTCHAR 0365
ENCODING 869
SWIDTH 0 0
DWIDTH 0 0
BBX 2 8 -1 4
BITMAP
C0
00
C0
C0
C0
C0
C0
C0
ENDCHAR
STARTCHAR 0366
ENCODING 870
SWIDTH 0 0
DWIDTH 0 0
BBX 6 6 -3 4
BITMAP
78
C8
84
84
C8
78
ENDCHAR
STARTCHAR 0367
ENCODING 871
SWIDTH 0 0
DWIDTH 0 0
BBX 4 6 -2 4
BITMAP
90
90
90
90
90
F0
ENDCHAR
STARTCHAR 0368
ENCODING 872
SWIDTH 0 0
DWIDTH 0 0
BBX 5 6 -3 4
BITMAP
78
48
80
80
48
78
ENDCHAR
STARTCHAR 0369
ENCODING 873
SWIDTH 0 0
DWIDTH 0 0
BBX 6 8 -3 4
BITMAP
04
04
74
4C
84
84
4C
74
ENDCHAR
STARTCHAR 036A
ENCODING 874
SWIDTH 0 0
DWIDTH 0 0
BBX 4 8 -2 4
BITMAP
80
80
F0
90
90
90
90
90
ENDCHAR
STARTCHAR 036B
ENCODING 875
SWIDTH 0 0
DWIDTH 0 0
BBX 8 6 -4 4
BITMAP
F7
99
89
89
89
89
ENDCHAR
STARTCHAR 036C
ENCODING 876
SWIDTH 0 0
DWIDTH 0 0
BBX 4 6 -2 4
BITMAP
B0
C0
80
80
80
80
ENDCHAR
STARTCHAR 036D
ENCODING 877
SWIDTH 0 0
DWIDTH 0 0
BBX 2 8 -1 4
BITMAP
80
80
C0
80
80
80
80
C0
ENDCHAR
STARTCHAR 036E
ENCODING 878
SWIDTH 0 0
DWIDTH 0 0
BBX 6 6 -3 4
BITMAP
CC
48
48
30
30
30
ENDCHAR
STARTCHAR 036F
ENCODING 879
SWIDTH 0 0
DWIDTH 0 0
BBX 4 6 -2 4
BITMAP
90
F0
60
60
90
90
ENDCHAR
STARTCHAR 0374
ENCODING 884
SWIDTH 360 0
DWIDTH 6 0
BBX 2 2 2 10
BITMAP
40
C0
ENDCHAR
STARTCHAR 0375
ENCODING 885
SWIDTH 360 0
DWIDTH 6 0
BBX 3 2 1 -3
BITMAP
60
C0
ENDCHAR
STARTCHAR 037A
ENCODING 890
SWIDTH 360 0
DWIDTH 6 0
BBX 1 2 2 -3
BITMAP
80
80
ENDCHAR
STARTCHAR 037B
ENCODING 891
SWIDTH 540 0
DWIDTH 9 0
BBX 8 9 0 0
BITMAP
3C
46
C3
03
03
03
C3
46
3C
ENDCHAR
STARTCHAR 037C
ENCODING 892
SWIDTH 720 0
DWIDTH 12 0
BBX 12 12 0 0
BITMAP
0FF0
3FF0
7FF0
7000
F000
E000
E000
F000
E000
FFE0
7FE0
7FE0
ENDCHAR
STARTCHAR 037D
ENCODING 893
SWIDTH 540 0
DWIDTH 9 0
BBX 8 9 0 0
BITMAP
3C
66
C3
03
1B
03
C3
46
3C
ENDCHAR
STARTCHAR 037E
ENCODING 894
SWIDTH 180 0
DWIDTH 3 0
BBX 3 10 0 -2
BITMAP
60
E0
60
00
00
00
C0
C0
C0
C0
ENDCHAR
STARTCHAR 0384
ENCODING 900
SWIDTH 360 0
DWIDTH 6 0
BBX 3 4 2 10
BITMAP
60
E0
E0
C0
ENDCHAR
STARTCHAR 0385
ENCODING 901
SWIDTH 360 0
DWIDTH 6 0
BBX 6 2 0 10
BITMAP
9C
AC
ENDCHAR
STARTCHAR 0386
ENCODING 902
SWIDTH 660 0
DWIDTH 11 0
BBX 11 12 0 0
BITMAP
6E00
4A00
0A00
1B00
1100
1180
3180
3FC0
60C0
6040
4060
C060
ENDCHAR
STARTCHAR 0387
ENCODING 903
SWIDTH 300 0
DWIDTH 5 0
BBX 1 1 2 8
BITMAP
80
ENDCHAR
STARTCHAR 0388
ENCODING 904
SWIDTH 780 0
DWIDTH 13 0
BBX 12 12 0 0
BITMAP
DFF0
9800
1800
1800
1800
1FF0
1800
1800
1800
1800
1800
1FF0
ENDCHAR
STARTCHAR 0389
ENCODING 905
SWIDTH 840 0
DWIDTH 14 0
BBX 13 12 0 0
BITMAP
D818
9818
1818
1818
1818
1FF8
1818
1818
1818
1818
1818
1818
ENDCHAR
STARTCHAR 038A
ENCODING 906
SWIDTH 420 0
DWIDTH 7 0
BBX 5 12 0 0
BITMAP
D8
98
18
18
18
18
18
18
18
18
18
18
ENDCHAR
STARTCHAR 038C
ENCODING 908
SWIDTH 780 0
DWIDTH 13 0
BBX 12 12 0 0
BITMAP
CF80
9860
2020
6030
6010
4010
4010
6010
6030
2020
1860
0F80
ENDCHAR
STARTCHAR 038E
ENCODING 910
SWIDTH 900 0
DWIDTH 15 0
BBX 14 12 0 0
BITMAP
D80C
8C18
0618
0630
0360
01C0
00C0
0080
0080
0080
0080
0080
ENDCHAR
STARTCHAR 038F
ENCODING 911
SWIDTH 780 0
DWIDTH 13 0
BBX 12 12 0 0
BITMAP
CF80
98C0
3060
6020
6030
6030
6030
6030
2020
3060
18C0
7DF0
ENDCHAR
STARTCHAR 0390
ENCODING 912
SWIDTH 240 0
DWIDTH 4 0
BBX 6 12 -1 0
BITMAP
9C
AC
00
30
30
30
30
30
30
30
30
30
ENDCHAR
STARTCHAR 0391
ENCODING 913
SWIDTH 720 0
DWIDTH 12 0
BBX 12 12 0 0
BITMAP
0FC0
3FE0
7FF0
7070
F070
F070
FFF0
FFF0
E0F0
E0E0
E0E0
E0E0
ENDCHAR
STARTCHAR 0392
ENCODING 914
SWIDTH 720 0
DWIDTH 12 0
BBX 12 12 0 0
BITMAP
7FC0
7FF0
7FF0
7070
F070
FFF0
FFF0
FFF0
F070
FFF0
FFF0
FFC0
ENDCHAR
STARTCHAR 0393
ENCODING 915
SWIDTH 540 0
DWIDTH 9 0
BBX 8 12 1 0
BITMAP
FF
C0
C0
C0
C0
C0
C0
C0
C0
C0
C0
C0
ENDCHAR
STARTCHAR 0394
ENCODING 916
SWIDTH 660 0
DWIDTH 11 0
BBX 11 12 0 0
BITMAP
0E00
0E00
0A00
1B00
1100
1180
3180
20C0
60C0
60C0
4060
FFE0
ENDCHAR
STARTCHAR 0395
ENCODING 917
SWIDTH 720 0
DWIDTH 12 0
BBX 12 12 0 0
BITMAP
0FF0
3FF0
7FF0
7000
F000
FFF0
FFF0
F000
F000
FFF0
7FE0
7FE0
ENDCHAR
STARTCHAR 0396
ENCODING 918
SWIDTH 780 0
DWIDTH 13 0
BBX 13 12 0 0
BITMAP
7FF0
7FF8
7FF8
7FF8
03F0
0FC0
1F80
3F00
FC00
FFF0
FFF0
FFF0
ENDCHAR
STARTCHAR 0397
ENCODING 919
SWIDTH 720 0
DWIDTH 12 0
BBX 12 12 0 0
BITMAP
7070
7070
70F0
70F0
F0F0
FFF0
FFF0
FFE0
E0E0
E0E0
E0E0
E0E0
ENDCHAR
STARTCHAR 0398
ENCODING 920
SWIDTH 780 0
DWIDTH 13 0
BBX 11 12 1 0
BITMAP
1F00
30C0
4040
C060
C020
9F20
8020
C020
C060
4040
30C0
1F00
ENDCHAR
STARTCHAR 0399
ENCODING 921
SWIDTH 240 0
DWIDTH 4 0
BBX 4 12 0 0
BITMAP
70
70
70
70
70
F0
F0
F0
F0
E0
E0
E0
ENDCHAR
STARTCHAR 039A
ENCODING 922
SWIDTH 720 0
DWIDTH 12 0
BBX 13 12 0 0
BITMAP
78F8
71F0
73E0
F3C0
F7C0
FF80
FF00
FF80
F7C0
F3C0
F3E0
E1F0
ENDCHAR
STARTCHAR 039B
ENCODING 923
SWIDTH 660 0
DWIDTH 11 0
BBX 11 12 0 0
BITMAP
0600
0E00
0A00
1B00
1900
1180
3180
2080
60C0
6040
4060
C060
ENDCHAR
STARTCHAR 039C
ENCODING 924
SWIDTH 900 0
DWIDTH 15 0
BBX 15 12 0 0
BITMAP
7FF8
7FFC
7FFC
7FFE
F38E
F39C
E39C
E39C
E39C
E39C
E39C
E71C
ENDCHAR
STARTCHAR 039D
ENCODING 925
SWIDTH 720 0
DWIDTH 12 0
BBX 12 12 0 0
BITMAP
7FC0
7FF0
7FF0
7FF0
7070
F070
F070
E070
E070
E0F0
E0E0
E0E0
ENDCHAR
STARTCHAR 039E
ENCODING 926
SWIDTH 660 0
DWIDTH 11 0
BBX 9 12 1 0
BITMAP
FF80
0000
0000
0000
0000
7F00
0000
0000
0000
0000
0000
FF80
ENDCHAR
STARTCHAR 039F
ENCODING 927
SWIDTH 780 0
DWIDTH 13 0
BBX 13 12 0 0
BITMAP
1FE0
3FF0
7FF0
7078
F078
E078
E078
E070
E070
FFF0
FFE0
7FE0
ENDCHAR
STARTCHAR 03A0
ENCODING 928
SWIDTH 720 0
DWIDTH 12 0
BBX 10 12 1 0
BITMAP
FFC0
C0C0
C0C0
C0C0
C0C0
C0C0
C0C0
C0C0
C0C0
C0C0
C0C0
C0C0
ENDCHAR
STARTCHAR 03A1
ENCODING 929
SWIDTH 720 0
DWIDTH 12 0
BBX 12 12 0 0
BITMAP
7FC0
7FF0
7FF0
7070
F070
FFF0
FFF0
FFE0
F000
E000
E000
E000
ENDCHAR
STARTCHAR 03A3
ENCODING 931
SWIDTH 660 0
DWIDTH 11 0
BBX 9 12 1 0
BITMAP
FF80
C000
6000
3000
1800
0C00
0C00
1800
3000
6000
C000
FF80
ENDCHAR
STARTCHAR 03A4
ENCODING 932
SWIDTH 780 0
DWIDTH 13 0
BBX 12 12 0 0
BITMAP
7FE0
7FE0
FFE0
FFE0
7800
7800
7000
7000
7800
7FF0
7FF0
3FF0
ENDCHAR
STARTCHAR 03A5
ENCODING 933
SWIDTH 720 0
DWIDTH 12 0
BBX 12 12 0 0
BITMAP
7070
7070
F070
F070
F070
FFF0
7FF0
7FE0
00E0
FFE0
FFE0
FFC0
ENDCHAR
STARTCHAR 03A6
ENCODING 934
SWIDTH 840 0
DWIDTH 14 0
BBX 12 12 1 0
BITMAP
0600
0600
3F80
6660
C630
8630
8630
C630
6660
3F80
0600
0600
ENDCHAR
STARTCHAR 03A7
ENCODING 935
SWIDTH 780 0
DWIDTH 13 0
BBX 14 12 0 0
BITMAP
787C
7CF8
3FF0
1FE0
0FC0
0F80
0780
0F80
1FC0
3FE0
79F0
F0F0
ENDCHAR
STARTCHAR 03A8
ENCODING 936
SWIDTH 840 0
DWIDTH 14 0
BBX 12 12 1 0
BITMAP
C610
C610
C610
C610
C630
C630
6660
3FC0
0600
0600
0600
0600
ENDCHAR
STARTCHAR 03A9
ENCODING 937
SWIDTH 780 0
DWIDTH 13 0
BBX 11 12 1 0
BITMAP
1F00
3180
60C0
C040
C060
C060
C060
C060
4040
60C0
3180
FBE0
ENDCHAR
STARTCHAR 03AA
ENCODING 938
SWIDTH 240 0
DWIDTH 4 0
BBX 9 17 0 0
BITMAP
3380
3B80
3300
0000
0000
7000
7000
7000
7000
7000
F000
F000
F000
F000
E000
E000
E000
ENDCHAR
STARTCHAR 03AB
ENCODING 939
SWIDTH 720 0
DWIDTH 12 0
BBX 13 17 0 0
BITMAP
03B8
03B8
0110
0000
0000
7070
7070
F070
F070
F070
FFF0
7FF0
7FE0
00E0
FFE0
FFE0
FFC0
ENDCHAR
STARTCHAR 03AC
ENCODING 940
SWIDTH 600 0
DWIDTH 10 0
BBX 8 14 1 0
BITMAP
0C
1C
1C
18
00
79
C7
C3
82
82
82
C2
C7
79
ENDCHAR
STARTCHAR 03AD
ENCODING 941
SWIDTH 480 0
DWIDTH 8 0
BBX 6 14 1 0
BITMAP
18
18
38
30
00
78
C8
C0
C0
70
C0
80
CC
78
ENDCHAR
STARTCHAR 03AE
ENCODING 942
SWIDTH 540 0
DWIDTH 9 0
BBX 7 17 1 -3
BITMAP
0C
1C
1C
18
00
FC
E6
C2
C2
C2
C2
C2
C2
C2
02
02
02
ENDCHAR
STARTCHAR 03AF
ENCODING 943
SWIDTH 240 0
DWIDTH 4 0
BBX 3 14 1 0
BITMAP
60
E0
E0
C0
00
C0
C0
C0
C0
C0
C0
C0
C0
C0
ENDCHAR
STARTCHAR 03B0
ENCODING 944
SWIDTH 540 0
DWIDTH 9 0
BBX 7 13 1 0
BITMAP
08
5E
56
00
C2
C2
C2
C2
C2
C2
C2
46
7C
ENDCHAR
STARTCHAR 03B1
ENCODING 945
SWIDTH 600 0
DWIDTH 10 0
BBX 8 9 1 0
BITMAP
79
C7
C3
82
82
82
C2
C7
79
ENDCHAR
STARTCHAR 03B2
ENCODING 946
SWIDTH 600 0
DWIDTH 10 0
BBX 8 15 1 -3
BITMAP
3C
46
C2
C2
C6
D8
C6
C3
C3
C3
E2
FC
C0
C0
C0
ENDCHAR
STARTCHAR 03B3
ENCODING 947
SWIDTH 540 0
DWIDTH 9 0
BBX 8 12 0 -3
BITMAP
C1
43
62
66
26
34
1C
1C
18
18
18
18
ENDCHAR
STARTCHAR 03B4
ENCODING 948
SWIDTH 540 0
DWIDTH 9 0
BBX 8 12 1 0
BITMAP
FE
60
18
3C
C6
C3
83
83
83
C3
46
3C
ENDCHAR
STARTCHAR 03B5
ENCODING 949
SWIDTH 480 0
DWIDTH 8 0
BBX 6 9 1 0
BITMAP
78
C8
C0
C0
70
C0
80
C4
78
ENDCHAR
STARTCHAR 03B6
ENCODING 950
SWIDTH 480 0
DWIDTH 8 0
BBX 6 15 1 -3
BITMAP
7C
08
10
20
60
C0
C0
80
80
80
C0
78
04
04
18
ENDCHAR
STARTCHAR 03B7
ENCODING 951
SWIDTH 540 0
DWIDTH 9 0
BBX 7 12 1 -3
BITMAP
FC
E6
C2
C2
C2
C2
C2
C2
C2
02
02
02
ENDCHAR
STARTCHAR 03B8
ENCODING 952
SWIDTH 540 0
DWIDTH 9 0
BBX 8 12 1 0
BITMAP
3C
46
C2
82
83
FF
83
83
C2
C2
46
3C
ENDCHAR
STARTCHAR 03B9
ENCODING 953
SWIDTH 240 0
DWIDTH 4 0
BBX 2 9 1 0
BITMAP
C0
C0
C0
C0
C0
C0
C0
C0
C0
ENDCHAR
STARTCHAR 03BA
ENCODING 954
SWIDTH 540 0
DWIDTH 9 0
BBX 7 9 1 0
BITMAP
C6
CC
D8
E0
F0
D8
C8
CC
C6
ENDCHAR
STARTCHAR 03BB
ENCODING 955
SWIDTH 540 0
DWIDTH 9 0
BBX 8 12 0 0
BITMAP
30
10
18
18
18
1C
14
26
26
62
43
C1
ENDCHAR
STARTCHAR 03BC
ENCODING 956
SWIDTH 720 0
DWIDTH 12 0
BBX 12 14 0 -2
BITMAP
7070
7070
7070
7070
7070
F070
E070
E070
E0F0
FFF0
FFE0
FFE0
E000
E000
ENDCHAR
STARTCHAR 03BD
ENCODING 957
SWIDTH 840 0
DWIDTH 14 0
BBX 14 12 0 0
BITMAP
F01C
F83C
7878
7878
3CF0
3CF0
3DE0
1FC0
1FC0
0F80
0F80
0700
ENDCHAR
STARTCHAR 03BE
ENCODING 958
SWIDTH 480 0
DWIDTH 8 0
BBX 6 15 1 -3
BITMAP
38
C0
C0
40
38
60
C0
80
80
80
C0
3C
04
04
18
ENDCHAR
STARTCHAR 03BF
ENCODING 959
SWIDTH 780 0
DWIDTH 13 0
BBX 13 12 0 0
BITMAP
1FE0
3FF0
7FF0
7078
F078
E078
E078
E070
E070
FFF0
FFE0
7FE0
ENDCHAR
STARTCHAR 03C0
ENCODING 960
SWIDTH 720 0
DWIDTH 12 0
BBX 11 9 0 0
BITMAP
FFE0
1080
1080
1080
1080
1080
1080
1080
1080
ENDCHAR
STARTCHAR 03C1
ENCODING 961
SWIDTH 600 0
DWIDTH 10 0
BBX 8 12 1 -3
BITMAP
3C
66
C3
C3
C1
C3
C3
E6
FC
C0
C0
C0
ENDCHAR
STARTCHAR 03C2
ENCODING 962
SWIDTH 480 0
DWIDTH 8 0
BBX 7 12 1 -3
BITMAP
1E
60
C0
80
80
80
C0
60
3C
06
06
3C
ENDCHAR
STARTCHAR 03C3
ENCODING 963
SWIDTH 660 0
DWIDTH 11 0
BBX 9 9 1 0
BITMAP
3F80
C600
8300
8300
8300
8300
8200
C600
3C00
ENDCHAR
STARTCHAR 03C4
ENCODING 964
SWIDTH 420 0
DWIDTH 7 0
BBX 6 9 0 0
BITMAP
FC
10
10
10
10
10
10
10
10
ENDCHAR
STARTCHAR 03C5
ENCODING 965
SWIDTH 540 0
DWIDTH 9 0
BBX 7 9 1 0
BITMAP
C2
C2
C2
C2
C2
C2
C2
46
3C
ENDCHAR
STARTCHAR 03C6
ENCODING 966
SWIDTH 660 0
DWIDTH 11 0
BBX 9 12 1 -3
BITMAP
6F00
C980
8880
8880
8880
8880
C980
6B00
3E00
0800
0800
0800
ENDCHAR
STARTCHAR 03C7
ENCODING 967
SWIDTH 540 0
DWIDTH 9 0
BBX 8 12 0 -3
BITMAP
41
63
22
36
1C
18
1C
14
36
22
63
C1
ENDCHAR
STARTCHAR 03C8
ENCODING 968
SWIDTH 720 0
DWIDTH 12 0
BBX 10 12 1 -3
BITMAP
CC40
CC40
CC40
CC40
CC40
CC40
CCC0
6C80
3F00
0C00
0C00
0C00
ENDCHAR
STARTCHAR 03C9
ENCODING 969
SWIDTH 780 0
DWIDTH 13 0
BBX 12 9 1 0
BITMAP
4060
C060
C420
8420
8430
8420
8620
CA60
79C0
ENDCHAR
STARTCHAR 03CA
ENCODING 970
SWIDTH 240 0
DWIDTH 4 0
BBX 9 15 1 0
BITMAP
3180
3B80
3B80
0000
0000
0000
C000
C000
C000
C000
C000
C000
C000
C000
C000
ENDCHAR
STARTCHAR 03CB
ENCODING 971
SWIDTH 540 0
DWIDTH 9 0
BBX 12 15 1 0
BITMAP
0660
0770
0770
0000
0000
0000
C200
C200
C200
C200
C200
C200
C200
4600
7C00
ENDCHAR
STARTCHAR 03CC
ENCODING 972
SWIDTH 780 0
DWIDTH 13 0
BBX 13 14 0 0
BITMAP
1800
3800
3FE0
3FF0
7FF0
7078
F078
E078
E078
E070
E070
FFF0
FFE0
7FE0
ENDCHAR
STARTCHAR 03CD
ENCODING 973
SWIDTH 540 0
DWIDTH 9 0
BBX 7 14 1 0
BITMAP
0C
1C
18
18
00
C2
C2
C2
C2
C2
C2
C2
46
7C
ENDCHAR
STARTCHAR 03CE
ENCODING 974
SWIDTH 780 0
DWIDTH 13 0
BBX 12 14 1 0
BITMAP
0300
0700
0700
0600
0000
4040
C060
C420
8420
8430
8430
8620
CE60
7BC0
ENDCHAR
STARTCHAR 03D0
ENCODING 976
SWIDTH 600 0
DWIDTH 10 0
BBX 8 12 1 0
BITMAP
3C
66
C6
FC
C0
BC
E2
C3
C3
C3
62
3C
ENDCHAR
STARTCHAR 03D1
ENCODING 977
SWIDTH 540 0
DWIDTH 9 0
BBX 9 12 0 0
BITMAP
1E00
3300
3100
3100
1980
0F80
E180
2100
2100
2300
2600
3C00
ENDCHAR
STARTCHAR 03D2
ENCODING 978
SWIDTH 780 0
DWIDTH 13 0
BBX 12 12 1 0
BITMAP
80F0
C080
6100
2300
3200
1C00
0C00
0C00
0C00
0C00
0C00
0C00
ENDCHAR
STARTCHAR 03D3
ENCODING 979
SWIDTH 960 0
DWIDTH 16 0
BBX 16 12 0 0
BITMAP
6C0F
CC19
0618
0330
0120
01E0
00C0
00C0
00C0
00C0
00C0
00C0
ENDCHAR
STARTCHAR 03D4
ENCODING 980
SWIDTH 780 0
DWIDTH 13 0
BBX 13 18 1 0
BITMAP
0330
03B8
03B8
0000
0000
0000
C0F0
C180
6180
3300
3600
1E00
0C00
0C00
0C00
0C00
0C00
0C00
ENDCHAR
STARTCHAR 03D5
ENCODING 981
SWIDTH 600 0
DWIDTH 10 0
BBX 8 15 1 -3
BITMAP
18
18
18
3C
DE
DB
9B
9B
9B
DB
DE
3C
18
18
18
ENDCHAR
STARTCHAR 03D6
ENCODING 982
SWIDTH 780 0
DWIDTH 13 0
BBX 12 9 1 0
BITMAP
FFF0
C060
C420
8420
8430
8420
C620
CA60
79C0
ENDCHAR
STARTCHAR 03D7
ENCODING 983
SWIDTH 600 0
DWIDTH 10 0
BBX 9 13 1 -4
BITMAP
C300
6200
6600
6E00
7E00
7600
6600
6600
C380
0180
0180
0100
0700
ENDCHAR
STARTCHAR 03D8
ENCODING 984
SWIDTH 780 0
DWIDTH 13 0
BBX 11 15 1 -3
BITMAP
1F00
30C0
4060
C060
C020
C020
8020
C020
C060
4060
30C0
1F00
0400
0400
0400
ENDCHAR
STARTCHAR 03D9
ENCODING 985
SWIDTH 540 0
DWIDTH 9 0
BBX 8 12 1 -3
BITMAP
3C
C6
83
83
83
83
83
C6
7C
10
10
10
ENDCHAR
STARTCHAR 03DA
ENCODING 986
SWIDTH 720 0
DWIDTH 12 0
BBX 10 12 1 0
BITMAP
1F00
61C0
4040
C000
8000
8000
C000
C000
6000
1C00
0400
0400
ENDCHAR
STARTCHAR 03DB
ENCODING 987
SWIDTH 540 0
DWIDTH 9 0
BBX 7 12 1 -3
BITMAP
3C
C6
80
80
80
80
C0
78
0C
06
06
7C
ENDCHAR
STARTCHAR 03DC
ENCODING 988
SWIDTH 600 0
DWIDTH 10 0
BBX 9 12 1 0
BITMAP
FF80
C000
C000
C000
C000
C000
FF00
C300
C300
C000
C000
C000
ENDCHAR
STARTCHAR 03DD
ENCODING 989
SWIDTH 420 0
DWIDTH 7 0
BBX 5 12 1 -3
BITMAP
F8
C0
C0
F8
D8
D8
C0
C0
C0
C0
C0
C0
ENDCHAR
STARTCHAR 03DE
ENCODING 990
SWIDTH 660 0
DWIDTH 11 0
BBX 11 12 0 0
BITMAP
E000
2000
2000
2080
2380
2480
2980
7180
6180
0100
0180
00E0
ENDCHAR
STARTCHAR 03DF
ENCODING 991
SWIDTH 540 0
DWIDTH 9 0
BBX 8 12 1 0
BITMAP
20
60
40
C0
C0
FF
06
06
04
0C
0C
08
ENDCHAR
STARTCHAR 03E0
ENCODING 992
SWIDTH 780 0
DWIDTH 13 0
BBX 12 15 0 -3
BITMAP
1E00
7B80
D9C0
18C0
1860
18E0
0130
0330
0310
0310
0310
0330
0030
0060
0780
ENDCHAR
STARTCHAR 03E1
ENCODING 993
SWIDTH 600 0
DWIDTH 10 0
BBX 8 15 1 -3
BITMAP
C0
70
18
0C
0E
76
03
03
1D
11
01
01
01
01
02
ENDCHAR
STARTCHAR 03E2
ENCODING 994
SWIDTH 900 0
DWIDTH 15 0
BBX 13 15 1 -3
BITMAP
C218
C218
C218
C218
C218
C218
C218
C218
C218
C218
4738
79F8
0018
0010
FFE0
ENDCHAR
STARTCHAR 03E3
ENCODING 995
SWIDTH 840 0
DWIDTH 14 0
BBX 12 12 1 -3
BITMAP
C610
C610
C610
C610
C610
C610
C630
C630
7BD0
0010
0020
FFC0
ENDCHAR
STARTCHAR 03E4
ENCODING 996
SWIDTH 660 0
DWIDTH 11 0
BBX 9 12 1 0
BITMAP
3D80
4180
C180
8180
8180
C180
4180
3F80
0180
0180
0180
0180
ENDCHAR
STARTCHAR 03E5
ENCODING 997
SWIDTH 540 0
DWIDTH 9 0
BBX 7 12 1 0
BITMAP
62
C2
C2
C2
C2
C2
C2
C6
7A
02
02
02
ENDCHAR
STARTCHAR 03E6
ENCODING 998
SWIDTH 660 0
DWIDTH 11 0
BBX 10 15 1 -3
BITMAP
C000
C000
C000
C000
DE00
E180
C080
C080
C0C0
C0C0
C0C0
C080
0180
0300
FE00
ENDCHAR
STARTCHAR 03E7
ENCODING 999
SWIDTH 540 0
DWIDTH 9 0
BBX 8 9 0 1
BITMAP
3F
66
47
79
01
01
03
62
9C
ENDCHAR
STARTCHAR 03E8
ENCODING 1000
SWIDTH 660 0
DWIDTH 11 0
BBX 10 12 1 0
BITMAP
3E00
6180
4080
C180
0180
1E00
6000
C080
80C0
C080
E180
3E00
ENDCHAR
STARTCHAR 03E9
ENCODING 1001
SWIDTH 660 0
DWIDTH 11 0
BBX 9 12 1 0
BITMAP
3E00
6180
4080
C080
0180
0E00
7000
C000
8000
C000
E080
3F80
ENDCHAR
STARTCHAR 03EA
ENCODING 1002
SWIDTH 600 0
DWIDTH 10 0
BBX 10 12 0 0
BITMAP
73C0
9A40
1E00
0C00
0C00
0C00
0E00
1A00
1200
3300
3100
3F80
ENDCHAR
STARTCHAR 03EB
ENCODING 1003
SWIDTH 600 0
DWIDTH 10 0
BBX 10 9 0 0
BITMAP
7380
9E40
0E00
0C00
0C00
0C00
0E00
1A00
1E00
ENDCHAR
STARTCHAR 03EC
ENCODING 1004
SWIDTH 780 0
DWIDTH 13 0
BBX 11 12 1 0
BITMAP
1FC0
6000
5F00
E180
C0C0
C060
8060
8060
C060
C0C0
6180
1F00
ENDCHAR
STARTCHAR 03ED
ENCODING 1005
SWIDTH 540 0
DWIDTH 9 0
BBX 8 9 1 0
BITMAP
3E
60
C0
BE
83
83
83
C2
7C
ENDCHAR
STARTCHAR 03EE
ENCODING 1006
SWIDTH 480 0
DWIDTH 8 0
BBX 8 12 0 0
BITMAP
18
18
18
7E
DB
DB
18
18
18
18
18
18
ENDCHAR
STARTCHAR 03EF
ENCODING 1007
SWIDTH 420 0
DWIDTH 7 0
BBX 7 12 0 0
BITMAP
10
18
10
FE
90
10
10
10
10
10
30
10
ENDCHAR
STARTCHAR 03F0
ENCODING 1008
SWIDTH 600 0
DWIDTH 10 0
BBX 9 9 1 0
BITMAP
C300
6200
6600
6E00
7E00
7600
6600
6600
C380
ENDCHAR
STARTCHAR 03F1
ENCODING 1009
SWIDTH 600 0
DWIDTH 10 0
BBX 8 12 1 -3
BITMAP
3C
66
C3
C3
83
C3
C3
E6
BC
40
3E
01
ENDCHAR
STARTCHAR 03F2
ENCODING 1010
SWIDTH 720 0
DWIDTH 12 0
BBX 12 12 0 0
BITMAP
0FF0
3FF0
7FF0
7000
F000
E000
E000
E000
E000
FFE0
7FE0
7FE0
ENDCHAR
STARTCHAR 03F3
ENCODING 1011
SWIDTH 480 0
DWIDTH 8 0
BBX 8 12 0 0
BITMAP
0F
0F
0F
0E
0E
0E
0E
0E
1E
FE
FC
F8
ENDCHAR
STARTCHAR 03F4
ENCODING 1012
SWIDTH 780 0
DWIDTH 13 0
BBX 11 12 1 0
BITMAP
3F80
70C0
4060
C060
C020
FFE0
FFE0
C020
C060
6060
71C0
1F80
ENDCHAR
STARTCHAR 03F5
ENCODING 1013
SWIDTH 480 0
DWIDTH 8 0
BBX 6 9 1 0
BITMAP
3C
C0
C0
80
F0
80
C0
C0
7C
ENDCHAR
STARTCHAR 03F6
ENCODING 1014
SWIDTH 480 0
DWIDTH 8 0
BBX 6 9 1 0
BITMAP
F0
18
0C
0C
7C
0C
0C
18
F0
ENDCHAR
STARTCHAR 03F7
ENCODING 1015
SWIDTH 780 0
DWIDTH 13 0
BBX 13 15 0 -2
BITMAP
7800
7000
7000
7FE0
7FF0
7FF8
7078
F070
FFF0
FFF0
FFC0
E000
E000
E000
E000
ENDCHAR
STARTCHAR 03F8
ENCODING 1016
SWIDTH 780 0
DWIDTH 13 0
BBX 13 15 0 -2
BITMAP
7800
7000
7000
7FE0
7FF0
7FF8
7078
F070
FFF0
FFF0
FFC0
E000
E000
E000
E000
ENDCHAR
STARTCHAR 03F9
ENCODING 1017
SWIDTH 720 0
DWIDTH 12 0
BBX 12 12 0 0
BITMAP
0FF0
3FF0
7FF0
7000
F000
E000
E000
E000
E000
FFE0
7FE0
7FE0
ENDCHAR
STARTCHAR 03FA
ENCODING 1018
SWIDTH 840 0
DWIDTH 14 0
BBX 12 12 1 0
BITMAP
E070
E070
F0F0
D9B0
CF30
C630
C030
C030
C030
C030
C030
C030
ENDCHAR
STARTCHAR 03FB
ENCODING 1019
SWIDTH 720 0
DWIDTH 12 0
BBX 10 12 1 -3
BITMAP
E1C0
E1C0
E3C0
F2C0
D2C0
D6C0
DCC0
CCC0
CCC0
C000
C000
C000
ENDCHAR
STARTCHAR 03FC
ENCODING 1020
SWIDTH 600 0
DWIDTH 10 0
BBX 9 12 0 -3
BITMAP
1E00
3300
6180
6180
6080
6180
6180
7300
7E00
6000
F800
6000
ENDCHAR
STARTCHAR 03FD
ENCODING 1021
SWIDTH 720 0
DWIDTH 12 0
BBX 10 12 1 0
BITMAP
3F00
6180
C0C0
80C0
0040
0040
0040
0040
40C0
C0C0
6180
3F00
ENDCHAR
STARTCHAR 03FE
ENCODING 1022
SWIDTH 720 0
DWIDTH 12 0
BBX 10 12 1 0
BITMAP
1F00
61C0
40C0
C000
C000
C400
C000
C000
C000
4040
60C0
1F00
ENDCHAR
STARTCHAR 03FF
ENCODING 1023
SWIDTH 720 0
DWIDTH 12 0
BBX 10 12 1 0
BITMAP
3E00
6180
C0C0
00C0
0040
0C40
0040
0040
00C0
C0C0
6180
3E00
ENDCHAR
STARTCHAR 0400
ENCODING 1024
SWIDTH 720 0
DWIDTH 12 0
BBX 12 16 0 1
BITMAP
0700
0300
0380
0100
0FF0
3FF0
7FF0
7000
F000
FFF0
FFF0
F000
F000
FFF0
7FE0
7FE0
ENDCHAR
STARTCHAR 0401
ENCODING 1025
SWIDTH 720 0
DWIDTH 12 0
BBX 12 15 0 0
BITMAP
0CC0
0EE0
0EE0
0FF0
3FF0
7FF0
7000
F000
FFF0
FFF0
F000
F000
FFF0
7FE0
7FE0
ENDCHAR
STARTCHAR 0402
ENCODING 1026
SWIDTH 900 0
DWIDTH 15 0
BBX 14 12 0 0
BITMAP
FFC0
0C00
0C00
0C00
0C00
0FF0
0E18
0C0C
0C0C
0C0C
0C88
0C70
ENDCHAR
STARTCHAR 0403
ENCODING 1027
SWIDTH 720 0
DWIDTH 12 0
BBX 13 17 0 0
BITMAP
0180
0180
0380
0380
0000
0FF8
3FF8
7FF0
7000
F000
F000
F000
F000
F000
E000
E000
E000
ENDCHAR
STARTCHAR 0404
ENCODING 1028
SWIDTH 720 0
DWIDTH 12 0
BBX 12 12 0 0
BITMAP
0FF0
3FF0
7FF0
7000
F000
FFF0
FFF0
F000
F000
FFF0
7FE0
7FE0
ENDCHAR
STARTCHAR 0405
ENCODING 1029
SWIDTH 660 0
DWIDTH 11 0
BBX 12 12 0 0
BITMAP
0FF0
7FE0
7FE0
F000
E000
FFC0
7FE0
3FE0
0060
FFE0
FFC0
FF80
ENDCHAR
STARTCHAR 0406
ENCODING 1030
SWIDTH 240 0
DWIDTH 4 0
BBX 4 12 0 0
BITMAP
70
70
70
70
70
F0
F0
F0
F0
E0
E0
E0
ENDCHAR
STARTCHAR 0407
ENCODING 1031
SWIDTH 420 0
DWIDTH 7 0
BBX 7 15 0 0
BITMAP
CC
EE
CC
78
78
70
70
70
70
70
70
F0
F0
F0
F0
ENDCHAR
STARTCHAR 0408
ENCODING 1032
SWIDTH 480 0
DWIDTH 8 0
BBX 8 12 0 0
BITMAP
0F
0F
0F
0E
0E
0E
0E
0E
1E
FE
FC
F8
ENDCHAR
STARTCHAR 0409
ENCODING 1033
SWIDTH 1080 0
DWIDTH 18 0
BBX 17 12 0 0
BITMAP
3FC000
30C000
30C000
30C000
30C000
30FF00
30C180
30C180
30C080
30C180
A0C180
60FF00
ENDCHAR
STARTCHAR 040A
ENCODING 1034
SWIDTH 1020 0
DWIDTH 17 0
BBX 16 12 1 0
BITMAP
C300
C300
C300
C300
C300
FFFC
C306
C302
C303
C302
C306
C3FC
ENDCHAR
STARTCHAR 040B
ENCODING 1035
SWIDTH 900 0
DWIDTH 15 0
BBX 14 12 0 0
BITMAP
FFC0
0C00
0C00
0C00
0C00
0FF0
0E18
0C0C
0C0C
0C0C
0C0C
0C0C
ENDCHAR
STARTCHAR 040C
ENCODING 1036
SWIDTH 720 0
DWIDTH 12 0
BBX 13 17 0 0
BITMAP
0180
0380
0380
0300
0000
78F8
71F0
73E0
F3C0
F7C0
FF80
FF00
FF80
F7C0
F3C0
F3E0
E1F0
ENDCHAR
STARTCHAR 040D
ENCODING 1037
SWIDTH 720 0
DWIDTH 12 0
BBX 12 17 0 0
BITMAP
0400
0E00
0600
0600
0000
7070
7070
7070
F070
E070
E070
E0F0
E0F0
E0E0
FFE0
FFE0
7FE0
ENDCHAR
STARTCHAR 040E
ENCODING 1038
SWIDTH 720 0
DWIDTH 12 0
BBX 12 15 0 0
BITMAP
0700
0700
0700
7070
7070
F070
F070
F070
FFF0
7FF0
7FE0
00E0
FFE0
FFE0
FFC0
ENDCHAR
STARTCHAR 040F
ENCODING 1039
SWIDTH 720 0
DWIDTH 12 0
BBX 10 15 1 -3
BITMAP
C0C0
C0C0
C0C0
C0C0
C0C0
C0C0
C0C0
C0C0
C0C0
C0C0
C0C0
FFC0
0C00
0C00
0C00
ENDCHAR
STARTCHAR 0410
ENCODING 1040
SWIDTH 720 0
DWIDTH 12 0
BBX 12 12 0 0
BITMAP
0FC0
3FE0
7FF0
7070
F070
F070
FFF0
FFF0
E0F0
E0E0
E0E0
E0E0
ENDCHAR
STARTCHAR 0411
ENCODING 1041
SWIDTH 720 0
DWIDTH 12 0
BBX 13 12 0 0
BITMAP
0FF8
3FF0
7FF0
7000
FFE0
FFF0
FFF0
F070
F070
FFF0
FFE0
FFC0
ENDCHAR
STARTCHAR 0412
ENCODING 1042
SWIDTH 720 0
DWIDTH 12 0
BBX 12 12 0 0
BITMAP
7FC0
7FF0
7FF0
7070
F070
FFF0
FFF0
FFF0
F070
FFF0
FFF0
FFC0
ENDCHAR
STARTCHAR 0413
ENCODING 1043
SWIDTH 720 0
DWIDTH 12 0
BBX 13 12 0 0
BITMAP
0FF8
3FF8
7FF0
7000
F000
F000
F000
F000
F000
E000
E000
E000
ENDCHAR
STARTCHAR 0414
ENCODING 1044
SWIDTH 900 0
DWIDTH 15 0
BBX 15 14 0 -2
BITMAP
1FF0
3FF8
3FFC
3FFC
381C
3838
3838
3838
3838
7FF8
7FFC
7FFC
F01E
F01C
ENDCHAR
STARTCHAR 0415
ENCODING 1045
SWIDTH 720 0
DWIDTH 12 0
BBX 12 12 0 0
BITMAP
0FF0
3FF0
7FF0
7000
F000
FFF0
FFF0
F000
F000
FFF0
7FE0
7FE0
ENDCHAR
STARTCHAR 0416
ENCODING 1046
SWIDTH 1260 0
DWIDTH 21 0
BBX 22 12 -1 0
BITMAP
7C387C
3E78F8
1E79F0
1F7BE0
0FFFC0
0FFF80
07FF80
0FFFC0
1F7BC0
3E73E0
7C71F0
F8F0F0
ENDCHAR
STARTCHAR 0417
ENCODING 1047
SWIDTH 720 0
DWIDTH 12 0
BBX 12 12 0 0
BITMAP
7FC0
7FE0
7FF0
0070
00F0
0FE0
0FE0
1FF0
00F0
FFE0
FFE0
FF80
ENDCHAR
STARTCHAR 0418
ENCODING 1048
SWIDTH 720 0
DWIDTH 12 0
BBX 12 12 0 0
BITMAP
7070
7070
7070
F070
E070
E070
E0F0
E0F0
E0E0
FFE0
FFE0
7FE0
ENDCHAR
STARTCHAR 0419
ENCODING 1049
SWIDTH 720 0
DWIDTH 12 0
BBX 12 15 0 0
BITMAP
0300
0700
0300
7070
7070
7070
F070
E070
E070
E0F0
E0F0
E0E0
FFE0
FFE0
7FE0
ENDCHAR
STARTCHAR 041A
ENCODING 1050
SWIDTH 720 0
DWIDTH 12 0
BBX 13 12 0 0
BITMAP
78F8
71F0
73E0
F3C0
F7C0
FF80
FF00
FF80
F7C0
F3C0
F3E0
E1F0
ENDCHAR
STARTCHAR 041B
ENCODING 1051
SWIDTH 840 0
DWIDTH 14 0
BBX 14 12 0 0
BITMAP
1FF0
1FFC
1FFC
1FFC
1C1C
1C1C
3C1C
3C1C
3C1C
781C
F83C
F038
ENDCHAR
STARTCHAR 041C
ENCODING 1052
SWIDTH 900 0
DWIDTH 15 0
BBX 15 12 0 0
BITMAP
0FF8
3FFC
7FFC
7FFE
F38E
F39C
F39C
F39C
F39C
E39C
E79C
E01C
ENDCHAR
STARTCHAR 041D
ENCODING 1053
SWIDTH 720 0
DWIDTH 12 0
BBX 12 12 0 0
BITMAP
7070
7070
70F0
70F0
F0F0
FFF0
FFF0
FFE0
E0E0
E0E0
E0E0
E0E0
ENDCHAR
STARTCHAR 041E
ENCODING 1054
SWIDTH 780 0
DWIDTH 13 0
BBX 13 12 0 0
BITMAP
1FE0
3FF0
7FF0
7078
F078
E078
E078
E070
E070
FFF0
FFE0
7FE0
ENDCHAR
STARTCHAR 041F
ENCODING 1055
SWIDTH 720 0
DWIDTH 12 0
BBX 12 12 0 0
BITMAP
7FC0
7FF0
7FF0
7FF0
7070
F070
F070
E070
E070
E0F0
E0E0
E0E0
ENDCHAR
STARTCHAR 0420
ENCODING 1056
SWIDTH 720 0
DWIDTH 12 0
BBX 12 12 0 0
BITMAP
7FC0
7FF0
7FF0
7070
F070
FFF0
FFF0
FFE0
F000
E000
E000
E000
ENDCHAR
STARTCHAR 0421
ENCODING 1057
SWIDTH 720 0
DWIDTH 12 0
BBX 12 12 0 0
BITMAP
0FF0
3FF0
7FF0
7000
F000
E000
E000
E000
E000
FFE0
7FE0
7FE0
ENDCHAR
STARTCHAR 0422
ENCODING 1058
SWIDTH 900 0
DWIDTH 15 0
BBX 15 12 0 0
BITMAP
7FF8
7FFC
7FFC
7FFE
F38E
F39C
E39C
E39C
E39C
E39C
E39C
E71C
ENDCHAR
STARTCHAR 0423
ENCODING 1059
SWIDTH 720 0
DWIDTH 12 0
BBX 12 12 0 0
BITMAP
7070
7070
F070
F070
F070
FFF0
7FF0
7FE0
00E0
FFE0
FFE0
FFC0
ENDCHAR
STARTCHAR 0424
ENCODING 1060
SWIDTH 780 0
DWIDTH 13 0
BBX 13 15 0 -2
BITMAP
0780
1FE0
3FF0
7FF0
7778
F778
E778
E778
E770
EF70
FFF0
FFE0
7FE0
0E00
0E00
ENDCHAR
STARTCHAR 0425
ENCODING 1061
SWIDTH 780 0
DWIDTH 13 0
BBX 14 12 0 0
BITMAP
787C
7CF8
3FF0
1FE0
0FC0
0F80
0780
0F80
1FC0
3FE0
79F0
F0F0
ENDCHAR
STARTCHAR 0426
ENCODING 1062
SWIDTH 780 0
DWIDTH 13 0
BBX 13 14 0 -2
BITMAP
7070
7070
7070
F070
E070
E070
E0F0
E0F0
E0E0
FFF8
FFF8
7FF8
0038
0038
ENDCHAR
STARTCHAR 0427
ENCODING 1063
SWIDTH 720 0
DWIDTH 12 0
BBX 12 12 0 0
BITMAP
7070
7070
F070
F070
F070
FFF0
7FF0
7FE0
00E0
00E0
00E0
00E0
ENDCHAR
STARTCHAR 0428
ENCODING 1064
SWIDTH 900 0
DWIDTH 15 0
BBX 15 12 0 0
BITMAP
639E
E39E
E39C
E39C
E31C
E71C
E71C
E71C
E71C
FFFC
FFFC
7FF8
ENDCHAR
STARTCHAR 0429
ENCODING 1065
SWIDTH 960 0
DWIDTH 16 0
BBX 15 14 0 -2
BITMAP
E39E
E39C
E39C
E39C
E31C
E71C
E71C
E71C
E71C
FFFE
FFFE
7FFE
000E
000E
ENDCHAR
STARTCHAR 042A
ENCODING 1066
SWIDTH 900 0
DWIDTH 15 0
BBX 14 12 1 0
BITMAP
C000
F000
F800
7800
7FF0
7FF8
7FFC
707C
703C
7FFC
7FF8
7FF0
ENDCHAR
STARTCHAR 042B
ENCODING 1067
SWIDTH 1020 0
DWIDTH 17 0
BBX 17 12 0 0
BITMAP
700380
700380
700380
700380
7FE380
FFF780
FFFF80
F0FF80
F07F80
FFFF80
FFF700
FFE700
ENDCHAR
STARTCHAR 042C
ENCODING 1068
SWIDTH 780 0
DWIDTH 13 0
BBX 13 12 0 0
BITMAP
7000
7000
7000
7000
7FE0
FFF0
FFF8
F0F8
F078
FFF8
FFF0
FFE0
ENDCHAR
STARTCHAR 042D
ENCODING 1069
SWIDTH 720 0
DWIDTH 12 0
BBX 12 12 0 0
BITMAP
7FC0
7FE0
7FF0
00F0
0070
FFF0
FFF0
FFF0
00F0
FFE0
FFE0
FFC0
ENDCHAR
STARTCHAR 042E
ENCODING 1070
SWIDTH 1080 0
DWIDTH 18 0
BBX 17 12 0 0
BITMAP
70FF00
71FF80
73FF80
738380
F78380
FF0380
FF0380
FF0380
E70780
E7FF80
E7FF00
E3FF00
ENDCHAR
STARTCHAR 042F
ENCODING 1071
SWIDTH 780 0
DWIDTH 13 0
BBX 12 12 0 0
BITMAP
1FF0
7FF0
FFF0
F070
E070
FFF0
7FE0
3FE0
3CE0
78E0
78E0
F1E0
ENDCHAR
STARTCHAR 0430
ENCODING 1072
SWIDTH 720 0
DWIDTH 12 0
BBX 12 12 0 0
BITMAP
0FC0
3FE0
7FF0
7070
F070
F070
FFF0
FFF0
E0F0
E0E0
E0E0
E0E0
ENDCHAR
STARTCHAR 0431
ENCODING 1073
SWIDTH 720 0
DWIDTH 12 0
BBX 13 12 0 0
BITMAP
0FF8
3FF0
7FF0
7000
FFE0
FFF0
FFF0
F070
F070
FFF0
FFE0
FFC0
ENDCHAR
STARTCHAR 0432
ENCODING 1074
SWIDTH 720 0
DWIDTH 12 0
BBX 12 12 0 0
BITMAP
7FC0
7FF0
7FF0
7070
F070
FFF0
FFF0
FFF0
F070
FFF0
FFF0
FFC0
ENDCHAR
STARTCHAR 0433
ENCODING 1075
SWIDTH 720 0
DWIDTH 12 0
BBX 13 12 0 0
BITMAP
0FF8
3FF8
7FF0
7000
F000
F000
F000
F000
F000
E000
E000
E000
ENDCHAR
STARTCHAR 0434
ENCODING 1076
SWIDTH 900 0
DWIDTH 15 0
BBX 15 14 0 -2
BITMAP
1FF0
3FF8
3FFC
3FFC
381C
3838
3838
3838
3838
7FF8
7FFC
7FFC
F01E
F01C
ENDCHAR
STARTCHAR 0435
ENCODING 1077
SWIDTH 720 0
DWIDTH 12 0
BBX 12 12 0 0
BITMAP
0FF0
3FF0
7FF0
7000
F000
FFF0
FFF0
F000
F000
FFF0
7FE0
7FE0
ENDCHAR
STARTCHAR 0436
ENCODING 1078
SWIDTH 1260 0
DWIDTH 21 0
BBX 22 12 -1 0
BITMAP
7C387C
3E78F8
1E79F0
1F7BE0
0FFFC0
0FFF80
07FF80
0FFFC0
1F7BC0
3E73E0
7C71F0
F8F0F0
ENDCHAR
STARTCHAR 0437
ENCODING 1079
SWIDTH 720 0
DWIDTH 12 0
BBX 12 12 0 0
BITMAP
7FC0
7FE0
7FF0
0070
00F0
0FE0
0FE0
1FF0
00F0
FFE0
FFE0
FF80
ENDCHAR
STARTCHAR 0438
ENCODING 1080
SWIDTH 720 0
DWIDTH 12 0
BBX 12 12 0 0
BITMAP
7070
7070
7070
F070
E070
E070
E0F0
E0F0
E0E0
FFE0
FFE0
7FE0
ENDCHAR
STARTCHAR 0439
ENCODING 1081
SWIDTH 720 0
DWIDTH 12 0
BBX 12 15 0 0
BITMAP
0300
0700
0300
7070
7070
7070
F070
E070
E070
E0F0
E0F0
E0E0
FFE0
FFE0
7FE0
ENDCHAR
STARTCHAR 043A
ENCODING 1082
SWIDTH 720 0
DWIDTH 12 0
BBX 13 12 0 0
BITMAP
78F8
71F0
73E0
F3C0
F7C0
FF80
FF00
FF80
F7C0
F3C0
F3E0
E1F0
ENDCHAR
STARTCHAR 043B
ENCODING 1083
SWIDTH 840 0
DWIDTH 14 0
BBX 14 12 0 0
BITMAP
1FF0
1FFC
1FFC
1FFC
1C1C
1C1C
3C1C
3C1C
3C1C
781C
F83C
F038
ENDCHAR
STARTCHAR 043C
ENCODING 1084
SWIDTH 900 0
DWIDTH 15 0
BBX 15 12 0 0
BITMAP
0FF8
3FFC
7FFC
7FFE
F38E
F39C
F39C
F39C
F39C
E39C
E79C
E01C
ENDCHAR
STARTCHAR 043D
ENCODING 1085
SWIDTH 720 0
DWIDTH 12 0
BBX 12 12 0 0
BITMAP
7070
7070
70F0
70F0
F0F0
FFF0
FFF0
FFE0
E0E0
E0E0
E0E0
E0E0
ENDCHAR
STARTCHAR 043E
ENCODING 1086
SWIDTH 780 0
DWIDTH 13 0
BBX 13 12 0 0
BITMAP
1FE0
3FF0
7FF0
7078
F078
E078
E078
E070
E070
FFF0
FFE0
7FE0
ENDCHAR
STARTCHAR 043F
ENCODING 1087
SWIDTH 720 0
DWIDTH 12 0
BBX 12 12 0 0
BITMAP
7FC0
7FF0
7FF0
7FF0
7070
F070
F070
E070
E070
E0F0
E0E0
E0E0
ENDCHAR
STARTCHAR 0440
ENCODING 1088
SWIDTH 720 0
DWIDTH 12 0
BBX 12 12 0 0
BITMAP
7FC0
7FF0
7FF0
7070
F070
FFF0
FFF0
FFE0
F000
E000
E000
E000
ENDCHAR
STARTCHAR 0441
ENCODING 1089
SWIDTH 720 0
DWIDTH 12 0
BBX 12 12 0 0
BITMAP
0FF0
3FF0
7FF0
7000
F000
E000
E000
E000
E000
FFE0
7FE0
7FE0
ENDCHAR
STARTCHAR 0442
ENCODING 1090
SWIDTH 900 0
DWIDTH 15 0
BBX 15 12 0 0
BITMAP
7FF8
7FFC
7FFC
7FFE
F38E
F39C
E39C
E39C
E39C
E39C
E39C
E71C
ENDCHAR
STARTCHAR 0443
ENCODING 1091
SWIDTH 720 0
DWIDTH 12 0
BBX 12 12 0 0
BITMAP
7070
7070
F070
F070
F070
FFF0
7FF0
7FE0
00E0
FFE0
FFE0
FFC0
ENDCHAR
STARTCHAR 0444
ENCODING 1092
SWIDTH 780 0
DWIDTH 13 0
BBX 13 15 0 -2
BITMAP
0780
1FE0
3FF0
7FF0
7778
F778
E778
E778
E770
EF70
FFF0
FFE0
7FE0
0E00
0E00
ENDCHAR
STARTCHAR 0445
ENCODING 1093
SWIDTH 780 0
DWIDTH 13 0
BBX 14 12 0 0
BITMAP
787C
7CF8
3FF0
1FE0
0FC0
0F80
0780
0F80
1FC0
3FE0
79F0
F0F0
ENDCHAR
STARTCHAR 0446
ENCODING 1094
SWIDTH 780 0
DWIDTH 13 0
BBX 13 14 0 -2
BITMAP
7070
7070
7070
F070
E070
E070
E0F0
E0F0
E0E0
FFF8
FFF8
7FF8
0038
0038
ENDCHAR
STARTCHAR 0447
ENCODING 1095
SWIDTH 720 0
DWIDTH 12 0
BBX 12 12 0 0
BITMAP
7070
7070
F070
F070
F070
FFF0
7FF0
7FE0
00E0
00E0
00E0
00E0
ENDCHAR
STARTCHAR 0448
ENCODING 1096
SWIDTH 900 0
DWIDTH 15 0
BBX 15 12 0 0
BITMAP
639E
E39E
E39C
E39C
E31C
E71C
E71C
E71C
E71C
FFFC
FFFC
7FF8
ENDCHAR
STARTCHAR 0449
ENCODING 1097
SWIDTH 960 0
DWIDTH 16 0
BBX 15 14 0 -2
BITMAP
E39E
E39C
E39C
E39C
E31C
E71C
E71C
E71C
E71C
FFFE
FFFE
7FFE
000E
000E
ENDCHAR
STARTCHAR 044A
ENCODING 1098
SWIDTH 900 0
DWIDTH 15 0
BBX 14 12 1 0
BITMAP
C000
F000
F800
7800
7FF0
7FF8
7FFC
707C
703C
7FFC
7FF8
7FF0
ENDCHAR
STARTCHAR 044B
ENCODING 1099
SWIDTH 1020 0
DWIDTH 17 0
BBX 17 12 0 0
BITMAP
700380
700380
700380
700380
7FE380
FFF780
FFFF80
F0FF80
F07F80
FFFF80
FFF700
FFE700
ENDCHAR
STARTCHAR 044C
ENCODING 1100
SWIDTH 780 0
DWIDTH 13 0
BBX 13 12 0 0
BITMAP
7000
7000
7000
7000
7FE0
FFF0
FFF8
F0F8
F078
FFF8
FFF0
FFE0
ENDCHAR
STARTCHAR 044D
ENCODING 1101
SWIDTH 720 0
DWIDTH 12 0
BBX 12 12 0 0
BITMAP
7FC0
7FE0
7FF0
00F0
0070
FFF0
FFF0
FFF0
00F0
FFE0
FFE0
FFC0
ENDCHAR
STARTCHAR 044E
ENCODING 1102
SWIDTH 1080 0
DWIDTH 18 0
BBX 17 12 0 0
BITMAP
70FF00
71FF80
73FF80
738380
F78380
FF0380
FF0380
FF0380
E70780
E7FF80
E7FF00
E3FF00
ENDCHAR
STARTCHAR 044F
ENCODING 1103
SWIDTH 780 0
DWIDTH 13 0
BBX 12 12 0 0
BITMAP
1FF0
7FF0
FFF0
F070
E070
FFF0
7FE0
3FE0
3CE0
78E0
78E0
F1E0
ENDCHAR
STARTCHAR 0450
ENCODING 1104
SWIDTH 720 0
DWIDTH 12 0
BBX 12 16 0 1
BITMAP
0700
0300
0380
0100
0FF0
3FF0
7FF0
7000
F000
FFF0
FFF0
F000
F000
FFF0
7FE0
7FE0
ENDCHAR
STARTCHAR 0451
ENCODING 1105
SWIDTH 720 0
DWIDTH 12 0
BBX 12 15 0 0
BITMAP
0CC0
0EE0
0EE0
0FF0
3FF0
7FF0
7000
F000
FFF0
FFF0
F000
F000
FFF0
7FE0
7FE0
ENDCHAR
STARTCHAR 0452
ENCODING 1106
SWIDTH 540 0
DWIDTH 9 0
BBX 8 15 0 -3
BITMAP
60
F8
60
7E
63
61
61
61
61
61
61
61
01
01
07
ENDCHAR
STARTCHAR 0453
ENCODING 1107
SWIDTH 720 0
DWIDTH 12 0
BBX 13 17 0 0
BITMAP
0180
0180
0380
0380
0000
0FF8
3FF8
7FF0
7000
F000
F000
F000
F000
F000
E000
E000
E000
ENDCHAR
STARTCHAR 0454
ENCODING 1108
SWIDTH 720 0
DWIDTH 12 0
BBX 12 12 0 0
BITMAP
0FF0
3FF0
7FF0
7000
F000
FFF0
FFF0
F000
F000
FFF0
7FE0
7FE0
ENDCHAR
STARTCHAR 0455
ENCODING 1109
SWIDTH 660 0
DWIDTH 11 0
BBX 12 12 0 0
BITMAP
0FF0
7FE0
7FE0
F000
E000
FFC0
7FE0
3FE0
0060
FFE0
FFC0
FF80
ENDCHAR
STARTCHAR 0456
ENCODING 1110
SWIDTH 240 0
DWIDTH 4 0
BBX 4 12 0 0
BITMAP
70
70
70
70
70
F0
F0
F0
F0
E0
E0
E0
ENDCHAR
STARTCHAR 0457
ENCODING 1111
SWIDTH 420 0
DWIDTH 7 0
BBX 7 15 0 0
BITMAP
CC
EE
CC
78
78
70
70
70
70
70
70
F0
F0
F0
F0
ENDCHAR
STARTCHAR 0458
ENCODING 1112
SWIDTH 480 0
DWIDTH 8 0
BBX 8 12 0 0
BITMAP
0F
0F
0F
0E
0E
0E
0E
0E
1E
FE
FC
F8
ENDCHAR
STARTCHAR 0459
ENCODING 1113
SWIDTH 900 0
DWIDTH 15 0
BBX 15 9 0 0
BITMAP
3F80
2080
2080
2080
20FC
2086
2086
2086
E0FC
ENDCHAR
STARTCHAR 045A
ENCODING 1114
SWIDTH 840 0
DWIDTH 14 0
BBX 12 9 1 0
BITMAP
C400
C400
C400
C400
FFE0
C430
C410
C430
C7E0
ENDCHAR
STARTCHAR 045B
ENCODING 1115
SWIDTH 540 0
DWIDTH 9 0
BBX 8 12 0 0
BITMAP
60
F8
60
7E
63
61
61
61
61
61
61
61
ENDCHAR
STARTCHAR 045C
ENCODING 1116
SWIDTH 720 0
DWIDTH 12 0
BBX 13 17 0 0
BITMAP
0180
0380
0380
0300
0000
78F8
71F0
73E0
F3C0
F7C0
FF80
FF00
FF80
F7C0
F3C0
F3E0
E1F0
ENDCHAR
STARTCHAR 045D
ENCODING 1117
SWIDTH 720 0
DWIDTH 12 0
BBX 12 17 0 0
BITMAP
0400
0E00
0600
0600
0000
7070
7070
7070
F070
E070
E070
E0F0
E0F0
E0E0
FFE0
FFE0
7FE0
ENDCHAR
STARTCHAR 045E
ENCODING 1118
SWIDTH 720 0
DWIDTH 12 0
BBX 12 15 0 0
BITMAP
0700
0700
0700
7070
7070
F070
F070
F070
FFF0
7FF0
7FE0
00E0
FFE0
FFE0
FFC0
ENDCHAR
STARTCHAR 045F
ENCODING 1119
SWIDTH 540 0
DWIDTH 9 0
BBX 7 12 1 -3
BITMAP
C2
C2
C2
C2
C2
C2
C2
C2
FE
10
10
10
ENDCHAR
STARTCHAR 0460
ENCODING 1120
SWIDTH 1380 0
DWIDTH 23 0
BBX 21 12 1 0
BITMAP
1F8FC0
308860
600030
C00010
C00018
C00018
C02018
C02018
C02010
602030
30F060
1F8F80
ENDCHAR
STARTCHAR 0461
ENCODING 1121
SWIDTH 660 0
DWIDTH 11 0
BBX 10 9 0 0
BITMAP
C840
C840
C8C0
CC80
4C80
6D80
3F00
3B00
3300
ENDCHAR
STARTCHAR 0462
ENCODING 1122
SWIDTH 780 0
DWIDTH 13 0
BBX 13 12 0 0
BITMAP
1800
1800
FF00
1800
1800
1FE0
1830
1810
1818
1810
1830
1FE0
ENDCHAR
STARTCHAR 0463
ENCODING 1123
SWIDTH 600 0
DWIDTH 10 0
BBX 10 12 0 0
BITMAP
1000
1000
1000
FE00
1000
1000
1000
1F80
10C0
10C0
10C0
1F80
ENDCHAR
STARTCHAR 0464
ENCODING 1124
SWIDTH 960 0
DWIDTH 16 0
BBX 13 12 2 0
BITMAP
83E0
8C18
8808
9800
9800
FF80
9800
9800
9800
8C08
8618
83E0
ENDCHAR
STARTCHAR 0465
ENCODING 1125
SWIDTH 720 0
DWIDTH 12 0
BBX 11 9 1 0
BITMAP
C780
CCC0
D860
D800
FF00
D800
D860
CC40
C780
ENDCHAR
STARTCHAR 0466
ENCODING 1126
SWIDTH 660 0
DWIDTH 11 0
BBX 11 12 0 0
BITMAP
0600
0A00
0B00
1900
1100
1180
3F80
24C0
64C0
6440
4460
C460
ENDCHAR
STARTCHAR 0467
ENCODING 1127
SWIDTH 540 0
DWIDTH 9 0
BBX 8 9 0 0
BITMAP
18
1C
1C
34
26
7E
7A
5B
D9
ENDCHAR
STARTCHAR 0468
ENCODING 1128
SWIDTH 900 0
DWIDTH 15 0
BBX 13 12 2 0
BITMAP
8180
8280
8280
86C0
8440
8460
FFE0
8920
9930
9110
B118
B118
ENDCHAR
STARTCHAR 0469
ENCODING 1129
SWIDTH 720 0
DWIDTH 12 0
BBX 11 9 1 0
BITMAP
C200
C700
C500
C580
CC80
FF80
DAC0
DA40
D260
ENDCHAR
STARTCHAR 046A
ENCODING 1130
SWIDTH 840 0
DWIDTH 14 0
BBX 12 12 1 0
BITMAP
7FE0
7060
30C0
1880
1980
0F00
3FC0
6660
C630
C630
C630
C630
ENDCHAR
STARTCHAR 046B
ENCODING 1131
SWIDTH 720 0
DWIDTH 12 0
BBX 10 9 1 0
BITMAP
7F80
2300
3200
1E00
7F00
4D80
CC80
CCC0
CCC0
ENDCHAR
STARTCHAR 046C
ENCODING 1132
SWIDTH 1080 0
DWIDTH 18 0
BBX 15 12 2 0
BITMAP
8FFC
8E18
8618
8330
81E0
FFF0
8CCC
98C4
98C6
90C6
90C6
90C6
ENDCHAR
STARTCHAR 046D
ENCODING 1133
SWIDTH 900 0
DWIDTH 15 0
BBX 13 9 1 0
BITMAP
CFF0
C460
C640
C3C0
FFE0
D990
D998
D998
D998
ENDCHAR
STARTCHAR 046E
ENCODING 1134
SWIDTH 600 0
DWIDTH 10 0
BBX 9 18 1 -3
BITMAP
2600
3400
1C00
3C00
4300
C300
8300
0300
1E00
0300
0100
0180
0100
0300
7E00
C000
CE00
7B00
ENDCHAR
STARTCHAR 046F
ENCODING 1135
SWIDTH 480 0
DWIDTH 8 0
BBX 7 15 0 -3
BITMAP
26
24
18
3C
66
46
06
1C
06
02
06
7C
C0
CE
7A
ENDCHAR
STARTCHAR 0470
ENCODING 1136
SWIDTH 840 0
DWIDTH 14 0
BBX 12 12 1 0
BITMAP
8430
C430
C430
4430
6420
6460
34E0
1F80
0400
0400
0400
0400
ENDCHAR
STARTCHAR 0471
ENCODING 1137
SWIDTH 720 0
DWIDTH 12 0
BBX 10 12 1 -3
BITMAP
88C0
88C0
C8C0
C8C0
48C0
48C0
6880
2980
3F00
0800
0800
0800
ENDCHAR
STARTCHAR 0472
ENCODING 1138
SWIDTH 780 0
DWIDTH 13 0
BBX 11 12 1 0
BITMAP
1F00
30C0
6040
C060
C020
FC20
C3E0
C020
C060
4060
30C0
1F00
ENDCHAR
STARTCHAR 0473
ENCODING 1139
SWIDTH 540 0
DWIDTH 9 0
BBX 8 9 1 0
BITMAP
3C
C6
83
F3
8F
83
C3
C6
3C
ENDCHAR
STARTCHAR 0474
ENCODING 1140
SWIDTH 840 0
DWIDTH 14 0
BBX 13 12 0 0
BITMAP
C038
4060
6040
60C0
2080
3080
1180
1100
1B00
0A00
0A00
0600
ENDCHAR
STARTCHAR 0475
ENCODING 1141
SWIDTH 660 0
DWIDTH 11 0
BBX 10 9 0 0
BITMAP
C1C0
4300
6200
2200
2600
3400
1400
1C00
1800
ENDCHAR
STARTCHAR 0476
ENCODING 1142
SWIDTH 840 0
DWIDTH 14 0
BBX 13 15 0 0
BITMAP
1200
1B00
0000
C078
4068
6040
20C0
2080
3180
1180
1900
1B00
0A00
0E00
0600
ENDCHAR
STARTCHAR 0477
ENCODING 1143
SWIDTH 660 0
DWIDTH 11 0
BBX 10 12 0 0
BITMAP
6C00
3400
0000
C1C0
4340
6200
6200
2600
3400
1C00
1C00
1800
ENDCHAR
STARTCHAR 0478
ENCODING 1144
SWIDTH 1080 0
DWIDTH 18 0
BBX 17 15 1 -3
BITMAP
3C0000
630000
C10000
C1E180
C1A180
81B100
81B300
C19200
C19A00
C11E00
630C00
3C0C00
000800
000800
003000
ENDCHAR
STARTCHAR 0479
ENCODING 1145
SWIDTH 900 0
DWIDTH 15 0
BBX 14 12 1 -3
BITMAP
730C
C90C
8D88
8D98
8C90
8CD0
8CF0
C860
7060
0040
0040
0180
ENDCHAR
STARTCHAR 047A
ENCODING 1146
SWIDTH 840 0
DWIDTH 14 0
BBX 14 14 0 -1
BITMAP
0300
0FC0
3330
6018
4008
C00C
C00C
C00C
C00C
4008
6018
3330
0FC0
0300
ENDCHAR
STARTCHAR 047B
ENCODING 1147
SWIDTH 600 0
DWIDTH 10 0
BBX 10 11 0 -1
BITMAP
0C00
3F00
6D80
40C0
C040
C040
C040
40C0
6D80
3F00
0C00
ENDCHAR
STARTCHAR 047C
ENCODING 1148
SWIDTH 1200 0
DWIDTH 20 0
BBX 18 16 1 0
BITMAP
01E000
031800
02C600
004000
1F3E00
300180
600080
C000C0
C00040
C00040
C00040
C00040
C000C0
4000C0
60C180
1F3E00
ENDCHAR
STARTCHAR 047D
ENCODING 1149
SWIDTH 840 0
DWIDTH 14 0
BBX 13 14 1 0
BITMAP
0700
08C0
1230
0200
0000
3060
4030
8010
8018
8018
8018
8018
C230
3DE0
ENDCHAR
STARTCHAR 047E
ENCODING 1150
SWIDTH 1380 0
DWIDTH 23 0
BBX 21 15 1 0
BITMAP
01FC00
010000
000000
1F8FC0
708860
600030
C00010
C00018
C00018
C02018
C02018
C02010
602030
30F8E0
1F9FC0
ENDCHAR
STARTCHAR 047F
ENCODING 1151
SWIDTH 660 0
DWIDTH 11 0
BBX 10 11 0 0
BITMAP
3F80
0000
C840
C840
C8C0
CC80
4C80
6D80
3F00
3B00
3300
ENDCHAR
STARTCHAR 0480
ENCODING 1152
SWIDTH 720 0
DWIDTH 12 0
BBX 10 15 1 -3
BITMAP
1F00
20C0
4040
C000
C000
C000
C000
C000
C000
4000
6000
1C00
0400
0400
0400
ENDCHAR
STARTCHAR 0481
ENCODING 1153
SWIDTH 540 0
DWIDTH 9 0
BBX 7 12 1 -3
BITMAP
3C
46
C0
80
80
80
80
C0
70
10
10
10
ENDCHAR
STARTCHAR 0482
ENCODING 1154
SWIDTH 540 0
DWIDTH 9 0
BBX 8 12 0 0
BITMAP
04
04
04
6C
1C
0B
88
78
16
10
30
20
ENDCHAR
STARTCHAR 0483
ENCODING 1155
SWIDTH 0 0
DWIDTH 0 0
BBX 6 3 -3 10
BITMAP
0C
FC
C0
ENDCHAR
STARTCHAR 0484
ENCODING 1156
SWIDTH 0 0
DWIDTH 0 0
BBX 6 2 -3 10
BITMAP
18
E4
ENDCHAR
STARTCHAR 0485
ENCODING 1157
SWIDTH 0 0
DWIDTH 0 0
BBX 2 3 -1 9
BITMAP
C0
80
40
ENDCHAR
STARTCHAR 0486
ENCODING 1158
SWIDTH 0 0
DWIDTH 0 0
BBX 2 3 -1 9
BITMAP
C0
40
80
ENDCHAR
STARTCHAR 0487
ENCODING 1159
SWIDTH 0 0
DWIDTH 0 0
BBX 9 3 -4 11
BITMAP
7800
8600
8380
ENDCHAR
STARTCHAR 0488
ENCODING 1160
SWIDTH 0 0
DWIDTH 0 0
BBX 16 15 -8 -3
BITMAP
0180
0240
700E
5012
0000
0000
E007
A009
0000
0000
0000
700E
5012
0180
0240
ENDCHAR
STARTCHAR 0489
ENCODING 1161
SWIDTH 0 0
DWIDTH 0 0
BBX 16 17 -8 -3
BITMAP
0100
0100
2180
2004
3008
1000
0000
0000
A006
6005
0000
0008
100C
2004
0184
0100
0100
ENDCHAR
STARTCHAR 048A
ENCODING 1162
SWIDTH 720 0
DWIDTH 12 0
BBX 11 18 1 -3
BITMAP
1200
1E00
0000
C0C0
C1C0
C1C0
C2C0
C4C0
C4C0
C8C0
C8C0
D0C0
E0C0
E0C0
C0E0
0060
0040
0040
ENDCHAR
STARTCHAR 048B
ENCODING 1163
SWIDTH 600 0
DWIDTH 10 0
BBX 9 15 1 -3
BITMAP
6400
3800
0000
C600
C600
CA00
CA00
D200
D200
E200
E200
C380
0100
0300
0200
ENDCHAR
STARTCHAR 048C
ENCODING 1164
SWIDTH 660 0
DWIDTH 11 0
BBX 11 12 0 0
BITMAP
6000
6000
F000
6000
6000
7F80
60C0
6040
6060
6040
60C0
7F80
ENDCHAR
STARTCHAR 048D
ENCODING 1165
SWIDTH 540 0
DWIDTH 9 0
BBX 8 12 0 0
BITMAP
60
F0
60
60
60
60
60
7E
63
61
63
7E
ENDCHAR
STARTCHAR 048E
ENCODING 1166
SWIDTH 660 0
DWIDTH 11 0
BBX 10 12 1 0
BITMAP
FF00
C180
C080
C0C0
C380
C180
FFC0
C000
C000
C000
C000
C000
ENDCHAR
STARTCHAR 048F
ENCODING 1167
SWIDTH 540 0
DWIDTH 9 0
BBX 8 12 1 -3
BITMAP
BC
E6
C2
C3
83
C3
CE
C6
FF
C0
C0
C0
ENDCHAR
STARTCHAR 0490
ENCODING 1168
SWIDTH 840 0
DWIDTH 14 0
BBX 14 14 0 0
BITMAP
001C
001C
0FFC
3FFC
7FF8
7000
F000
F000
F000
F000
F000
E000
E000
E000
ENDCHAR
STARTCHAR 0491
ENCODING 1169
SWIDTH 840 0
DWIDTH 14 0
BBX 14 14 0 0
BITMAP
001C
001C
0FFC
3FFC
7FF8
7000
F000
F000
F000
F000
F000
E000
E000
E000
ENDCHAR
STARTCHAR 0492
ENCODING 1170
SWIDTH 540 0
DWIDTH 9 0
BBX 9 12 0 0
BITMAP
7F80
6000
6000
6000
6000
FC00
6000
6000
6000
6000
6000
6000
ENDCHAR
STARTCHAR 0493
ENCODING 1171
SWIDTH 360 0
DWIDTH 6 0
BBX 6 9 0 0
BITMAP
7C
60
60
F8
60
60
60
60
60
ENDCHAR
STARTCHAR 0494
ENCODING 1172
SWIDTH 660 0
DWIDTH 11 0
BBX 10 15 1 -3
BITMAP
FF00
C000
C000
C000
DE00
E180
C080
C080
C0C0
C0C0
C0C0
C080
0180
4300
3E00
ENDCHAR
STARTCHAR 0495
ENCODING 1173
SWIDTH 540 0
DWIDTH 9 0
BBX 8 12 1 -3
BITMAP
F8
C0
C0
C0
FC
C6
C2
C3
C3
02
C6
7C
ENDCHAR
STARTCHAR 0496
ENCODING 1174
SWIDTH 960 0
DWIDTH 16 0
BBX 16 15 0 -3
BITMAP
E187
318C
1188
1998
09B0
07E0
0DB0
1998
3188
318C
6184
C187
0003
0003
0003
ENDCHAR
STARTCHAR 0497
ENCODING 1175
SWIDTH 660 0
DWIDTH 11 0
BBX 11 12 0 -3
BITMAP
C460
2440
2480
3480
1F00
3480
64C0
4440
C460
0020
0020
0020
ENDCHAR
STARTCHAR 0498
ENCODING 1176
SWIDTH 600 0
DWIDTH 10 0
BBX 9 15 1 -3
BITMAP
3C00
6300
C300
8300
0300
1C00
0300
0100
0180
8100
C300
3E00
0800
0800
3800
ENDCHAR
STARTCHAR 0499
ENCODING 1177
SWIDTH 480 0
DWIDTH 8 0
BBX 7 12 0 -3
BITMAP
3C
66
46
06
1C
06
C2
66
3C
08
08
78
ENDCHAR
STARTCHAR 049A
ENCODING 1178
SWIDTH 600 0
DWIDTH 10 0
BBX 9 15 1 -3
BITMAP
C380
C600
C400
CC00
C800
F000
D800
CC00
C600
C600
C300
C180
0180
0180
0180
ENDCHAR
STARTCHAR 049B
ENCODING 1179
SWIDTH 420 0
DWIDTH 7 0
BBX 6 12 1 -3
BITMAP
CC
C8
D8
D0
E0
D0
D8
CC
C4
04
04
04
ENDCHAR
STARTCHAR 049C
ENCODING 1180
SWIDTH 600 0
DWIDTH 10 0
BBX 9 12 1 0
BITMAP
C380
C600
D400
DC00
D800
F000
D800
DC00
D600
D600
C300
C180
ENDCHAR
STARTCHAR 049D
ENCODING 1181
SWIDTH 420 0
DWIDTH 7 0
BBX 6 9 1 0
BITMAP
CC
E8
F8
F0
E0
F0
F8
EC
C4
ENDCHAR
STARTCHAR 049E
ENCODING 1182
SWIDTH 600 0
DWIDTH 10 0
BBX 10 12 0 0
BITMAP
61C0
6300
F200
6600
6400
7800
6C00
6600
6300
6300
6180
60C0
ENDCHAR
STARTCHAR 049F
ENCODING 1183
SWIDTH 420 0
DWIDTH 7 0
BBX 7 12 0 0
BITMAP
60
F8
60
66
64
6C
68
70
68
6C
66
62
ENDCHAR
STARTCHAR 04A0
ENCODING 1184
SWIDTH 780 0
DWIDTH 13 0
BBX 12 12 0 0
BITMAP
FC30
0C60
0CC0
0CC0
0D80
0F00
0D80
0CC0
0C40
0C60
0C30
0C30
ENDCHAR
STARTCHAR 04A1
ENCODING 1185
SWIDTH 540 0
DWIDTH 9 0
BBX 9 9 0 0
BITMAP
F180
1300
1200
1600
1C00
1600
1300
1100
1180
ENDCHAR
STARTCHAR 04A2
ENCODING 1186
SWIDTH 720 0
DWIDTH 12 0
BBX 11 15 1 -3
BITMAP
C0C0
C0C0
C0C0
C0C0
C0C0
FFC0
C0C0
C0C0
C0C0
C0C0
C0C0
C0E0
0020
0020
0020
ENDCHAR
STARTCHAR 04A3
ENCODING 1187
SWIDTH 540 0
DWIDTH 9 0
BBX 8 12 1 -3
BITMAP
C2
C2
C2
C2
FE
C2
C2
C2
C3
01
01
01
ENDCHAR
STARTCHAR 04A4
ENCODING 1188
SWIDTH 900 0
DWIDTH 15 0
BBX 14 12 1 0
BITMAP
C0FC
C0C0
C0C0
C0C0
C0C0
FFC0
C0C0
C0C0
C0C0
C0C0
C0C0
C0C0
ENDCHAR
STARTCHAR 04A5
ENCODING 1189
SWIDTH 660 0
DWIDTH 11 0
BBX 10 9 1 0
BITMAP
C3C0
C200
C200
C200
FE00
C200
C200
C200
C200
ENDCHAR
STARTCHAR 04A6
ENCODING 1190
SWIDTH 1140 0
DWIDTH 19 0
BBX 18 15 1 -3
BITMAP
FFC000
C0C000
C0C000
C0C000
C0DE00
C0E180
C0C180
C0C080
C0C0C0
C0C0C0
C0C080
C0C080
000180
00C300
003E00
ENDCHAR
STARTCHAR 04A7
ENCODING 1191
SWIDTH 900 0
DWIDTH 15 0
BBX 13 12 1 -3
BITMAP
FE00
C200
C200
C200
C3E0
C210
C218
C208
C208
0018
0210
01E0
ENDCHAR
STARTCHAR 04A8
ENCODING 1192
SWIDTH 780 0
DWIDTH 13 0
BBX 12 12 1 0
BITMAP
3C00
6380
C480
8CC0
8CC0
8C40
8C40
8CC0
C4C0
C680
6780
3FF0
ENDCHAR
STARTCHAR 04A9
ENCODING 1193
SWIDTH 540 0
DWIDTH 9 0
BBX 9 9 0 0
BITMAP
3800
6E00
4B00
DB00
DB00
DB00
4B00
6E00
3F80
ENDCHAR
STARTCHAR 04AA
ENCODING 1194
SWIDTH 720 0
DWIDTH 12 0
BBX 10 15 1 -3
BITMAP
1F00
61C0
40C0
C000
C000
C000
C000
C000
C000
4040
60C0
1F00
0200
0600
1C00
ENDCHAR
STARTCHAR 04AB
ENCODING 1195
SWIDTH 540 0
DWIDTH 9 0
BBX 7 12 1 -3
BITMAP
3C
C6
C2
80
80
80
82
46
3C
08
08
70
ENDCHAR
STARTCHAR 04AC
ENCODING 1196
SWIDTH 600 0
DWIDTH 10 0
BBX 10 15 0 -3
BITMAP
FFC0
0C00
0C00
0C00
0C00
0C00
0C00
0C00
0C00
0C00
0C00
0E00
0200
0200
0200
ENDCHAR
STARTCHAR 04AD
ENCODING 1197
SWIDTH 480 0
DWIDTH 8 0
BBX 7 12 0 -3
BITMAP
FE
18
18
18
18
18
18
18
1C
0C
0C
0C
ENDCHAR
STARTCHAR 04AE
ENCODING 1198
SWIDTH 540 0
DWIDTH 9 0
BBX 9 12 0 0
BITMAP
C180
6180
6300
3200
1600
1C00
0C00
0800
0800
0800
0800
0800
ENDCHAR
STARTCHAR 04AF
ENCODING 1199
SWIDTH 540 0
DWIDTH 9 0
BBX 8 12 0 -3
BITMAP
C1
43
62
62
26
34
3C
1C
18
08
08
08
ENDCHAR
STARTCHAR 04B0
ENCODING 1200
SWIDTH 540 0
DWIDTH 9 0
BBX 9 12 0 0
BITMAP
C180
6180
6300
3200
3600
1C00
7F80
0800
0800
0800
0800
0800
ENDCHAR
STARTCHAR 04B1
ENCODING 1201
SWIDTH 540 0
DWIDTH 9 0
BBX 8 12 0 -3
BITMAP
C1
43
62
66
26
34
1C
1C
18
7F
08
08
ENDCHAR
STARTCHAR 04B2
ENCODING 1202
SWIDTH 660 0
DWIDTH 11 0
BBX 11 15 0 -3
BITMAP
6060
30C0
3180
1B00
0F00
0600
0E00
1B00
1900
3180
60C0
C060
0020
0020
0020
ENDCHAR
STARTCHAR 04B3
ENCODING 1203
SWIDTH 540 0
DWIDTH 9 0
BBX 8 12 0 -3
BITMAP
63
66
34
1C
18
1C
36
62
C3
01
01
01
ENDCHAR
STARTCHAR 04B4
ENCODING 1204
SWIDTH 960 0
DWIDTH 16 0
BBX 15 15 0 -3
BITMAP
FFCC
0C0C
0C0C
0C0C
0C0C
0C0C
0C0C
0C0C
0C0C
0C0C
0C0C
0FFE
0002
0002
0002
ENDCHAR
STARTCHAR 04B5
ENCODING 1205
SWIDTH 720 0
DWIDTH 12 0
BBX 11 12 0 -3
BITMAP
FE40
1840
1840
1840
1840
1840
1840
1840
1FE0
0020
0020
0020
ENDCHAR
STARTCHAR 04B6
ENCODING 1206
SWIDTH 660 0
DWIDTH 11 0
BBX 10 15 1 -3
BITMAP
8180
8180
8180
8180
8180
C180
C180
3F80
0180
0180
0180
01C0
0040
0040
0040
ENDCHAR
STARTCHAR 04B7
ENCODING 1207
SWIDTH 540 0
DWIDTH 9 0
BBX 8 12 1 -3
BITMAP
86
86
86
86
C6
7E
06
06
07
03
03
03
ENDCHAR
STARTCHAR 04B8
ENCODING 1208
SWIDTH 660 0
DWIDTH 11 0
BBX 9 12 1 0
BITMAP
8180
8180
8180
8980
8980
C980
C980
3F80
0980
0980
0180
0180
ENDCHAR
STARTCHAR 04B9
ENCODING 1209
SWIDTH 540 0
DWIDTH 9 0
BBX 7 9 1 0
BITMAP
86
86
A6
A6
E6
7E
26
26
06
ENDCHAR
STARTCHAR 04BA
ENCODING 1210
SWIDTH 660 0
DWIDTH 11 0
BBX 10 12 1 0
BITMAP
C000
C000
C000
C000
DF00
E180
C080
C0C0
C0C0
C0C0
C0C0
C0C0
ENDCHAR
STARTCHAR 04BB
ENCODING 1211
SWIDTH 720 0
DWIDTH 12 0
BBX 12 12 0 0
BITMAP
7070
7070
70F0
70F0
F0F0
FFF0
FFF0
FFE0
E0E0
E0E0
E0E0
E0E0
ENDCHAR
STARTCHAR 04BC
ENCODING 1212
SWIDTH 900 0
DWIDTH 15 0
BBX 14 12 0 0
BITMAP
03E0
0C30
0818
9808
980C
D00C
7FFC
1000
1800
0818
0C30
03E0
ENDCHAR
STARTCHAR 04BD
ENCODING 1213
SWIDTH 660 0
DWIDTH 11 0
BBX 11 9 0 0
BITMAP
0780
18C0
9040
9060
7FE0
1000
1040
18C0
0F80
ENDCHAR
STARTCHAR 04BE
ENCODING 1214
SWIDTH 900 0
DWIDTH 15 0
BBX 14 14 0 -2
BITMAP
03E0
0C38
1818
980C
900C
7FFC
1000
1808
1818
0810
0430
03E0
0080
0080
ENDCHAR
STARTCHAR 04BF
ENCODING 1215
SWIDTH 660 0
DWIDTH 11 0
BBX 11 11 0 -2
BITMAP
0780
18C0
9040
9060
7FE0
1000
1040
18C0
0F80
0200
0200
ENDCHAR
STARTCHAR 04C0
ENCODING 1216
SWIDTH 240 0
DWIDTH 4 0
BBX 4 12 0 0
BITMAP
70
70
70
70
70
F0
F0
F0
F0
E0
E0
E0
ENDCHAR
STARTCHAR 04C1
ENCODING 1217
SWIDTH 1260 0
DWIDTH 21 0
BBX 22 15 -1 0
BITMAP
003800
003800
001000
7C387C
3E78F8
1E79F0
1F7BE0
0FFFC0
0FFF80
07FF80
0FFFC0
1F7BC0
3E73E0
7C71F0
F8F0F0
ENDCHAR
STARTCHAR 04C2
ENCODING 1218
SWIDTH 1260 0
DWIDTH 21 0
BBX 22 15 -1 0
BITMAP
003800
003800
001000
7C387C
3E78F8
1E79F0
1F7BE0
0FFFC0
0FFF80
07FF80
0FFFC0
1F7BC0
3E73E0
7C71F0
F8F0F0
ENDCHAR
STARTCHAR 04C3
ENCODING 1219
SWIDTH 660 0
DWIDTH 11 0
BBX 10 15 1 -3
BITMAP
C380
C600
C400
CC00
C800
FE00
C180
C180
C0C0
C0C0
C0C0
C080
0180
4300
3E00
ENDCHAR
STARTCHAR 04C4
ENCODING 1220
SWIDTH 540 0
DWIDTH 9 0
BBX 8 12 1 -3
BITMAP
CC
C8
D8
D0
FC
C6
C2
C3
C3
02
C6
7C
ENDCHAR
STARTCHAR 04C5
ENCODING 1221
SWIDTH 660 0
DWIDTH 11 0
BBX 11 15 0 -3
BITMAP
3FC0
30C0
30C0
30C0
30C0
30C0
30C0
30C0
30C0
30C0
30C0
E0E0
0060
0040
0040
ENDCHAR
STARTCHAR 04C6
ENCODING 1222
SWIDTH 600 0
DWIDTH 10 0
BBX 10 12 0 -3
BITMAP
3F80
2180
2180
2180
2180
2180
2180
2180
E1C0
00C0
0080
0080
ENDCHAR
STARTCHAR 04C7
ENCODING 1223
SWIDTH 720 0
DWIDTH 12 0
BBX 10 15 1 -3
BITMAP
C0C0
C0C0
C0C0
C0C0
C0C0
FFC0
C0C0
C0C0
C0C0
C0C0
C0C0
C0C0
0080
4100
3E00
ENDCHAR
STARTCHAR 04C8
ENCODING 1224
SWIDTH 540 0
DWIDTH 9 0
BBX 7 12 1 -3
BITMAP
C2
C2
C2
C2
FE
C2
C2
C2
C2
02
C6
78
ENDCHAR
STARTCHAR 04C9
ENCODING 1225
SWIDTH 720 0
DWIDTH 12 0
BBX 11 15 1 -3
BITMAP
C0C0
C0C0
C0C0
C0C0
C0C0
FFC0
C0C0
C0C0
C0C0
C0C0
C0C0
C0E0
0060
0040
0040
ENDCHAR
STARTCHAR 04CA
ENCODING 1226
SWIDTH 540 0
DWIDTH 9 0
BBX 9 12 1 -3
BITMAP
C200
C200
C200
C200
FE00
C200
C200
C200
C380
0100
0300
0200
ENDCHAR
STARTCHAR 04CB
ENCODING 1227
SWIDTH 660 0
DWIDTH 11 0
BBX 9 15 1 -3
BITMAP
8180
8180
8180
8180
8180
C180
C180
3F80
0180
0180
0180
0380
0300
0300
0300
ENDCHAR
STARTCHAR 04CC
ENCODING 1228
SWIDTH 540 0
DWIDTH 9 0
BBX 7 12 1 -3
BITMAP
86
86
86
86
C6
7E
06
06
0E
0C
0C
0C
ENDCHAR
STARTCHAR 04CD
ENCODING 1229
SWIDTH 840 0
DWIDTH 14 0
BBX 13 15 1 -3
BITMAP
E030
E070
F070
F070
D0B0
D0B0
D8B0
C930
C930
CD30
C630
C638
0018
0010
0010
ENDCHAR
STARTCHAR 04CE
ENCODING 1230
SWIDTH 720 0
DWIDTH 12 0
BBX 11 12 1 -3
BITMAP
E1C0
E1C0
E3C0
F2C0
D2C0
D6C0
DCC0
CCC0
CCE0
0040
0040
0080
ENDCHAR
STARTCHAR 04CF
ENCODING 1231
SWIDTH 720 0
DWIDTH 12 0
BBX 12 12 0 0
BITMAP
7000
7000
7000
F000
F000
F000
F000
F000
F000
FFF0
FFF0
7FE0
ENDCHAR
STARTCHAR 04D0
ENCODING 1232
SWIDTH 720 0
DWIDTH 12 0
BBX 12 15 0 0
BITMAP
0300
0700
0700
0FC0
3FE0
7FF0
7070
F070
F070
FFF0
FFF0
E0F0
E0E0
E0E0
E0E0
ENDCHAR
STARTCHAR 04D1
ENCODING 1233
SWIDTH 720 0
DWIDTH 12 0
BBX 12 15 0 0
BITMAP
0300
0700
0700
0FC0
3FE0
7FF0
7070
F070
F070
FFF0
FFF0
E0F0
E0E0
E0E0
E0E0
ENDCHAR
STARTCHAR 04D2
ENCODING 1234
SWIDTH 720 0
DWIDTH 12 0
BBX 12 15 0 0
BITMAP
0CC0
1DC0
0CC0
0FC0
3FE0
7FF0
7070
F070
F070
FFF0
FFF0
E0F0
E0E0
E0E0
E0E0
ENDCHAR
STARTCHAR 04D3
ENCODING 1235
SWIDTH 720 0
DWIDTH 12 0
BBX 12 15 0 0
BITMAP
0CC0
1DC0
0CC0
0FC0
3FE0
7FF0
7070
F070
F070
FFF0
FFF0
E0F0
E0E0
E0E0
E0E0
ENDCHAR
STARTCHAR 04D4
ENCODING 1236
SWIDTH 1260 0
DWIDTH 21 0
BBX 21 12 0 0
BITMAP
0FCFF8
3FFFF8
7FFFF8
707800
F07000
F07FF0
FFFFF0
FFF000
E0F000
E0FFF0
E0FFF0
E0FFF0
ENDCHAR
STARTCHAR 04D5
ENCODING 1237
SWIDTH 1260 0
DWIDTH 21 0
BBX 21 12 0 0
BITMAP
0FCFF8
3FFFF8
7FFFF8
707800
F07000
F07FF0
FFFFF0
FFF000
E0F000
E0FFF0
E0FFF0
E0FFF0
ENDCHAR
STARTCHAR 04D6
ENCODING 1238
SWIDTH 720 0
DWIDTH 12 0
BBX 12 15 0 0
BITMAP
0380
0380
0300
0FF0
3FF0
7FF0
7000
F000
FFF0
FFF0
F000
F000
FFF0
7FE0
7FE0
ENDCHAR
STARTCHAR 04D7
ENCODING 1239
SWIDTH 720 0
DWIDTH 12 0
BBX 12 15 0 0
BITMAP
0380
0380
0300
0FF0
3FF0
7FF0
7000
F000
FFF0
FFF0
F000
F000
FFF0
7FE0
7FE0
ENDCHAR
STARTCHAR 04D8
ENCODING 1240
SWIDTH 780 0
DWIDTH 13 0
BBX 11 12 1 0
BITMAP
1F00
3180
6040
4060
0060
FFE0
C060
C060
C060
60C0
7180
1F00
ENDCHAR
STARTCHAR 04D9
ENCODING 1241
SWIDTH 540 0
DWIDTH 9 0
BBX 8 9 1 0
BITMAP
7C
C6
83
03
FF
83
C2
46
3C
ENDCHAR
STARTCHAR 04DA
ENCODING 1242
SWIDTH 780 0
DWIDTH 13 0
BBX 13 18 1 0
BITMAP
0198
03B8
0198
0000
0000
0000
3F00
61C0
6040
0060
0060
FFE0
8060
C060
C060
40C0
71C0
3F00
ENDCHAR
STARTCHAR 04DB
ENCODING 1243
SWIDTH 540 0
DWIDTH 9 0
BBX 12 15 1 0
BITMAP
0660
0770
0660
0000
0000
0000
7C00
C600
C300
0300
FF00
8300
C300
C600
7C00
ENDCHAR
STARTCHAR 04DC
ENCODING 1244
SWIDTH 1260 0
DWIDTH 21 0
BBX 22 15 -1 0
BITMAP
00EE00
00EE00
004400
7C387C
3E78F8
1E79F0
1F7BE0
0FFFC0
0FFF80
07FF80
0FFFC0
1F7BC0
3E73E0
7C71F0
F8F0F0
ENDCHAR
STARTCHAR 04DD
ENCODING 1245
SWIDTH 1260 0
DWIDTH 21 0
BBX 22 15 -1 0
BITMAP
00EE00
00EE00
004400
7C387C
3E78F8
1E79F0
1F7BE0
0FFFC0
0FFF80
07FF80
0FFFC0
1F7BC0
3E73E0
7C71F0
F8F0F0
ENDCHAR
STARTCHAR 04DE
ENCODING 1246
SWIDTH 720 0
DWIDTH 12 0
BBX 12 15 0 0
BITMAP
1980
1DC0
1DC0
7FC0
7FE0
7FF0
0070
00F0
0FE0
0FE0
1FF0
00F0
FFE0
FFE0
FF80
ENDCHAR
STARTCHAR 04DF
ENCODING 1247
SWIDTH 720 0
DWIDTH 12 0
BBX 12 15 0 0
BITMAP
1980
1DC0
1DC0
7FC0
7FE0
7FF0
0070
00F0
0FE0
0FE0
1FF0
00F0
FFE0
FFE0
FF80
ENDCHAR
STARTCHAR 04E0
ENCODING 1248
SWIDTH 600 0
DWIDTH 10 0
BBX 9 12 1 0
BITMAP
FF80
0300
0200
0400
0E00
1F00
0300
0180
0180
8100
C300
3C00
ENDCHAR
STARTCHAR 04E1
ENCODING 1249
SWIDTH 540 0
DWIDTH 9 0
BBX 8 13 1 -4
BITMAP
FE
06
0C
18
38
3E
02
03
03
83
C6
7C
10
ENDCHAR
STARTCHAR 04E2
ENCODING 1250
SWIDTH 720 0
DWIDTH 12 0
BBX 12 15 0 0
BITMAP
07E0
07C0
0000
7070
7070
7070
F070
E070
E070
E0F0
E0F0
E0E0
FFE0
FFE0
7FE0
ENDCHAR
STARTCHAR 04E3
ENCODING 1251
SWIDTH 720 0
DWIDTH 12 0
BBX 12 15 0 0
BITMAP
07E0
07C0
0000
7070
7070
7070
F070
E070
E070
E0F0
E0F0
E0E0
FFE0
FFE0
7FE0
ENDCHAR
STARTCHAR 04E4
ENCODING 1252
SWIDTH 720 0
DWIDTH 12 0
BBX 12 15 0 0
BITMAP
1DC0
1DC0
0CC0
7070
7070
7070
F070
E070
E070
E0F0
E0F0
E0E0
FFE0
FFE0
7FE0
ENDCHAR
STARTCHAR 04E5
ENCODING 1253
SWIDTH 720 0
DWIDTH 12 0
BBX 12 15 0 0
BITMAP
1DC0
1DC0
0CC0
7070
7070
7070
F070
E070
E070
E0F0
E0F0
E0E0
FFE0
FFE0
7FE0
ENDCHAR
STARTCHAR 04E6
ENCODING 1254
SWIDTH 780 0
DWIDTH 13 0
BBX 13 15 0 0
BITMAP
0CC0
0EE0
0EE0
1FE0
3FF0
7FF0
7078
F078
E078
E078
E070
E070
FFF0
FFE0
7FE0
ENDCHAR
STARTCHAR 04E7
ENCODING 1255
SWIDTH 780 0
DWIDTH 13 0
BBX 13 15 0 0
BITMAP
0CC0
0EE0
0EE0
1FE0
3FF0
7FF0
7078
F078
E078
E078
E070
E070
FFF0
FFE0
7FE0
ENDCHAR
STARTCHAR 04E8
ENCODING 1256
SWIDTH 780 0
DWIDTH 13 0
BBX 11 12 1 0
BITMAP
1F00
31C0
6040
C060
C020
C020
FFE0
C020
C060
4060
30C0
1F00
ENDCHAR
STARTCHAR 04E9
ENCODING 1257
SWIDTH 540 0
DWIDTH 9 0
BBX 8 9 1 0
BITMAP
3C
C6
C3
83
FF
83
83
C6
3C
ENDCHAR
STARTCHAR 04EA
ENCODING 1258
SWIDTH 780 0
DWIDTH 13 0
BBX 14 18 1 0
BITMAP
0198
01DC
019C
0000
0000
0000
3F80
70C0
4060
C060
C020
FFE0
FFE0
C020
C060
6060
71C0
1F80
ENDCHAR
STARTCHAR 04EB
ENCODING 1259
SWIDTH 540 0
DWIDTH 9 0
BBX 12 15 1 0
BITMAP
0660
0770
0670
0000
0000
0000
3C00
E600
C300
8300
FF00
8300
8300
C600
7C00
ENDCHAR
STARTCHAR 04EC
ENCODING 1260
SWIDTH 720 0
DWIDTH 12 0
BBX 12 15 0 0
BITMAP
3B80
3B80
1980
7FC0
7FE0
7FF0
00F0
0070
FFF0
FFF0
FFF0
00F0
FFE0
FFE0
FFC0
ENDCHAR
STARTCHAR 04ED
ENCODING 1261
SWIDTH 720 0
DWIDTH 12 0
BBX 12 15 0 0
BITMAP
3B80
3B80
1980
7FC0
7FE0
7FF0
00F0
0070
FFF0
FFF0
FFF0
00F0
FFE0
FFE0
FFC0
ENDCHAR
STARTCHAR 04EE
ENCODING 1262
SWIDTH 720 0
DWIDTH 12 0
BBX 12 15 0 0
BITMAP
0FC0
0F80
0000
7070
7070
F070
F070
F070
FFF0
7FF0
7FE0
00E0
FFE0
FFE0
FFC0
ENDCHAR
STARTCHAR 04EF
ENCODING 1263
SWIDTH 720 0
DWIDTH 12 0
BBX 12 15 0 0
BITMAP
0FC0
0F80
0000
7070
7070
F070
F070
F070
FFF0
7FF0
7FE0
00E0
FFE0
FFE0
FFC0
ENDCHAR
STARTCHAR 04F0
ENCODING 1264
SWIDTH 720 0
DWIDTH 12 0
BBX 12 15 0 0
BITMAP
0CC0
1DC0
0CC0
7070
7070
F070
F070
F070
FFF0
7FF0
7FE0
00E0
FFE0
FFE0
FFC0
ENDCHAR
STARTCHAR 04F1
ENCODING 1265
SWIDTH 720 0
DWIDTH 12 0
BBX 12 15 0 0
BITMAP
0CC0
1DC0
0CC0
7070
7070
F070
F070
F070
FFF0
7FF0
7FE0
00E0
FFE0
FFE0
FFC0
ENDCHAR
STARTCHAR 04F2
ENCODING 1266
SWIDTH 720 0
DWIDTH 12 0
BBX 12 15 0 0
BITMAP
1B00
3600
0000
7070
7070
F070
F070
F070
FFF0
7FF0
7FE0
00E0
FFE0
FFE0
FFC0
ENDCHAR
STARTCHAR 04F3
ENCODING 1267
SWIDTH 720 0
DWIDTH 12 0
BBX 12 12 0 0
BITMAP
7670
7470
F070
F070
F070
FFF0
7FF0
7FE0
00E0
FFE0
FFE0
FFC0
ENDCHAR
STARTCHAR 04F4
ENCODING 1268
SWIDTH 720 0
DWIDTH 12 0
BBX 12 15 0 0
BITMAP
1CC0
1DC0
0CC0
7070
7070
F070
F070
F070
FFF0
7FF0
7FE0
00E0
00E0
00E0
00E0
ENDCHAR
STARTCHAR 04F5
ENCODING 1269
SWIDTH 720 0
DWIDTH 12 0
BBX 12 15 0 0
BITMAP
1CC0
1DC0
0CC0
7070
7070
F070
F070
F070
FFF0
7FF0
7FE0
00E0
00E0
00E0
00E0
ENDCHAR
STARTCHAR 04F6
ENCODING 1270
SWIDTH 540 0
DWIDTH 9 0
BBX 8 15 1 -3
BITMAP
FF
C0
C0
C0
C0
C0
C0
C0
C0
C0
C0
E0
20
20
20
ENDCHAR
STARTCHAR 04F7
ENCODING 1271
SWIDTH 360 0
DWIDTH 6 0
BBX 5 12 1 -3
BITMAP
F8
C0
C0
C0
C0
C0
C0
C0
E0
60
60
60
ENDCHAR
STARTCHAR 04F8
ENCODING 1272
SWIDTH 1020 0
DWIDTH 17 0
BBX 17 15 0 0
BITMAP
033000
033000
000000
700380
700380
700380
700380
7FE380
FFF780
FFFF80
F0FF80
F07F80
FFFF80
FFF700
FFE700
ENDCHAR
STARTCHAR 04F9
ENCODING 1273
SWIDTH 1020 0
DWIDTH 17 0
BBX 17 15 0 0
BITMAP
033000
033000
000000
700380
700380
700380
700380
7FE380
FFF780
FFFF80
F0FF80
F07F80
FFFF80
FFF700
FFE700
ENDCHAR
STARTCHAR 04FA
ENCODING 1274
SWIDTH 540 0
DWIDTH 9 0
BBX 9 15 0 -3
BITMAP
7F80
6000
6000
6000
6000
FC00
6000
6000
6000
6000
6000
7000
3000
3000
E000
ENDCHAR
STARTCHAR 04FB
ENCODING 1275
SWIDTH 360 0
DWIDTH 6 0
BBX 6 12 0 -3
BITMAP
7C
60
60
60
F8
60
60
60
60
20
20
E0
ENDCHAR
STARTCHAR 04FC
ENCODING 1276
SWIDTH 660 0
DWIDTH 11 0
BBX 11 15 0 -3
BITMAP
6060
30C0
3180
1900
0F00
0600
0E00
1B00
1980
3180
60C0
C060
0020
0020
00E0
ENDCHAR
STARTCHAR 04FD
ENCODING 1277
SWIDTH 540 0
DWIDTH 9 0
BBX 8 12 0 -3
BITMAP
63
66
34
1C
18
1C
36
62
C3
01
01
07
ENDCHAR
STARTCHAR 04FE
ENCODING 1278
SWIDTH 660 0
DWIDTH 11 0
BBX 11 12 0 0
BITMAP
6060
30C0
3180
1900
0E00
3F80
0E00
1B00
1980
3180
60C0
C060
ENDCHAR
STARTCHAR 04FF
ENCODING 1279
SWIDTH 540 0
DWIDTH 9 0
BBX 8 9 0 0
BITMAP
63
66
34
1C
FF
1C
36
62
C3
ENDCHAR
STARTCHAR 0500
ENCODING 1280
SWIDTH 660 0
DWIDTH 11 0
BBX 9 12 1 0
BITMAP
0180
0180
0180
0180
0180
7F80
C180
8180
8180
8180
C180
7F80
ENDCHAR
STARTCHAR 0501
ENCODING 1281
SWIDTH 720 0
DWIDTH 12 0
BBX 12 12 0 0
BITMAP
7F80
7FE0
7FF0
7070
E070
E070
E070
E070
E0F0
FFE0
FFE0
FFC0
ENDCHAR
STARTCHAR 0502
ENCODING 1282
SWIDTH 960 0
DWIDTH 16 0
BBX 14 12 1 0
BITMAP
0180
0180
0180
0180
0180
7F84
C184
8184
8184
8184
C28C
7C78
ENDCHAR
STARTCHAR 0503
ENCODING 1283
SWIDTH 900 0
DWIDTH 15 0
BBX 13 12 1 0
BITMAP
0200
0200
0200
7A00
C600
8200
8200
8218
8218
8218
C510
39E0
ENDCHAR
STARTCHAR 0504
ENCODING 1284
SWIDTH 960 0
DWIDTH 16 0
BBX 14 12 1 0
BITMAP
3C00
6200
C300
8300
0300
0204
1E04
0304
0184
0184
018C
00F8
ENDCHAR
STARTCHAR 0505
ENCODING 1285
SWIDTH 840 0
DWIDTH 14 0
BBX 12 9 1 0
BITMAP
7800
CC00
8C00
0C00
3830
0C30
0430
0620
03C0
ENDCHAR
STARTCHAR 0506
ENCODING 1286
SWIDTH 660 0
DWIDTH 11 0
BBX 10 15 1 -3
BITMAP
3C00
6200
C300
8300
0300
0200
1E00
0300
0180
0180
0180
01C0
00C0
00C0
00C0
ENDCHAR
STARTCHAR 0507
ENCODING 1287
SWIDTH 540 0
DWIDTH 9 0
BBX 7 12 1 -3
BITMAP
78
CC
8C
0C
38
0C
04
04
06
02
02
02
ENDCHAR
STARTCHAR 0508
ENCODING 1288
SWIDTH 1020 0
DWIDTH 17 0
BBX 15 12 0 0
BITMAP
3FC0
30C0
30C0
30C0
30C0
30C2
30C2
30C2
30C2
30C2
3046
E03C
ENDCHAR
STARTCHAR 0509
ENCODING 1289
SWIDTH 900 0
DWIDTH 15 0
BBX 14 9 0 0
BITMAP
3F80
2180
2180
2180
2184
2184
2184
20CC
E078
ENDCHAR
STARTCHAR 050A
ENCODING 1290
SWIDTH 1080 0
DWIDTH 18 0
BBX 15 12 1 0
BITMAP
C0C0
C0C0
C0C0
C0C0
C0C0
FFC2
C0C2
C0C2
C0C2
C0C2
C046
C03C
ENDCHAR
STARTCHAR 050B
ENCODING 1291
SWIDTH 900 0
DWIDTH 15 0
BBX 13 9 1 0
BITMAP
C200
C200
C200
C200
FE18
C218
C218
C310
C1E0
ENDCHAR
STARTCHAR 050C
ENCODING 1292
SWIDTH 780 0
DWIDTH 13 0
BBX 11 12 1 0
BITMAP
1F80
30C0
6060
C000
C000
C000
C3E0
C020
C060
6040
30C0
1F00
ENDCHAR
STARTCHAR 050D
ENCODING 1293
SWIDTH 600 0
DWIDTH 10 0
BBX 7 9 1 0
BITMAP
3C
46
C2
80
9E
82
C2
46
3C
ENDCHAR
STARTCHAR 050E
ENCODING 1294
SWIDTH 780 0
DWIDTH 13 0
BBX 12 12 0 0
BITMAP
FFC0
0C00
0C00
0C00
0C00
0C30
0C30
0C30
0C30
0420
0660
03C0
ENDCHAR
STARTCHAR 050F
ENCODING 1295
SWIDTH 660 0
DWIDTH 11 0
BBX 10 9 0 0
BITMAP
FE00
1800
1800
1800
1840
1840
1840
08C0
0780
ENDCHAR
STARTCHAR 0510
ENCODING 1296
SWIDTH 600 0
DWIDTH 10 0
BBX 8 12 1 0
BITMAP
3C
63
C3
C1
60
38
C0
C0
80
C1
C3
3E
ENDCHAR
STARTCHAR 0511
ENCODING 1297
SWIDTH 480 0
DWIDTH 8 0
BBX 6 9 1 0
BITMAP
78
CC
84
C0
70
80
84
CC
78
ENDCHAR
STARTCHAR 0512
ENCODING 1298
SWIDTH 660 0
DWIDTH 11 0
BBX 10 15 0 -3
BITMAP
3FC0
30C0
30C0
30C0
30C0
30C0
30C0
30C0
30C0
30C0
30C0
E0C0
00C0
00C0
0380
ENDCHAR
STARTCHAR 0513
ENCODING 1299
SWIDTH 600 0
DWIDTH 10 0
BBX 9 12 0 -3
BITMAP
3F80
2180
2180
2180
2180
2180
2180
2180
E180
0180
0180
0300
ENDCHAR
STARTCHAR 051A
ENCODING 1306
SWIDTH 720 0
DWIDTH 12 0
BBX 12 13 0 -1
BITMAP
1FC0
3FF0
7FF0
7070
F070
E070
E070
E070
E0F0
FFF0
FFE0
7FC0
01E0
ENDCHAR
STARTCHAR 051B
ENCODING 1307
SWIDTH 720 0
DWIDTH 12 0
BBX 12 13 0 -1
BITMAP
1FC0
3FF0
7FF0
7070
F070
E070
E070
E070
E0F0
FFF0
FFE0
7FC0
01E0
ENDCHAR
STARTCHAR 051C
ENCODING 1308
SWIDTH 900 0
DWIDTH 15 0
BBX 15 12 0 0
BITMAP
738E
738E
738E
739E
E39E
E39C
E39C
E39C
E71C
FFFC
FFFC
7FFC
ENDCHAR
STARTCHAR 051D
ENCODING 1309
SWIDTH 900 0
DWIDTH 15 0
BBX 15 12 0 0
BITMAP
738E
738E
738E
739E
E39E
E39C
E39C
E39C
E71C
FFFC
FFFC
7FFC
ENDCHAR
STARTCHAR 1D00
ENCODING 7424
SWIDTH 480 0
DWIDTH 8 0
BBX 8 9 0 0
BITMAP
18
18
14
34
26
3E
62
43
C3
ENDCHAR
STARTCHAR 1D01
ENCODING 7425
SWIDTH 780 0
DWIDTH 13 0
BBX 12 9 0 0
BITMAP
0FF0
0B00
1B00
1300
33F0
3F00
6300
6300
C3F0
ENDCHAR
STARTCHAR 1D02
ENCODING 7426
SWIDTH 900 0
DWIDTH 15 0
BBX 13 9 1 0
BITMAP
7CF0
C718
8308
0208
FE78
83C0
8208
C718
79F0
ENDCHAR
STARTCHAR 1D03
ENCODING 7427
SWIDTH 540 0
DWIDTH 9 0
BBX 9 9 0 0
BITMAP
7E00
6300
6300
6300
FF80
6300
6100
6300
7E00
ENDCHAR
STARTCHAR 1D04
ENCODING 7428
SWIDTH 720 0
DWIDTH 12 0
BBX 12 12 0 0
BITMAP
0FF0
3FF0
7FF0
7000
F000
E000
E000
E000
E000
FFE0
7FE0
7FE0
ENDCHAR
STARTCHAR 1D05
ENCODING 7429
SWIDTH 540 0
DWIDTH 9 0
BBX 8 9 1 0
BITMAP
FC
C6
C2
C3
C3
C3
C2
C6
FC
ENDCHAR
STARTCHAR 1D06
ENCODING 7430
SWIDTH 540 0
DWIDTH 9 0
BBX 9 9 0 0
BITMAP
7E00
6300
6100
6180
F980
6180
6100
6300
7E00
ENDCHAR
STARTCHAR 1D07
ENCODING 7431
SWIDTH 480 0
DWIDTH 8 0
BBX 7 9 1 0
BITMAP
FC
C0
C0
C0
FC
C0
C0
C0
FE
ENDCHAR
STARTCHAR 1D08
ENCODING 7432
SWIDTH 720 0
DWIDTH 12 0
BBX 12 12 0 0
BITMAP
7FC0
7FE0
7FF0
0070
00F0
0FE0
0FE0
1FF0
00F0
FFE0
FFE0
FF80
ENDCHAR
STARTCHAR 1D09
ENCODING 7433
SWIDTH 240 0
DWIDTH 4 0
BBX 2 12 1 -3
BITMAP
C0
C0
C0
C0
C0
C0
C0
C0
C0
00
00
C0
ENDCHAR
STARTCHAR 1D0A
ENCODING 7434
SWIDTH 420 0
DWIDTH 7 0
BBX 5 9 1 0
BITMAP
08
08
08
08
08
08
88
98
70
ENDCHAR
STARTCHAR 1D0B
ENCODING 7435
SWIDTH 540 0
DWIDTH 9 0
BBX 7 9 1 0
BITMAP
C6
CC
D8
F0
F0
D8
CC
C4
C6
ENDCHAR
STARTCHAR 1D0C
ENCODING 7436
SWIDTH 420 0
DWIDTH 7 0
BBX 6 9 0 0
BITMAP
60
60
70
70
60
E0
60
60
7C
ENDCHAR
STARTCHAR 1D0D
ENCODING 7437
SWIDTH 900 0
DWIDTH 15 0
BBX 15 12 0 0
BITMAP
0FF8
3FFC
7FFC
7FFE
F38E
F39C
F39C
F39C
F39C
E39C
E79C
E01C
ENDCHAR
STARTCHAR 1D0E
ENCODING 7438
SWIDTH 720 0
DWIDTH 12 0
BBX 12 12 0 0
BITMAP
7070
7070
7070
F070
E070
E070
E0F0
E0F0
E0E0
FFE0
FFE0
7FE0
ENDCHAR
STARTCHAR 1D0F
ENCODING 7439
SWIDTH 780 0
DWIDTH 13 0
BBX 13 12 0 0
BITMAP
1FE0
3FF0
7FF0
7078
F078
E078
E078
E070
E070
FFF0
FFE0
7FE0
ENDCHAR
STARTCHAR 1D10
ENCODING 7440
SWIDTH 540 0
DWIDTH 9 0
BBX 8 9 0 0
BITMAP
3C
66
C3
03
03
03
C3
46
3C
ENDCHAR
STARTCHAR 1D11
ENCODING 7441
SWIDTH 600 0
DWIDTH 10 0
BBX 9 8 1 0
BITMAP
3E00
C300
8180
8080
8080
8180
C300
3E00
ENDCHAR
STARTCHAR 1D12
ENCODING 7442
SWIDTH 600 0
DWIDTH 10 0
BBX 9 7 1 1
BITMAP
3E00
C300
8180
8080
8180
C100
6200
ENDCHAR
STARTCHAR 1D13
ENCODING 7443
SWIDTH 600 0
DWIDTH 10 0
BBX 10 8 0 0
BITMAP
9F00
6180
70C0
4840
4640
4380
6180
1F40
ENDCHAR
STARTCHAR 1D14
ENCODING 7444
SWIDTH 960 0
DWIDTH 16 0
BBX 14 9 1 0
BITMAP
7CF0
C78C
8304
0304
FF04
8304
C30C
478C
3CF0
ENDCHAR
STARTCHAR 1D15
ENCODING 7445
SWIDTH 480 0
DWIDTH 8 0
BBX 6 9 1 0
BITMAP
8C
C8
30
CC
84
84
84
CC
78
ENDCHAR
STARTCHAR 1D16
ENCODING 7446
SWIDTH 540 0
DWIDTH 9 0
BBX 8 5 1 4
BITMAP
3C
46
C2
83
83
ENDCHAR
STARTCHAR 1D17
ENCODING 7447
SWIDTH 540 0
DWIDTH 9 0
BBX 8 5 1 0
BITMAP
83
83
C2
46
3C
ENDCHAR
STARTCHAR 1D18
ENCODING 7448
SWIDTH 540 0
DWIDTH 9 0
BBX 7 9 1 0
BITMAP
FC
C6
C2
C6
FC
C0
C0
C0
C0
ENDCHAR
STARTCHAR 1D19
ENCODING 7449
SWIDTH 780 0
DWIDTH 13 0
BBX 12 12 0 0
BITMAP
1FF0
7FF0
FFF0
F070
E070
FFF0
7FE0
3FE0
3CE0
78E0
78E0
F1E0
ENDCHAR
STARTCHAR 1D1A
ENCODING 7450
SWIDTH 540 0
DWIDTH 9 0
BBX 7 9 1 0
BITMAP
82
C2
62
62
7E
C2
82
C2
7E
ENDCHAR
STARTCHAR 1D1B
ENCODING 7451
SWIDTH 900 0
DWIDTH 15 0
BBX 15 12 0 0
BITMAP
7FF8
7FFC
7FFC
7FFE
F38E
F39C
E39C
E39C
E39C
E39C
E39C
E71C
ENDCHAR
STARTCHAR 1D1C
ENCODING 7452
SWIDTH 540 0
DWIDTH 9 0
BBX 7 9 1 0
BITMAP
C2
C2
C2
C2
C2
C2
C2
46
7C
ENDCHAR
STARTCHAR 1D1D
ENCODING 7453
SWIDTH 600 0
DWIDTH 10 0
BBX 9 7 1 1
BITMAP
FF00
0300
0100
0180
0180
0100
FE00
ENDCHAR
STARTCHAR 1D1E
ENCODING 7454
SWIDTH 720 0
DWIDTH 12 0
BBX 11 7 1 1
BITMAP
3FE0
0040
8060
0020
0020
8060
3FC0
ENDCHAR
STARTCHAR 1D1F
ENCODING 7455
SWIDTH 600 0
DWIDTH 10 0
BBX 9 11 1 -1
BITMAP
FF00
0300
0100
0180
0100
FF00
0100
0100
0180
0100
FF00
ENDCHAR
STARTCHAR 1D20
ENCODING 7456
SWIDTH 840 0
DWIDTH 14 0
BBX 14 12 0 0
BITMAP
F01C
F83C
7878
7878
3CF0
3CF0
3DE0
1FC0
1FC0
0F80
0F80
0700
ENDCHAR
STARTCHAR 1D21
ENCODING 7457
SWIDTH 900 0
DWIDTH 15 0
BBX 15 12 0 0
BITMAP
738E
738E
738E
739E
E39E
E39C
E39C
E39C
E71C
FFFC
FFFC
7FFC
ENDCHAR
STARTCHAR 1D22
ENCODING 7458
SWIDTH 780 0
DWIDTH 13 0
BBX 13 12 0 0
BITMAP
7FF0
7FF8
7FF8
7FF8
03F0
0FC0
1F80
3F00
FC00
FFF0
FFF0
FFF0
ENDCHAR
STARTCHAR 1D23
ENCODING 7459
SWIDTH 480 0
DWIDTH 8 0
BBX 6 9 1 0
BITMAP
FC
0C
18
30
38
0C
04
8C
F8
ENDCHAR
STARTCHAR 1D24
ENCODING 7460
SWIDTH 420 0
DWIDTH 7 0
BBX 6 9 1 0
BITMAP
78
8C
0C
38
20
E0
80
8C
F8
ENDCHAR
STARTCHAR 1D25
ENCODING 7461
SWIDTH 600 0
DWIDTH 10 0
BBX 10 9 0 0
BITMAP
1E00
3F00
3F00
3F00
1E00
0C00
0C00
9A40
7380
ENDCHAR
STARTCHAR 1D26
ENCODING 7462
SWIDTH 720 0
DWIDTH 12 0
BBX 13 12 0 0
BITMAP
0FF8
3FF8
7FF0
7000
F000
F000
F000
F000
F000
E000
E000
E000
ENDCHAR
STARTCHAR 1D27
ENCODING 7463
SWIDTH 540 0
DWIDTH 9 0
BBX 8 9 0 0
BITMAP
18
18
1C
34
26
26
62
43
C1
ENDCHAR
STARTCHAR 1D28
ENCODING 7464
SWIDTH 720 0
DWIDTH 12 0
BBX 12 12 0 0
BITMAP
7FC0
7FF0
7FF0
7FF0
7070
F070
F070
E070
E070
E0F0
E0E0
E0E0
ENDCHAR
STARTCHAR 1D29
ENCODING 7465
SWIDTH 540 0
DWIDTH 9 0
BBX 7 9 1 0
BITMAP
FC
CE
C2
C2
FE
F0
C0
C0
C0
ENDCHAR
STARTCHAR 1D2A
ENCODING 7466
SWIDTH 720 0
DWIDTH 12 0
BBX 10 9 1 0
BITMAP
CC40
CC40
CC40
CCC0
6C80
3F00
0C00
0C00
0C00
ENDCHAR
STARTCHAR 1D2B
ENCODING 7467
SWIDTH 840 0
DWIDTH 14 0
BBX 14 12 0 0
BITMAP
1FF0
1FFC
1FFC
1FFC
1C1C
1C1C
3C1C
3C1C
3C1C
781C
F83C
F038
ENDCHAR
STARTCHAR 1D2C
ENCODING 7468
SWIDTH 480 0
DWIDTH 8 0
BBX 7 8 0 4
BITMAP
18
18
28
24
64
7E
42
82
ENDCHAR
STARTCHAR 1D2D
ENCODING 7469
SWIDTH 660 0
DWIDTH 11 0
BBX 11 8 0 4
BITMAP
0FE0
1600
1600
27C0
2600
7E00
4600
87E0
ENDCHAR
STARTCHAR 1D2E
ENCODING 7470
SWIDTH 420 0
DWIDTH 7 0
BBX 7 8 0 4
BITMAP
FC
C4
C4
F8
C4
C6
C4
FC
ENDCHAR
STARTCHAR 1D2F
ENCODING 7471
SWIDTH 420 0
DWIDTH 7 0
BBX 7 8 0 4
BITMAP
FC
C4
C4
FE
C4
C6
C4
FC
ENDCHAR
STARTCHAR 1D30
ENCODING 7472
SWIDTH 480 0
DWIDTH 8 0
BBX 7 8 0 4
BITMAP
FC
C6
C2
C2
C2
C2
C6
FC
ENDCHAR
STARTCHAR 1D31
ENCODING 7473
SWIDTH 420 0
DWIDTH 7 0
BBX 7 8 0 4
BITMAP
FC
C0
C0
FC
C0
C0
C0
FE
ENDCHAR
STARTCHAR 1D32
ENCODING 7474
SWIDTH 420 0
DWIDTH 7 0
BBX 7 8 0 4
BITMAP
7E
06
06
7E
06
06
06
FE
ENDCHAR
STARTCHAR 1D33
ENCODING 7475
SWIDTH 480 0
DWIDTH 8 0
BBX 8 8 0 4
BITMAP
3E
61
40
C0
C7
41
61
3E
ENDCHAR
STARTCHAR 1D34
ENCODING 7476
SWIDTH 420 0
DWIDTH 7 0
BBX 7 8 0 4
BITMAP
C2
C2
C2
FE
C2
C2
C2
C2
ENDCHAR
STARTCHAR 1D35
ENCODING 7477
SWIDTH 180 0
DWIDTH 3 0
BBX 1 8 1 4
BITMAP
80
80
80
80
80
80
80
80
ENDCHAR
STARTCHAR 1D36
ENCODING 7478
SWIDTH 300 0
DWIDTH 5 0
BBX 5 8 0 4
BITMAP
08
08
08
08
08
88
48
70
ENDCHAR
STARTCHAR 1D37
ENCODING 7479
SWIDTH 420 0
DWIDTH 7 0
BBX 7 8 0 4
BITMAP
C6
C8
D0
F0
D8
C8
C4
C6
ENDCHAR
STARTCHAR 1D38
ENCODING 7480
SWIDTH 360 0
DWIDTH 6 0
BBX 6 8 0 4
BITMAP
C0
C0
C0
C0
C0
C0
C0
FC
ENDCHAR
STARTCHAR 1D39
ENCODING 7481
SWIDTH 540 0
DWIDTH 9 0
BBX 8 8 0 4
BITMAP
C1
E3
A3
A3
B5
95
99
89
ENDCHAR
STARTCHAR 1D3A
ENCODING 7482
SWIDTH 420 0
DWIDTH 7 0
BBX 7 8 0 4
BITMAP
C2
A2
A2
92
92
8A
86
86
ENDCHAR
STARTCHAR 1D3B
ENCODING 7483
SWIDTH 420 0
DWIDTH 7 0
BBX 7 8 0 4
BITMAP
86
86
8A
92
92
A2
C2
C2
ENDCHAR
STARTCHAR 1D3C
ENCODING 7484
SWIDTH 540 0
DWIDTH 9 0
BBX 8 8 0 4
BITMAP
3C
63
41
C1
C1
41
63
3C
ENDCHAR
STARTCHAR 1D3D
ENCODING 7485
SWIDTH 420 0
DWIDTH 7 0
BBX 6 8 0 4
BITMAP
44
4C
30
4C
C4
C4
44
78
ENDCHAR
STARTCHAR 1D3E
ENCODING 7486
SWIDTH 420 0
DWIDTH 7 0
BBX 7 8 0 4
BITMAP
FC
C6
C2
C6
FC
C0
C0
C0
ENDCHAR
STARTCHAR 1D3F
ENCODING 7487
SWIDTH 480 0
DWIDTH 8 0
BBX 7 8 0 4
BITMAP
FC
C2
C2
FC
C8
C4
C6
C2
ENDCHAR
STARTCHAR 1D40
ENCODING 7488
SWIDTH 420 0
DWIDTH 7 0
BBX 7 8 0 4
BITMAP
FE
10
10
10
10
10
10
10
ENDCHAR
STARTCHAR 1D41
ENCODING 7489
SWIDTH 420 0
DWIDTH 7 0
BBX 7 8 0 4
BITMAP
C2
C2
C2
C2
C2
C2
46
3C
ENDCHAR
STARTCHAR 1D42
ENCODING 7490
SWIDTH 660 0
DWIDTH 11 0
BBX 10 8 0 4
BITMAP
8440
8C40
4A40
4A40
5280
5180
3180
2100
ENDCHAR
STARTCHAR 1D43
ENCODING 7491
SWIDTH 360 0
DWIDTH 6 0
BBX 6 6 0 4
BITMAP
78
44
3C
44
CC
74
ENDCHAR
STARTCHAR 1D44
ENCODING 7492
SWIDTH 360 0
DWIDTH 6 0
BBX 5 6 1 4
BITMAP
F0
88
98
E0
88
F0
ENDCHAR
STARTCHAR 1D45
ENCODING 7493
SWIDTH 360 0
DWIDTH 6 0
BBX 6 6 0 4
BITMAP
74
4C
84
84
4C
34
ENDCHAR
STARTCHAR 1D46
ENCODING 7494
SWIDTH 600 0
DWIDTH 10 0
BBX 10 6 0 4
BITMAP
7B80
4C40
04C0
FF00
44C0
7F80
ENDCHAR
STARTCHAR 1D47
ENCODING 7495
SWIDTH 360 0
DWIDTH 6 0
BBX 5 8 1 4
BITMAP
80
80
F0
88
88
88
98
F0
ENDCHAR
STARTCHAR 1D48
ENCODING 7496
SWIDTH 360 0
DWIDTH 6 0
BBX 6 8 0 4
BITMAP
04
04
74
4C
84
84
4C
74
ENDCHAR
STARTCHAR 1D49
ENCODING 7497
SWIDTH 360 0
DWIDTH 6 0
BBX 6 6 0 4
BITMAP
38
44
FC
C0
44
38
ENDCHAR
STARTCHAR 1D4A
ENCODING 7498
SWIDTH 360 0
DWIDTH 6 0
BBX 6 6 0 4
BITMAP
78
4C
04
FC
44
78
ENDCHAR
STARTCHAR 1D4B
ENCODING 7499
SWIDTH 300 0
DWIDTH 5 0
BBX 5 6 0 4
BITMAP
70
48
60
C0
C8
70
ENDCHAR
STARTCHAR 1D4C
ENCODING 7500
SWIDTH 300 0
DWIDTH 5 0
BBX 5 6 0 4
BITMAP
70
48
30
08
C8
70
ENDCHAR
STARTCHAR 1D4D
ENCODING 7501
SWIDTH 360 0
DWIDTH 6 0
BBX 6 8 0 2
BITMAP
74
4C
84
84
4C
74
48
78
ENDCHAR
STARTCHAR 1D4E
ENCODING 7502
SWIDTH 180 0
DWIDTH 3 0
BBX 1 8 1 2
BITMAP
80
80
80
80
80
80
00
80
ENDCHAR
STARTCHAR 1D4F
ENCODING 7503
SWIDTH 360 0
DWIDTH 6 0
BBX 4 8 1 4
BITMAP
80
80
90
A0
C0
A0
90
90
ENDCHAR
STARTCHAR 1D50
ENCODING 7504
SWIDTH 600 0
DWIDTH 10 0
BBX 8 6 1 4
BITMAP
F6
99
91
91
91
91
ENDCHAR
STARTCHAR 1D51
ENCODING 7505
SWIDTH 420 0
DWIDTH 7 0
BBX 5 8 1 2
BITMAP
F0
98
88
88
88
88
08
30
ENDCHAR
STARTCHAR 1D52
ENCODING 7506
SWIDTH 360 0
DWIDTH 6 0
BBX 6 6 0 4
BITMAP
38
4C
84
84
4C
78
ENDCHAR
STARTCHAR 1D53
ENCODING 7507
SWIDTH 360 0
DWIDTH 6 0
BBX 5 6 1 4
BITMAP
F0
90
08
08
90
F0
ENDCHAR
STARTCHAR 1D54
ENCODING 7508
SWIDTH 360 0
DWIDTH 6 0
BBX 6 3 0 7
BITMAP
38
4C
84
ENDCHAR
STARTCHAR 1D55
ENCODING 7509
SWIDTH 360 0
DWIDTH 6 0
BBX 6 3 0 4
BITMAP
84
4C
38
ENDCHAR
STARTCHAR 1D56
ENCODING 7510
SWIDTH 360 0
DWIDTH 6 0
BBX 5 8 1 2
BITMAP
F0
88
88
88
88
F0
80
80
ENDCHAR
STARTCHAR 1D57
ENCODING 7511
SWIDTH 240 0
DWIDTH 4 0
BBX 3 8 0 4
BITMAP
40
40
E0
40
40
40
40
60
ENDCHAR
STARTCHAR 1D58
ENCODING 7512
SWIDTH 420 0
DWIDTH 7 0
BBX 5 6 1 4
BITMAP
88
88
88
88
98
E8
ENDCHAR
STARTCHAR 1D59
ENCODING 7513
SWIDTH 420 0
DWIDTH 7 0
BBX 6 5 0 4
BITMAP
FC
04
04
04
FC
ENDCHAR
STARTCHAR 1D5A
ENCODING 7514
SWIDTH 600 0
DWIDTH 10 0
BBX 8 6 1 4
BITMAP
91
91
91
91
99
EF
ENDCHAR
STARTCHAR 1D5B
ENCODING 7515
SWIDTH 300 0
DWIDTH 5 0
BBX 5 6 0 4
BITMAP
88
48
58
50
30
20
ENDCHAR
STARTCHAR 1D5C
ENCODING 7516
SWIDTH 420 0
DWIDTH 7 0
BBX 6 6 0 4
BITMAP
38
78
38
30
B4
6C
ENDCHAR
STARTCHAR 1D5D
ENCODING 7517
SWIDTH 420 0
DWIDTH 7 0
BBX 5 10 1 2
BITMAP
70
88
90
B0
88
88
88
F0
80
80
ENDCHAR
STARTCHAR 1D5E
ENCODING 7518
SWIDTH 300 0
DWIDTH 5 0
BBX 5 8 0 2
BITMAP
88
48
58
50
30
20
20
20
ENDCHAR
STARTCHAR 1D5F
ENCODING 7519
SWIDTH 360 0
DWIDTH 6 0
BBX 6 8 0 4
BITMAP
78
20
78
4C
C4
84
4C
38
ENDCHAR
STARTCHAR 1D60
ENCODING 7520
SWIDTH 420 0
DWIDTH 7 0
BBX 7 8 0 2
BITMAP
7C
52
92
D2
56
3C
10
10
ENDCHAR
STARTCHAR 1D61
ENCODING 7521
SWIDTH 360 0
DWIDTH 6 0
BBX 6 8 0 2
BITMAP
C8
48
30
30
30
70
48
8C
ENDCHAR
STARTCHAR 1D62
ENCODING 7522
SWIDTH 180 0
DWIDTH 3 0
BBX 1 8 1 -1
BITMAP
80
00
80
80
80
80
80
80
ENDCHAR
STARTCHAR 1D63
ENCODING 7523
SWIDTH 240 0
DWIDTH 4 0
BBX 3 6 1 -1
BITMAP
E0
80
80
80
80
80
ENDCHAR
STARTCHAR 1D64
ENCODING 7524
SWIDTH 420 0
DWIDTH 7 0
BBX 5 6 1 -1
BITMAP
88
88
88
88
98
E8
ENDCHAR
STARTCHAR 1D65
ENCODING 7525
SWIDTH 300 0
DWIDTH 5 0
BBX 5 6 0 -1
BITMAP
88
48
58
50
30
20
ENDCHAR
STARTCHAR 1D66
ENCODING 7526
SWIDTH 420 0
DWIDTH 7 0
BBX 5 10 1 -3
BITMAP
70
88
90
B0
88
88
88
F0
80
80
ENDCHAR
STARTCHAR 1D67
ENCODING 7527
SWIDTH 300 0
DWIDTH 5 0
BBX 5 8 0 -3
BITMAP
88
48
58
50
30
20
20
20
ENDCHAR
STARTCHAR 1D68
ENCODING 7528
SWIDTH 360 0
DWIDTH 6 0
BBX 6 8 0 -3
BITMAP
38
4C
44
C4
C4
B8
40
3C
ENDCHAR
STARTCHAR 1D69
ENCODING 7529
SWIDTH 420 0
DWIDTH 7 0
BBX 7 8 0 -3
BITMAP
7C
52
92
D2
56
3C
10
10
ENDCHAR
STARTCHAR 1D6A
ENCODING 7530
SWIDTH 360 0
DWIDTH 6 0
BBX 6 8 0 -3
BITMAP
C8
48
30
30
30
70
48
8C
ENDCHAR
STARTCHAR 1D6B
ENCODING 7531
SWIDTH 900 0
DWIDTH 15 0
BBX 14 9 1 0
BITMAP
C2F0
C318
C308
C20C
C3FC
C200
C30C
C518
78F0
ENDCHAR
STARTCHAR 1D6C
ENCODING 7532
SWIDTH 540 0
DWIDTH 9 0
BBX 10 12 -1 0
BITMAP
3000
7C00
B800
3F00
3980
3080
30C0
20C0
30C0
3080
3180
3F00
ENDCHAR
STARTCHAR 1D6D
ENCODING 7533
SWIDTH 540 0
DWIDTH 9 0
BBX 9 12 1 0
BITMAP
0200
0E80
0B80
7A00
C600
8200
8200
8200
8200
8200
C600
3A00
ENDCHAR
STARTCHAR 1D6E
ENCODING 7534
SWIDTH 300 0
DWIDTH 5 0
BBX 5 12 0 0
BITMAP
38
20
60
F8
60
60
60
E8
F8
60
60
60
ENDCHAR
STARTCHAR 1D6F
ENCODING 7535
SWIDTH 840 0
DWIDTH 14 0
BBX 14 9 0 0
BITMAP
5EF0
6398
6308
7F0C
E78C
E378
6308
6308
6308
ENDCHAR
STARTCHAR 1D70
ENCODING 7536
SWIDTH 540 0
DWIDTH 9 0
BBX 10 9 0 0
BITMAP
5E00
6300
6100
7140
ED80
E780
6100
6100
6100
ENDCHAR
STARTCHAR 1D71
ENCODING 7537
SWIDTH 540 0
DWIDTH 9 0
BBX 10 13 -1 -4
BITMAP
2F00
3980
3080
30C0
20C0
30C0
3080
3180
3F00
3000
7C00
B800
3000
ENDCHAR
STARTCHAR 1D72
ENCODING 7538
SWIDTH 360 0
DWIDTH 6 0
BBX 7 9 -1 0
BITMAP
2E
30
30
30
74
B8
30
30
30
ENDCHAR
STARTCHAR 1D73
ENCODING 7539
SWIDTH 360 0
DWIDTH 6 0
BBX 7 9 -1 0
BITMAP
1E
10
30
30
74
B8
30
30
30
ENDCHAR
STARTCHAR 1D74
ENCODING 7540
SWIDTH 540 0
DWIDTH 9 0
BBX 8 9 0 0
BITMAP
3E
62
40
60
9D
03
03
43
3E
ENDCHAR
STARTCHAR 1D75
ENCODING 7541
SWIDTH 300 0
DWIDTH 5 0
BBX 6 12 -1 0
BITMAP
10
30
30
78
30
30
74
FC
30
30
30
1C
ENDCHAR
STARTCHAR 1D76
ENCODING 7542
SWIDTH 540 0
DWIDTH 9 0
BBX 8 9 0 0
BITMAP
7F
06
04
7D
5E
30
60
60
FF
ENDCHAR
STARTCHAR 1D77
ENCODING 7543
SWIDTH 540 0
DWIDTH 9 0
BBX 8 12 1 -3
BITMAP
3E
43
C0
FC
C6
C3
C3
C3
C3
C3
E6
FC
ENDCHAR
STARTCHAR 1D78
ENCODING 7544
SWIDTH 360 0
DWIDTH 6 0
BBX 5 6 1 4
BITMAP
88
88
F8
88
88
88
ENDCHAR
STARTCHAR 1D79
ENCODING 7545
SWIDTH 540 0
DWIDTH 9 0
BBX 8 12 1 -3
BITMAP
FE
0C
18
18
3C
46
83
83
83
83
C6
3C
ENDCHAR
STARTCHAR 1D7A
ENCODING 7546
SWIDTH 780 0
DWIDTH 13 0
BBX 12 12 0 0
BITMAP
2640
66C0
6680
F7E0
6730
6610
6610
6E10
7E10
7610
6610
7E10
ENDCHAR
STARTCHAR 1D7B
ENCODING 7547
SWIDTH 240 0
DWIDTH 4 0
BBX 4 9 0 0
BITMAP
60
60
60
60
F0
60
60
60
60
ENDCHAR
STARTCHAR 1D7C
ENCODING 7548
SWIDTH 240 0
DWIDTH 4 0
BBX 4 9 0 0
BITMAP
60
60
60
60
F0
60
60
60
60
ENDCHAR
STARTCHAR 1D7D
ENCODING 7549
SWIDTH 540 0
DWIDTH 9 0
BBX 9 12 0 -3
BITMAP
5E00
7300
6100
6180
FF80
6180
6100
6300
7E00
6000
6000
6000
ENDCHAR
STARTCHAR 1D7E
ENCODING 7550
SWIDTH 540 0
DWIDTH 9 0
BBX 9 9 0 0
BITMAP
6100
6100
6100
6100
FF80
6100
6100
2300
1E00
ENDCHAR
STARTCHAR 1D7F
ENCODING 7551
SWIDTH 600 0
DWIDTH 10 0
BBX 10 9 0 0
BITMAP
7780
3300
6100
4180
FFC0
4180
6180
2300
1E00
ENDCHAR
STARTCHAR 1D80
ENCODING 7552
SWIDTH 540 0
DWIDTH 9 0
BBX 8 15 1 -3
BITMAP
C0
C0
C0
FC
E6
C2
C3
83
C3
C2
C6
FE
06
06
0C
ENDCHAR
STARTCHAR 1D81
ENCODING 7553
SWIDTH 540 0
DWIDTH 9 0
BBX 8 15 1 -3
BITMAP
02
02
02
7A
C6
82
82
82
82
82
C6
3B
01
03
06
ENDCHAR
STARTCHAR 1D82
ENCODING 7554
SWIDTH 300 0
DWIDTH 5 0
BBX 5 15 0 -3
BITMAP
38
20
60
F8
60
60
60
60
60
60
60
70
30
30
E0
ENDCHAR
STARTCHAR 1D83
ENCODING 7555
SWIDTH 720 0
DWIDTH 12 0
BBX 11 12 1 -3
BITMAP
7A00
C600
8200
8200
8200
8200
8200
C7E0
7A60
0260
86C0
7C00
ENDCHAR
STARTCHAR 1D84
ENCODING 7556
SWIDTH 540 0
DWIDTH 9 0
BBX 8 15 1 -3
BITMAP
C0
C0
C0
C6
CC
D8
F0
F0
D8
CC
C4
C7
03
02
0E
ENDCHAR
STARTCHAR 1D85
ENCODING 7557
SWIDTH 240 0
DWIDTH 4 0
BBX 3 15 0 -3
BITMAP
60
60
60
60
60
60
60
60
60
60
60
60
20
20
E0
ENDCHAR
STARTCHAR 1D86
ENCODING 7558
SWIDTH 840 0
DWIDTH 14 0
BBX 13 12 1 -3
BITMAP
BDE0
C730
C610
C610
C610
C610
C610
C610
C618
0018
0018
0030
ENDCHAR
STARTCHAR 1D87
ENCODING 7559
SWIDTH 540 0
DWIDTH 9 0
BBX 8 12 1 -3
BITMAP
FC
C6
C2
C2
C2
C2
C2
C2
C3
01
01
06
ENDCHAR
STARTCHAR 1D88
ENCODING 7560
SWIDTH 540 0
DWIDTH 9 0
BBX 8 12 1 -3
BITMAP
BC
E6
C2
C3
83
C3
C2
C6
FE
C6
C6
DC
ENDCHAR
STARTCHAR 1D89
ENCODING 7561
SWIDTH 360 0
DWIDTH 6 0
BBX 6 12 0 -3
BITMAP
5C
60
60
60
60
60
60
60
60
20
20
E0
ENDCHAR
STARTCHAR 1D8A
ENCODING 7562
SWIDTH 540 0
DWIDTH 9 0
BBX 7 12 1 -3
BITMAP
7C
C4
80
C0
78
06
06
86
7E
06
06
0C
ENDCHAR
STARTCHAR 1D8B
ENCODING 7563
SWIDTH 420 0
DWIDTH 7 0
BBX 7 15 -1 -3
BITMAP
1C
30
30
30
30
30
30
30
30
30
3E
32
32
3E
E0
ENDCHAR
STARTCHAR 1D8C
ENCODING 7564
SWIDTH 540 0
DWIDTH 9 0
BBX 8 12 0 -3
BITMAP
C1
43
62
22
26
34
1C
1C
1F
03
02
0E
ENDCHAR
STARTCHAR 1D8D
ENCODING 7565
SWIDTH 540 0
DWIDTH 9 0
BBX 8 12 0 -3
BITMAP
63
66
34
1C
18
1C
36
62
C3
01
01
07
ENDCHAR
STARTCHAR 1D8E
ENCODING 7566
SWIDTH 540 0
DWIDTH 9 0
BBX 8 12 0 -3
BITMAP
7F
02
04
08
18
30
20
60
FF
01
01
07
ENDCHAR
STARTCHAR 1D8F
ENCODING 7567
SWIDTH 540 0
DWIDTH 9 0
BBX 10 12 1 -3
BITMAP
7C00
C600
8200
1E00
F200
8200
8200
C600
7B00
0100
0100
01C0
ENDCHAR
STARTCHAR 1D90
ENCODING 7568
SWIDTH 540 0
DWIDTH 9 0
BBX 10 12 1 -3
BITMAP
7A00
C600
8200
8200
8200
8200
8200
4600
3B00
0300
0100
01C0
ENDCHAR
STARTCHAR 1D91
ENCODING 7569
SWIDTH 540 0
DWIDTH 9 0
BBX 9 15 1 -3
BITMAP
0380
0200
0200
7A00
C600
8200
8200
8200
8200
8200
C600
3A00
0200
0200
0380
ENDCHAR
STARTCHAR 1D92
ENCODING 7570
SWIDTH 540 0
DWIDTH 9 0
BBX 9 12 1 -3
BITMAP
3C00
4600
C200
8300
FF00
8000
C300
C700
3F00
0300
0300
0180
ENDCHAR
STARTCHAR 1D93
ENCODING 7571
SWIDTH 480 0
DWIDTH 8 0
BBX 8 12 1 -3
BITMAP
78
CC
84
C0
70
80
84
CC
7C
04
06
03
ENDCHAR
STARTCHAR 1D94
ENCODING 7572
SWIDTH 480 0
DWIDTH 8 0
BBX 7 12 0 -3
BITMAP
3C
66
46
06
1C
06
C2
E6
FC
C0
40
70
ENDCHAR
STARTCHAR 1D95
ENCODING 7573
SWIDTH 660 0
DWIDTH 11 0
BBX 11 12 1 -3
BITMAP
7C00
C600
8300
0300
FF80
8380
C280
4680
3C80
0080
0080
00E0
ENDCHAR
STARTCHAR 1D96
ENCODING 7574
SWIDTH 240 0
DWIDTH 4 0
BBX 4 15 1 -3
BITMAP
C0
00
00
C0
C0
C0
C0
C0
C0
C0
C0
C0
40
40
30
ENDCHAR
STARTCHAR 1D97
ENCODING 7575
SWIDTH 540 0
DWIDTH 9 0
BBX 8 12 0 -3
BITMAP
3C
46
C3
03
03
03
C3
C6
FC
C0
C0
60
ENDCHAR
STARTCHAR 1D98
ENCODING 7576
SWIDTH 240 0
DWIDTH 4 0
BBX 6 15 -1 -3
BITMAP
1C
30
30
30
30
30
30
30
30
30
30
20
E0
C0
60
ENDCHAR
STARTCHAR 1D99
ENCODING 7577
SWIDTH 540 0
DWIDTH 9 0
BBX 10 12 1 -3
BITMAP
C200
C200
C200
C200
C200
C200
C200
C600
7B00
0100
0100
01C0
ENDCHAR
STARTCHAR 1D9A
ENCODING 7578
SWIDTH 540 0
DWIDTH 9 0
BBX 8 12 1 -3
BITMAP
FE
04
08
18
3C
06
03
83
C6
BC
80
E0
ENDCHAR
STARTCHAR 1D9B
ENCODING 7579
SWIDTH 360 0
DWIDTH 6 0
BBX 5 6 1 4
BITMAP
F0
88
88
88
98
F0
ENDCHAR
STARTCHAR 1D9C
ENCODING 7580
SWIDTH 360 0
DWIDTH 6 0
BBX 6 6 0 4
BITMAP
78
48
80
80
4C
78
ENDCHAR
STARTCHAR 1D9D
ENCODING 7581
SWIDTH 360 0
DWIDTH 6 0
BBX 5 6 0 4
BITMAP
78
48
80
B8
68
78
ENDCHAR
STARTCHAR 1D9E
ENCODING 7582
SWIDTH 360 0
DWIDTH 6 0
BBX 6 8 0 4
BITMAP
38
28
78
4C
84
84
4C
38
ENDCHAR
STARTCHAR 1D9F
ENCODING 7583
SWIDTH 300 0
DWIDTH 5 0
BBX 5 6 0 4
BITMAP
70
48
30
08
C8
70
ENDCHAR
STARTCHAR 1DA0
ENCODING 7584
SWIDTH 240 0
DWIDTH 4 0
BBX 4 8 0 4
BITMAP
30
40
E0
40
40
40
40
40
ENDCHAR
STARTCHAR 1DA1
ENCODING 7585
SWIDTH 240 0
DWIDTH 4 0
BBX 3 8 0 2
BITMAP
20
20
E0
20
20
20
20
C0
ENDCHAR
STARTCHAR 1DA2
ENCODING 7586
SWIDTH 360 0
DWIDTH 6 0
BBX 6 8 0 2
BITMAP
74
4C
84
84
4C
74
48
78
ENDCHAR
STARTCHAR 1DA3
ENCODING 7587
SWIDTH 420 0
DWIDTH 7 0
BBX 5 8 1 4
BITMAP
88
88
88
88
98
E8
08
08
ENDCHAR
STARTCHAR 1DA4
ENCODING 7588
SWIDTH 180 0
DWIDTH 3 0
BBX 2 8 0 4
BITMAP
40
00
40
40
C0
40
40
40
ENDCHAR
STARTCHAR 1DA5
ENCODING 7589
SWIDTH 180 0
DWIDTH 3 0
BBX 1 6 1 4
BITMAP
80
80
80
80
80
80
ENDCHAR
STARTCHAR 1DA6
ENCODING 7590
SWIDTH 180 0
DWIDTH 3 0
BBX 1 6 1 4
BITMAP
80
80
80
80
80
80
ENDCHAR
STARTCHAR 1DA7
ENCODING 7591
SWIDTH 180 0
DWIDTH 3 0
BBX 2 6 0 4
BITMAP
40
40
C0
40
40
40
ENDCHAR
STARTCHAR 1DA8
ENCODING 7592
SWIDTH 300 0
DWIDTH 5 0
BBX 5 10 0 2
BITMAP
10
00
10
10
10
10
10
F8
90
E0
ENDCHAR
STARTCHAR 1DA9
ENCODING 7593
SWIDTH 180 0
DWIDTH 3 0
BBX 2 10 1 2
BITMAP
80
80
80
80
80
80
80
80
80
C0
ENDCHAR
STARTCHAR 1DAA
ENCODING 7594
SWIDTH 180 0
DWIDTH 3 0
BBX 2 10 0 2
BITMAP
40
40
40
40
40
40
40
40
40
C0
ENDCHAR
STARTCHAR 1DAB
ENCODING 7595
SWIDTH 300 0
DWIDTH 5 0
BBX 3 6 1 4
BITMAP
80
80
80
80
80
E0
ENDCHAR
STARTCHAR 1DAC
ENCODING 7596
SWIDTH 600 0
DWIDTH 10 0
BBX 8 8 1 2
BITMAP
F6
99
91
91
91
91
01
03
ENDCHAR
STARTCHAR 1DAD
ENCODING 7597
SWIDTH 600 0
DWIDTH 10 0
BBX 8 8 1 2
BITMAP
91
91
91
91
99
EF
01
01
ENDCHAR
STARTCHAR 1DAE
ENCODING 7598
SWIDTH 420 0
DWIDTH 7 0
BBX 6 8 0 2
BITMAP
78
4C
44
44
44
44
40
C0
ENDCHAR
STARTCHAR 1DAF
ENCODING 7599
SWIDTH 420 0
DWIDTH 7 0
BBX 6 8 1 2
BITMAP
F0
98
88
88
88
88
08
0C
ENDCHAR
STARTCHAR 1DB0
ENCODING 7600
SWIDTH 360 0
DWIDTH 6 0
BBX 5 6 1 4
BITMAP
88
C8
C8
A8
98
98
ENDCHAR
STARTCHAR 1DB1
ENCODING 7601
SWIDTH 360 0
DWIDTH 6 0
BBX 6 6 0 4
BITMAP
38
44
FC
C4
4C
78
ENDCHAR
STARTCHAR 1DB2
ENCODING 7602
SWIDTH 360 0
DWIDTH 6 0
BBX 6 10 0 2
BITMAP
10
10
78
54
94
94
5C
78
10
10
ENDCHAR
STARTCHAR 1DB3
ENCODING 7603
SWIDTH 360 0
DWIDTH 6 0
BBX 5 8 0 2
BITMAP
78
48
70
18
C8
F8
80
60
ENDCHAR
STARTCHAR 1DB4
ENCODING 7604
SWIDTH 180 0
DWIDTH 3 0
BBX 3 10 0 2
BITMAP
60
40
40
40
40
40
40
40
40
C0
ENDCHAR
STARTCHAR 1DB5
ENCODING 7605
SWIDTH 240 0
DWIDTH 4 0
BBX 3 10 0 2
BITMAP
40
40
E0
40
40
40
40
60
20
60
ENDCHAR
STARTCHAR 1DB6
ENCODING 7606
SWIDTH 420 0
DWIDTH 7 0
BBX 6 6 0 4
BITMAP
44
44
FC
44
4C
74
ENDCHAR
STARTCHAR 1DB7
ENCODING 7607
SWIDTH 420 0
DWIDTH 7 0
BBX 6 6 0 4
BITMAP
EC
48
44
C4
44
38
ENDCHAR
STARTCHAR 1DB8
ENCODING 7608
SWIDTH 360 0
DWIDTH 6 0
BBX 5 6 1 4
BITMAP
88
88
88
88
90
70
ENDCHAR
STARTCHAR 1DB9
ENCODING 7609
SWIDTH 360 0
DWIDTH 6 0
BBX 5 6 1 4
BITMAP
B0
88
88
90
90
E0
ENDCHAR
STARTCHAR 1DBA
ENCODING 7610
SWIDTH 300 0
DWIDTH 5 0
BBX 5 6 0 4
BITMAP
20
30
50
58
48
88
ENDCHAR
STARTCHAR 1DBB
ENCODING 7611
SWIDTH 360 0
DWIDTH 6 0
BBX 6 6 0 4
BITMAP
7C
08
10
20
40
FC
ENDCHAR
STARTCHAR 1DBC
ENCODING 7612
SWIDTH 360 0
DWIDTH 6 0
BBX 7 8 0 2
BITMAP
7C
08
10
20
40
FC
04
06
ENDCHAR
STARTCHAR 1DBD
ENCODING 7613
SWIDTH 360 0
DWIDTH 6 0
BBX 6 7 0 3
BITMAP
7C
08
10
2C
54
FC
20
ENDCHAR
STARTCHAR 1DBE
ENCODING 7614
SWIDTH 360 0
DWIDTH 6 0
BBX 5 8 1 2
BITMAP
F8
10
20
70
18
08
98
F0
ENDCHAR
STARTCHAR 1DBF
ENCODING 7615
SWIDTH 360 0
DWIDTH 6 0
BBX 6 8 0 4
BITMAP
38
48
44
FC
84
44
48
38
ENDCHAR
STARTCHAR 1DC0
ENCODING 7616
SWIDTH 0 0
DWIDTH 0 0
BBX 6 3 -3 10
BITMAP
2C
FC
D0
ENDCHAR
STARTCHAR 1DC1
ENCODING 7617
SWIDTH 0 0
DWIDTH 0 0
BBX 6 3 -3 10
BITMAP
D0
FC
2C
ENDCHAR
STARTCHAR 1DC2
ENCODING 7618
SWIDTH 0 0
DWIDTH 0 0
BBX 2 4 -1 -4
BITMAP
C0
80
80
C0
ENDCHAR
STARTCHAR 1DC3
ENCODING 7619
SWIDTH 0 0
DWIDTH 0 0
BBX 6 2 -3 10
BITMAP
8C
70
ENDCHAR
STARTCHAR 1DC4
ENCODING 7620
SWIDTH 0 0
DWIDTH 0 0
BBX 5 2 -3 10
BITMAP
08
F0
ENDCHAR
STARTCHAR 1DC5
ENCODING 7621
SWIDTH 0 0
DWIDTH 0 0
BBX 5 2 -2 10
BITMAP
80
78
ENDCHAR
STARTCHAR 1DC6
ENCODING 7622
SWIDTH 0 0
DWIDTH 0 0
BBX 5 2 -3 10
BITMAP
F0
08
ENDCHAR
STARTCHAR 1DC7
ENCODING 7623
SWIDTH 0 0
DWIDTH 0 0
BBX 5 2 -2 10
BITMAP
78
80
ENDCHAR
STARTCHAR 1DC8
ENCODING 7624
SWIDTH 0 0
DWIDTH 0 0
BBX 6 2 -3 10
BITMAP
98
64
ENDCHAR
STARTCHAR 1DC9
ENCODING 7625
SWIDTH 0 0
DWIDTH 0 0
BBX 6 2 -3 10
BITMAP
64
98
ENDCHAR
STARTCHAR 1DCA
ENCODING 7626
SWIDTH 0 0
DWIDTH 0 0
BBX 2 3 -1 -4
BITMAP
C0
80
80
ENDCHAR
STARTCHAR 1DFE
ENCODING 7678
SWIDTH 0 0
DWIDTH 0 0
BBX 2 3 -1 10
BITMAP
40
80
40
ENDCHAR
STARTCHAR 1DFF
ENCODING 7679
SWIDTH 0 0
DWIDTH 0 0
BBX 5 3 -2 -3
BITMAP
80
68
90
ENDCHAR
STARTCHAR 1E00
ENCODING 7680
SWIDTH 720 0
DWIDTH 12 0
BBX 12 16 0 -4
BITMAP
0FC0
3FE0
7FF0
7070
F070
F070
FFF0
FFF0
E0F0
E0E0
E0E0
E0E0
0000
1C00
1400
0C00
ENDCHAR
STARTCHAR 1E01
ENCODING 7681
SWIDTH 720 0
DWIDTH 12 0
BBX 12 16 0 -4
BITMAP
0FC0
3FE0
7FF0
7070
F070
F070
FFF0
FFF0
E0F0
E0E0
E0E0
E0E0
0000
3800
2800
1000
ENDCHAR
STARTCHAR 1E02
ENCODING 7682
SWIDTH 720 0
DWIDTH 12 0
BBX 12 15 0 0
BITMAP
3000
3000
0000
7FC0
7FF0
7FF0
7070
F070
FFF0
FFF0
FFF0
F070
FFF0
FFF0
FFC0
ENDCHAR
STARTCHAR 1E03
ENCODING 7683
SWIDTH 720 0
DWIDTH 12 0
BBX 12 12 0 0
BITMAP
7FC0
4FF0
7FF0
7070
F070
FFF0
FFF0
FFF0
F070
FFF0
FFF0
FFC0
ENDCHAR
STARTCHAR 1E04
ENCODING 7684
SWIDTH 720 0
DWIDTH 12 0
BBX 12 15 0 -3
BITMAP
7FC0
7FF0
7FF0
7070
F070
FFF0
FFF0
FFF0
F070
FFF0
FFF0
FFC0
0000
1000
1000
ENDCHAR
STARTCHAR 1E05
ENCODING 7685
SWIDTH 720 0
DWIDTH 12 0
BBX 12 15 0 -3
BITMAP
7FC0
7FF0
7FF0
7070
F070
FFF0
FFF0
FFF0
F070
FFF0
FFF0
FFC0
0000
3000
3000
ENDCHAR
STARTCHAR 1E06
ENCODING 7686
SWIDTH 720 0
DWIDTH 12 0
BBX 12 14 0 -2
BITMAP
7FC0
7FF0
7FF0
7070
F070
FFF0
FFF0
FFF0
F070
FFF0
FFF0
FFC0
0000
7C00
ENDCHAR
STARTCHAR 1E07
ENCODING 7687
SWIDTH 720 0
DWIDTH 12 0
BBX 12 14 0 -2
BITMAP
7FC0
7FF0
7FF0
7070
F070
FFF0
FFF0
FFF0
F070
FFF0
FFF0
FFC0
0000
F800
ENDCHAR
STARTCHAR 1E08
ENCODING 7688
SWIDTH 720 0
DWIDTH 12 0
BBX 12 21 0 -4
BITMAP
0E00
0C00
1C00
1C00
0000
0FF0
3FF0
7FF0
7000
F000
E000
E000
E000
E000
FFE0
7FE0
7FE0
0C00
0E00
3C00
1800
ENDCHAR
STARTCHAR 1E09
ENCODING 7689
SWIDTH 720 0
DWIDTH 12 0
BBX 12 17 0 -3
BITMAP
3800
3000
3FF0
7FF0
7FF0
7000
F000
E000
E000
E000
E000
FFE0
7FE0
7FE0
3800
3800
F800
ENDCHAR
STARTCHAR 1E0A
ENCODING 7690
SWIDTH 720 0
DWIDTH 12 0
BBX 12 15 0 0
BITMAP
1800
1800
0000
7F80
7FE0
7FF0
7070
E070
E070
E070
E070
E0F0
FFE0
FFE0
FFC0
ENDCHAR
STARTCHAR 1E0B
ENCODING 7691
SWIDTH 720 0
DWIDTH 12 0
BBX 12 12 0 0
BITMAP
FF80
9FE0
7FF0
7070
E070
E070
E070
E070
E0F0
FFE0
FFE0
FFC0
ENDCHAR
STARTCHAR 1E0C
ENCODING 7692
SWIDTH 720 0
DWIDTH 12 0
BBX 12 15 0 -3
BITMAP
7F80
7FE0
7FF0
7070
E070
E070
E070
E070
E0F0
FFE0
FFE0
FFC0
0000
1800
1800
ENDCHAR
STARTCHAR 1E0D
ENCODING 7693
SWIDTH 720 0
DWIDTH 12 0
BBX 12 15 0 -3
BITMAP
7F80
7FE0
7FF0
7070
E070
E070
E070
E070
E0F0
FFE0
FFE0
FFC0
0000
3000
3000
ENDCHAR
STARTCHAR 1E0E
ENCODING 7694
SWIDTH 720 0
DWIDTH 12 0
BBX 12 14 0 -2
BITMAP
7F80
7FE0
7FF0
7070
E070
E070
E070
E070
E0F0
FFE0
FFE0
FFC0
0000
7C00
ENDCHAR
STARTCHAR 1E0F
ENCODING 7695
SWIDTH 720 0
DWIDTH 12 0
BBX 12 14 0 -2
BITMAP
7F80
7FE0
7FF0
7070
E070
E070
E070
E070
E0F0
FFE0
FFE0
FFC0
0000
F800
ENDCHAR
STARTCHAR 1E10
ENCODING 7696
SWIDTH 720 0
DWIDTH 12 0
BBX 12 16 0 -4
BITMAP
7F80
7FE0
7FF0
7070
E070
E070
E070
E070
E0F0
FFE0
FFE0
FFC0
0000
1800
0800
1000
ENDCHAR
STARTCHAR 1E11
ENCODING 7697
SWIDTH 720 0
DWIDTH 12 0
BBX 12 16 0 -4
BITMAP
7F80
7FE0
7FF0
7070
E070
E070
E070
E070
E0F0
FFE0
FFE0
FFC0
0000
3000
1000
2000
ENDCHAR
STARTCHAR 1E12
ENCODING 7698
SWIDTH 720 0
DWIDTH 12 0
BBX 12 15 0 -3
BITMAP
7F80
7FE0
7FF0
7070
E070
E070
E070
E070
E0F0
FFE0
FFE0
FFC0
0000
1800
3C00
ENDCHAR
STARTCHAR 1E13
ENCODING 7699
SWIDTH 720 0
DWIDTH 12 0
BBX 12 15 0 -3
BITMAP
7F80
7FE0
7FF0
7070
E070
E070
E070
E070
E0F0
FFE0
FFE0
FFC0
0000
7000
D800
ENDCHAR
STARTCHAR 1E14
ENCODING 7700
SWIDTH 720 0
DWIDTH 12 0
BBX 12 15 0 0
BITMAP
3000
0000
3C00
0FF0
3FF0
7FF0
7000
F000
FFF0
FFF0
F000
F000
FFF0
7FE0
7FE0
ENDCHAR
STARTCHAR 1E15
ENCODING 7701
SWIDTH 720 0
DWIDTH 12 0
BBX 12 16 0 0
BITMAP
6000
6000
7000
3000
3FF0
3FF0
7FF0
7000
F000
FFF0
FFF0
F000
F000
FFF0
7FE0
7FE0
ENDCHAR
STARTCHAR 1E16
ENCODING 7702
SWIDTH 720 0
DWIDTH 12 0
BBX 12 15 0 0
BITMAP
0800
0000
3C00
0FF0
3FF0
7FF0
7000
F000
FFF0
FFF0
F000
F000
FFF0
7FE0
7FE0
ENDCHAR
STARTCHAR 1E17
ENCODING 7703
SWIDTH 720 0
DWIDTH 12 0
BBX 12 17 0 0
BITMAP
1800
1800
3800
3000
3000
3FF0
3FF0
7FF0
7000
F000
FFF0
FFF0
F000
F000
FFF0
7FE0
7FE0
ENDCHAR
STARTCHAR 1E18
ENCODING 7704
SWIDTH 720 0
DWIDTH 12 0
BBX 12 15 0 -3
BITMAP
0FF0
3FF0
7FF0
7000
F000
FFF0
FFF0
F000
F000
FFF0
7FE0
7FE0
0000
1800
3C00
ENDCHAR
STARTCHAR 1E19
ENCODING 7705
SWIDTH 720 0
DWIDTH 12 0
BBX 12 15 0 -3
BITMAP
0FF0
3FF0
7FF0
7000
F000
FFF0
FFF0
F000
F000
FFF0
7FE0
7FE0
0000
3000
7800
ENDCHAR
STARTCHAR 1E1A
ENCODING 7706
SWIDTH 720 0
DWIDTH 12 0
BBX 12 15 0 -3
BITMAP
0FF0
3FF0
7FF0
7000
F000
FFF0
FFF0
F000
F000
FFF0
7FE0
7FE0
0000
0200
7E00
ENDCHAR
STARTCHAR 1E1B
ENCODING 7707
SWIDTH 720 0
DWIDTH 12 0
BBX 12 15 0 -3
BITMAP
0FF0
3FF0
7FF0
7000
F000
FFF0
FFF0
F000
F000
FFF0
7FE0
7FE0
0000
0C00
F800
ENDCHAR
STARTCHAR 1E1C
ENCODING 7708
SWIDTH 660 0
DWIDTH 11 0
BBX 9 18 1 -4
BITMAP
3200
1C00
0000
FF80
C000
C000
C000
C000
FF80
C000
C000
C000
C000
C000
FF80
0800
0600
1E00
ENDCHAR
STARTCHAR 1E1D
ENCODING 7709
SWIDTH 540 0
DWIDTH 9 0
BBX 8 15 1 -4
BITMAP
44
38
00
3C
66
C2
83
FF
80
C3
C6
7C
10
0C
3C
ENDCHAR
STARTCHAR 1E1E
ENCODING 7710
SWIDTH 720 0
DWIDTH 12 0
BBX 13 15 0 0
BITMAP
1800
1800
0000
0FF8
3FF8
7FF0
7000
F000
FFF0
FFF0
F000
F000
E000
E000
E000
ENDCHAR
STARTCHAR 1E1F
ENCODING 7711
SWIDTH 720 0
DWIDTH 12 0
BBX 13 15 0 0
BITMAP
6000
6000
0000
0FF8
3FF8
7FF0
7000
F000
FFF0
FFF0
F000
F000
E000
E000
E000
ENDCHAR
STARTCHAR 1E20
ENCODING 7712
SWIDTH 720 0
DWIDTH 12 0
BBX 12 15 0 0
BITMAP
0FC0
0F80
0000
0FF0
3FF0
7FF0
7000
F000
E000
E070
E070
E070
FFF0
7FE0
7FE0
ENDCHAR
STARTCHAR 1E21
ENCODING 7713
SWIDTH 720 0
DWIDTH 12 0
BBX 12 12 0 0
BITMAP
3FF0
7FF0
7FF0
7000
F000
E000
E070
E070
E070
FFF0
7FE0
7FE0
ENDCHAR
STARTCHAR 1E22
ENCODING 7714
SWIDTH 720 0
DWIDTH 12 0
BBX 12 15 0 0
BITMAP
0600
0600
0000
7070
7070
70F0
70F0
F0F0
FFF0
FFF0
FFE0
E0E0
E0E0
E0E0
E0E0
ENDCHAR
STARTCHAR 1E23
ENCODING 7715
SWIDTH 720 0
DWIDTH 12 0
BBX 12 15 0 0
BITMAP
0C00
0C00
0000
7070
7070
70F0
70F0
F0F0
FFF0
FFF0
FFE0
E0E0
E0E0
E0E0
E0E0
ENDCHAR
STARTCHAR 1E24
ENCODING 7716
SWIDTH 720 0
DWIDTH 12 0
BBX 12 15 0 -3
BITMAP
7070
7070
70F0
70F0
F0F0
FFF0
FFF0
FFE0
E0E0
E0E0
E0E0
E0E0
0000
0600
0600
ENDCHAR
STARTCHAR 1E25
ENCODING 7717
SWIDTH 720 0
DWIDTH 12 0
BBX 12 15 0 -3
BITMAP
7070
7070
70F0
70F0
F0F0
FFF0
FFF0
FFE0
E0E0
E0E0
E0E0
E0E0
0000
1800
1800
ENDCHAR
STARTCHAR 1E26
ENCODING 7718
SWIDTH 720 0
DWIDTH 12 0
BBX 14 18 0 0
BITMAP
0198
01DC
01DC
0000
0000
0000
7070
7070
70F0
70F0
F0F0
FFF0
FFF0
FFE0
E0E0
E0E0
E0E0
E0E0
ENDCHAR
STARTCHAR 1E27
ENCODING 7719
SWIDTH 720 0
DWIDTH 12 0
BBX 12 18 0 0
BITMAP
0330
0770
0770
0000
0000
0000
7070
7070
70F0
70F0
F0F0
FFF0
FFF0
FFE0
E0E0
E0E0
E0E0
E0E0
ENDCHAR
STARTCHAR 1E28
ENCODING 7720
SWIDTH 720 0
DWIDTH 12 0
BBX 12 16 0 -4
BITMAP
7070
7070
70F0
70F0
F0F0
FFF0
FFF0
FFE0
E0E0
E0E0
E0E0
E0E0
1800
3800
7800
3000
ENDCHAR
STARTCHAR 1E29
ENCODING 7721
SWIDTH 720 0
DWIDTH 12 0
BBX 12 16 0 -4
BITMAP
7070
7070
70F0
70F0
F0F0
FFF0
FFF0
FFE0
E0E0
E0E0
E0E0
E0E0
3800
3800
F800
6000
ENDCHAR
STARTCHAR 1E2A
ENCODING 7722
SWIDTH 720 0
DWIDTH 12 0
BBX 12 15 0 -3
BITMAP
7070
7070
70F0
70F0
F0F0
FFF0
FFF0
FFE0
E0E0
E0E0
E0E0
E0E0
0000
1100
0F00
ENDCHAR
STARTCHAR 1E2B
ENCODING 7723
SWIDTH 720 0
DWIDTH 12 0
BBX 12 15 0 -3
BITMAP
7070
7070
70F0
70F0
F0F0
FFF0
FFF0
FFE0
E0E0
E0E0
E0E0
E0E0
0000
2200
3C00
ENDCHAR
STARTCHAR 1E2C
ENCODING 7724
SWIDTH 240 0
DWIDTH 4 0
BBX 6 15 -2 -3
BITMAP
1C
1C
1C
1C
1C
3C
3C
3C
3C
38
38
38
00
0C
F8
ENDCHAR
STARTCHAR 1E2D
ENCODING 7725
SWIDTH 240 0
DWIDTH 4 0
BBX 6 15 -2 -3
BITMAP
1C
1C
1C
1C
1C
3C
3C
3C
3C
38
38
38
00
08
F8
ENDCHAR
STARTCHAR 1E2E
ENCODING 7726
SWIDTH 240 0
DWIDTH 4 0
BBX 5 15 -1 0
BITMAP
60
90
90
38
38
38
38
38
78
78
78
78
70
70
70
ENDCHAR
STARTCHAR 1E2F
ENCODING 7727
SWIDTH 300 0
DWIDTH 5 0
BBX 8 17 2 0
BITMAP
E0
E0
F3
B7
73
00
00
00
80
80
80
80
80
80
80
80
80
ENDCHAR
STARTCHAR 1E30
ENCODING 7728
SWIDTH 720 0
DWIDTH 12 0
BBX 13 17 0 0
BITMAP
0E00
0C00
1C00
1C00
0000
78F8
71F0
73E0
F3C0
F7C0
FF80
FF00
FF80
F7C0
F3C0
F3E0
E1F0
ENDCHAR
STARTCHAR 1E31
ENCODING 7729
SWIDTH 720 0
DWIDTH 12 0
BBX 13 17 0 0
BITMAP
0C00
1C00
1800
1800
0000
78F8
71F0
73E0
F3C0
F7C0
FF80
FF00
FF80
F7C0
F3C0
F3E0
E1F0
ENDCHAR
STARTCHAR 1E32
ENCODING 7730
SWIDTH 720 0
DWIDTH 12 0
BBX 13 15 0 -3
BITMAP
78F8
71F0
73E0
F3C0
F7C0
FF80
FF00
FF80
F7C0
F3C0
F3E0
E1F0
0000
0800
0800
ENDCHAR
STARTCHAR 1E33
ENCODING 7731
SWIDTH 720 0
DWIDTH 12 0
BBX 13 15 0 -3
BITMAP
78F8
71F0
73E0
F3C0
F7C0
FF80
FF00
FF80
F7C0
F3C0
F3E0
E1F0
0000
3000
3000
ENDCHAR
STARTCHAR 1E34
ENCODING 7732
SWIDTH 720 0
DWIDTH 12 0
BBX 13 14 0 -2
BITMAP
78F8
71F0
73E0
F3C0
F7C0
FF80
FF00
FF80
F7C0
F3C0
F3E0
E1F0
0000
3E00
ENDCHAR
STARTCHAR 1E35
ENCODING 7733
SWIDTH 720 0
DWIDTH 12 0
BBX 13 14 0 -2
BITMAP
78F8
71F0
73E0
F3C0
F7C0
FF80
FF00
FF80
F7C0
F3C0
F3E0
E1F0
0000
7C00
ENDCHAR
STARTCHAR 1E36
ENCODING 7734
SWIDTH 720 0
DWIDTH 12 0
BBX 12 15 0 -3
BITMAP
7000
7000
7000
F000
F000
F000
F000
F000
F000
FFF0
FFF0
7FE0
0000
3000
3000
ENDCHAR
STARTCHAR 1E37
ENCODING 7735
SWIDTH 720 0
DWIDTH 12 0
BBX 13 15 -1 -3
BITMAP
3800
3800
3800
7800
7800
7800
7800
7800
7800
7FF8
7FF8
3FF0
0000
C000
C000
ENDCHAR
STARTCHAR 1E38
ENCODING 7736
SWIDTH 720 0
DWIDTH 12 0
BBX 12 18 0 -3
BITMAP
3F00
3E00
0000
7000
7000
7000
F000
F000
F000
F000
F000
F000
FFF0
FFF0
7FE0
0000
3000
3000
ENDCHAR
STARTCHAR 1E39
ENCODING 7737
SWIDTH 720 0
DWIDTH 12 0
BBX 13 18 -1 -3
BITMAP
FC00
FC00
0000
3800
3800
3800
7800
7800
7800
7800
7800
7800
7FF8
7FF8
3FF0
0000
C000
C000
ENDCHAR
STARTCHAR 1E3A
ENCODING 7738
SWIDTH 720 0
DWIDTH 12 0
BBX 12 14 0 -2
BITMAP
7000
7000
7000
F000
F000
F000
F000
F000
F000
FFF0
FFF0
7FE0
0000
7C00
ENDCHAR
STARTCHAR 1E3B
ENCODING 7739
SWIDTH 720 0
DWIDTH 12 0
BBX 15 14 -3 -2
BITMAP
0E00
0E00
0E00
1E00
1E00
1E00
1E00
1E00
1E00
1FFE
1FFE
0FFC
0000
FC00
ENDCHAR
STARTCHAR 1E3C
ENCODING 7740
SWIDTH 720 0
DWIDTH 12 0
BBX 12 15 0 -3
BITMAP
7000
7000
7000
F000
F000
F000
F000
F000
F000
FFF0
FFF0
7FE0
0000
3000
6800
ENDCHAR
STARTCHAR 1E3D
ENCODING 7741
SWIDTH 720 0
DWIDTH 12 0
BBX 14 15 -2 -3
BITMAP
1C00
1C00
1C00
3C00
3C00
3C00
3C00
3C00
3C00
3FFC
3FFC
1FF8
0000
6000
F000
ENDCHAR
STARTCHAR 1E3E
ENCODING 7742
SWIDTH 900 0
DWIDTH 15 0
BBX 15 17 0 0
BITMAP
0380
0380
0300
0300
0000
7FF8
7FFC
7FFC
7FFE
F38E
F39C
E39C
E39C
E39C
E39C
E39C
E71C
ENDCHAR
STARTCHAR 1E3F
ENCODING 7743
SWIDTH 900 0
DWIDTH 15 0
BBX 15 14 0 0
BITMAP
0180
0380
7FF8
7FFC
7FFC
7FFE
F38E
F39C
E39C
E39C
E39C
E39C
E39C
E71C
ENDCHAR
STARTCHAR 1E40
ENCODING 7744
SWIDTH 900 0
DWIDTH 15 0
BBX 15 15 0 0
BITMAP
0300
0300
0000
7FF8
7FFC
7FFC
7FFE
F38E
F39C
E39C
E39C
E39C
E39C
E39C
E71C
ENDCHAR
STARTCHAR 1E41
ENCODING 7745
SWIDTH 900 0
DWIDTH 15 0
BBX 15 12 0 0
BITMAP
7FF8
7FFC
7FFC
7FFE
F38E
F39C
E39C
E39C
E39C
E39C
E39C
E71C
ENDCHAR
STARTCHAR 1E42
ENCODING 7746
SWIDTH 900 0
DWIDTH 15 0
BBX 15 15 0 -3
BITMAP
7FF8
7FFC
7FFC
7FFE
F38E
F39C
E39C
E39C
E39C
E39C
E39C
E71C
0000
0200
0200
ENDCHAR
STARTCHAR 1E43
ENCODING 7747
SWIDTH 900 0
DWIDTH 15 0
BBX 15 15 0 -3
BITMAP
7FF8
7FFC
7FFC
7FFE
F38E
F39C
E39C
E39C
E39C
E39C
E39C
E71C
0000
0200
0200
ENDCHAR
STARTCHAR 1E44
ENCODING 7748
SWIDTH 720 0
DWIDTH 12 0
BBX 12 15 0 0
BITMAP
0600
0600
0000
7FC0
7FF0
7FF0
7FF0
7070
F070
F070
E070
E070
E0F0
E0E0
E0E0
ENDCHAR
STARTCHAR 1E45
ENCODING 7749
SWIDTH 720 0
DWIDTH 12 0
BBX 12 12 0 0
BITMAP
7FC0
7FF0
7FF0
7FF0
7070
F070
F070
E070
E070
E0F0
E0E0
E0E0
ENDCHAR
STARTCHAR 1E46
ENCODING 7750
SWIDTH 720 0
DWIDTH 12 0
BBX 12 15 0 -3
BITMAP
7FC0
7FF0
7FF0
7FF0
7070
F070
F070
E070
E070
E0F0
E0E0
E0E0
0000
0400
0400
ENDCHAR
STARTCHAR 1E47
ENCODING 7751
SWIDTH 720 0
DWIDTH 12 0
BBX 12 15 0 -3
BITMAP
7FC0
7FF0
7FF0
7FF0
7070
F070
F070
E070
E070
E0F0
E0E0
E0E0
0000
1800
1800
ENDCHAR
STARTCHAR 1E48
ENCODING 7752
SWIDTH 720 0
DWIDTH 12 0
BBX 12 14 0 -2
BITMAP
7FC0
7FF0
7FF0
7FF0
7070
F070
F070
E070
E070
E0F0
E0E0
E0E0
0000
1F00
ENDCHAR
STARTCHAR 1E49
ENCODING 7753
SWIDTH 720 0
DWIDTH 12 0
BBX 12 14 0 -2
BITMAP
7FC0
7FF0
7FF0
7FF0
7070
F070
F070
E070
E070
E0F0
E0E0
E0E0
0000
3E00
ENDCHAR
STARTCHAR 1E4A
ENCODING 7754
SWIDTH 720 0
DWIDTH 12 0
BBX 12 15 0 -3
BITMAP
7FC0
7FF0
7FF0
7FF0
7070
F070
F070
E070
E070
E0F0
E0E0
E0E0
0000
0E00
1B00
ENDCHAR
STARTCHAR 1E4B
ENCODING 7755
SWIDTH 720 0
DWIDTH 12 0
BBX 12 15 0 -3
BITMAP
7FC0
7FF0
7FF0
7FF0
7070
F070
F070
E070
E070
E0F0
E0E0
E0E0
0000
1800
3400
ENDCHAR
STARTCHAR 1E4C
ENCODING 7756
SWIDTH 780 0
DWIDTH 13 0
BBX 13 19 0 0
BITMAP
0180
0180
0380
0340
0FC0
1F80
1B00
1FE0
3FF0
7FF0
7078
F078
E078
E078
E070
E070
FFF0
FFE0
7FE0
ENDCHAR
STARTCHAR 1E4D
ENCODING 7757
SWIDTH 780 0
DWIDTH 13 0
BBX 13 19 0 0
BITMAP
0180
0180
0380
0340
0FC0
1F80
1B00
1FE0
3FF0
7FF0
7078
F078
E078
E078
E070
E070
FFF0
FFE0
7FE0
ENDCHAR
STARTCHAR 1E4E
ENCODING 7758
SWIDTH 780 0
DWIDTH 13 0
BBX 13 18 0 0
BITMAP
1DC0
1DC0
0CC0
0FC0
1F80
1B00
1FE0
3FF0
7FF0
7078
F078
E078
E078
E070
E070
FFF0
FFE0
7FE0
ENDCHAR
STARTCHAR 1E4F
ENCODING 7759
SWIDTH 780 0
DWIDTH 13 0
BBX 13 18 0 0
BITMAP
1DC0
1DC0
0CC0
0FC0
1F80
1B00
1FE0
3FF0
7FF0
7078
F078
E078
E078
E070
E070
FFF0
FFE0
7FE0
ENDCHAR
STARTCHAR 1E50
ENCODING 7760
SWIDTH 780 0
DWIDTH 13 0
BBX 13 15 0 0
BITMAP
1800
0000
3E00
1FE0
3FF0
7FF0
7078
F078
E078
E078
E070
E070
FFF0
FFE0
7FE0
ENDCHAR
STARTCHAR 1E51
ENCODING 7761
SWIDTH 780 0
DWIDTH 13 0
BBX 13 16 0 0
BITMAP
6000
6000
7000
7000
3FE0
3FF0
7FF0
7078
F078
E078
E078
E070
E070
FFF0
FFE0
7FE0
ENDCHAR
STARTCHAR 1E52
ENCODING 7762
SWIDTH 780 0
DWIDTH 13 0
BBX 13 15 0 0
BITMAP
0C00
0000
3E00
1FE0
3FF0
7FF0
7078
F078
E078
E078
E070
E070
FFF0
FFE0
7FE0
ENDCHAR
STARTCHAR 1E53
ENCODING 7763
SWIDTH 780 0
DWIDTH 13 0
BBX 13 17 0 0
BITMAP
1000
1800
3800
3000
3000
3FE0
3FF0
7FF0
7078
F078
E078
E078
E070
E070
FFF0
FFE0
7FE0
ENDCHAR
STARTCHAR 1E54
ENCODING 7764
SWIDTH 720 0
DWIDTH 12 0
BBX 12 17 0 0
BITMAP
1800
1800
3800
3000
0000
7FC0
7FF0
7FF0
7070
F070
FFF0
FFF0
FFE0
F000
E000
E000
E000
ENDCHAR
STARTCHAR 1E55
ENCODING 7765
SWIDTH 720 0
DWIDTH 12 0
BBX 12 14 0 0
BITMAP
1800
3800
47C0
4FF0
7FF0
7070
F070
FFF0
FFF0
FFE0
F000
E000
E000
E000
ENDCHAR
STARTCHAR 1E56
ENCODING 7766
SWIDTH 720 0
DWIDTH 12 0
BBX 12 15 0 0
BITMAP
3000
3000
0000
7FC0
7FF0
7FF0
7070
F070
FFF0
FFF0
FFE0
F000
E000
E000
E000
ENDCHAR
ENDFONT
